<svg width="363" height="313" viewBox="0 0 363 313" fill="none" xmlns="http://www.w3.org/2000/svg">
<g clip-path="url(#clip0_222_1135)">
<path d="M150.997 271.92L154.962 258.993C150.191 253.736 144.212 249.725 137.542 247.307C144.058 258.117 137.744 272.217 140.375 284.565C141.225 288.41 142.929 292.014 145.359 295.11C147.79 298.206 150.885 300.715 154.415 302.451L160.432 309.915C163.586 304.397 165.508 298.261 166.065 291.928C166.623 285.596 165.802 279.218 163.66 273.233C162.426 269.888 160.775 266.711 158.747 263.779C155.172 267.987 150.997 271.92 150.997 271.92Z" fill="#F2F2F2"/>
<path d="M129.197 273.572L126.987 260.231C120.376 257.656 113.237 256.736 106.19 257.551C116.837 264.315 117.467 279.756 125.322 289.633C127.796 292.694 130.926 295.16 134.48 296.846C138.035 298.531 141.923 299.395 145.856 299.372L154.565 303.366C154.931 297.019 153.918 290.669 151.596 284.752C149.274 278.835 145.698 273.493 141.116 269.093C138.52 266.65 135.628 264.544 132.507 262.824C131.182 268.187 129.197 273.572 129.197 273.572Z" fill="#F2F2F2"/>
<path d="M258.958 306.597L252.851 306.597L249.945 283.013L258.959 283.013L258.958 306.597Z" fill="#FFB6B6"/>
<path d="M260.515 312.524L240.824 312.523V312.274C240.824 310.238 241.631 308.287 243.069 306.848C244.506 305.409 246.455 304.6 248.488 304.6H248.489L252.085 301.868L258.796 304.6L260.515 304.6L260.515 312.524Z" fill="#2F2E41"/>
<path d="M357.608 284.295L353.444 288.767L334.231 274.815L340.377 268.215L357.608 284.295Z" fill="#FFB6B6"/>
<path d="M363 287.195L349.574 301.617L349.392 301.447C347.905 300.059 347.029 298.137 346.958 296.103C346.886 294.069 347.625 292.09 349.011 290.601L349.467 286.104L356.039 283.052L357.211 281.793L363 287.195Z" fill="#2F2E41"/>
<path d="M348.571 271.041L342.116 284.557L302.479 258.281L296.713 250.415L277.806 224.623L270.12 236.833L264.772 249.596C263.029 250.735 261.561 252.246 260.472 254.022C259.384 255.798 258.703 257.793 258.479 259.864L258.234 262.124L261.613 292.54L248.769 296.488L241.393 255.629L243.804 246.775L246.287 234.347L258.786 195.074H292.234L311.419 235.959L312.821 244.29L318.261 250.54L348.571 271.041Z" fill="#2F2E41"/>
<path d="M279.059 130.819L284.69 135.112L291.48 137.201C291.48 137.201 294.288 176.737 296.817 179.269C299.347 181.802 297.065 181.87 297.574 185.16C298.082 188.45 299.317 195.194 299.317 195.194C282.243 204.243 267.523 204.486 255.7 193.897C255.548 193.242 255.625 192.555 255.918 191.949C256.21 191.344 256.7 190.857 257.307 190.569C259.507 189.4 255.278 183.943 257.076 183.031C258.875 182.118 256.345 174.204 256.345 174.204L258.005 157.692L256.694 155.052L259.893 138.901L265.444 136.871L267.662 131.522L279.059 130.819Z" fill="#3F3D56"/>
<path d="M282.587 201.087C282.561 200.373 282.693 199.663 282.972 199.005C283.25 198.347 283.67 197.759 284.2 197.281C284.731 196.803 285.36 196.448 286.042 196.24C286.725 196.031 287.445 195.976 288.151 196.076L296.087 180.634L300.508 188.498L292.294 201.957C292.047 203.134 291.377 204.179 290.411 204.895C289.446 205.61 288.251 205.946 287.055 205.839C285.858 205.732 284.742 205.189 283.919 204.313C283.095 203.438 282.621 202.29 282.587 201.087Z" fill="#FFB6B6"/>
<path d="M295.95 197.31L312.971 170.898L312.914 170.777C312.85 170.638 308.996 162.304 305.261 154.67C304.686 153.494 304.114 152.336 303.559 151.226C303.319 150.747 303.083 150.278 302.851 149.819C301.282 146.723 299.912 144.164 299.094 142.948C297.284 140.2 294.591 138.154 291.46 137.15L291.381 137.13L291.306 137.161C289.774 137.808 288.509 138.958 287.718 140.422C286.927 141.886 286.658 143.576 286.955 145.213C288.431 153.111 291.721 160.558 296.564 166.965L299.323 170.607L289.734 191.479L295.95 197.31Z" fill="#3F3D56"/>
<path d="M237.423 96.0713C237.892 96.6101 238.237 97.2452 238.434 97.9318C238.631 98.6185 238.675 99.3401 238.563 100.046C238.451 100.751 238.187 101.424 237.787 102.016C237.388 102.608 236.864 103.105 236.252 103.473L239.8 120.472L231.419 117.15L229.335 101.516C228.786 100.446 228.649 99.2114 228.95 98.0467C229.25 96.882 229.966 95.868 230.963 95.1968C231.96 94.5257 233.168 94.244 234.359 94.4052C235.55 94.5663 236.64 95.1592 237.423 96.0713Z" fill="#FFB6B6"/>
<path d="M229.417 107.431L232.807 138.679L232.927 138.738C233.026 138.787 237.319 140.895 242.59 143.407C243.479 143.83 243.351 145.665 244.281 146.104C244.921 146.406 246.611 145.31 247.258 145.613C253.019 148.31 258.844 150.933 261.165 151.643C264.3 152.638 267.679 152.529 270.743 151.335L270.817 151.301L270.855 151.229C271.638 149.761 271.898 148.069 271.592 146.433C271.286 144.798 270.432 143.315 269.171 142.23C263.057 137.026 255.818 133.315 248.026 131.391L243.592 130.302L237.914 108.042L229.417 107.431Z" fill="#3F3D56"/>
<path d="M273.056 129.048C279.207 129.048 284.193 124.056 284.193 117.897C284.193 111.739 279.207 106.746 273.056 106.746C266.905 106.746 261.918 111.739 261.918 117.897C261.918 124.056 266.905 129.048 273.056 129.048Z" fill="#FFB6B6"/>
<path d="M261.998 110.425C262.914 107.757 267.473 105.907 274.865 105.649C282.257 105.392 284.132 114.113 284.132 114.113C289.066 118.121 278.862 128.851 278.369 128.464L278.591 126.448C278.958 123.109 280.52 120.504 278.534 117.024L276.627 117.046C274.164 117.52 271.701 117.994 269.237 118.469L272.154 115.898L272.071 115.771C270.831 116.418 269.481 116.828 268.091 116.981C266.523 117.073 264.81 116.448 264.059 115.068C263.859 114.688 263.736 114.273 263.699 113.845C261.586 114.69 260.619 117.299 260.619 117.299C260.619 117.299 261.082 113.093 261.998 110.425Z" fill="#2F2E41"/>
<path d="M44.873 111.094C44.7219 110.902 44.5592 110.72 44.3857 110.548C44.4281 110.49 44.4705 110.426 44.5129 110.368L44.873 111.094Z" fill="#2F2E41"/>
<path d="M47.0388 155.943C45.2169 159.183 41.5785 160.991 37.9718 161.877C33.9207 162.939 29.6548 162.856 25.6477 161.638C25.1393 161.474 24.6309 161.283 24.1383 161.071C24.3751 160.441 24.5628 159.794 24.6997 159.135C24.8841 158.244 24.9764 157.336 24.9751 156.426C24.5738 157.21 24.054 157.927 23.4339 158.552C22.9557 159.055 22.4124 159.492 21.8186 159.851C19.9769 158.732 18.3821 157.249 17.1316 155.492C17.211 155.296 17.2905 155.1 17.3646 154.904C17.7492 153.879 18.0537 152.826 18.2755 151.754C18.5765 150.305 18.7273 148.828 18.7257 147.348C18.0727 148.623 17.2258 149.789 16.2153 150.805C15.9124 151.129 15.5905 151.436 15.2515 151.722C14.7264 150.126 14.5234 148.44 14.6543 146.765C14.7852 145.089 15.2474 143.456 16.0141 141.96C18.1114 138.079 22.1788 135.772 25.8013 133.264C29.4292 130.756 33.057 127.362 33.3642 122.956C33.5707 119.981 32.1938 117.001 32.7445 114.074C32.9762 112.84 33.5417 111.693 34.3795 110.758C35.2173 109.823 36.2952 109.137 37.4959 108.773C38.6965 108.409 39.9738 108.383 41.1886 108.695C42.4034 109.008 43.5092 109.649 44.3854 110.548C42.3305 113.464 40.2862 116.481 39.4547 119.949C38.6074 123.481 39.3012 127.622 42.0816 129.96C43.0349 130.766 44.2054 131.339 44.9415 132.347C45.9213 133.683 45.9266 135.465 46.0855 137.108C46.4032 140.306 47.4466 143.381 48.008 146.547C48.5747 149.707 48.6064 153.138 47.0388 155.943Z" fill="#2F2E41"/>
<path d="M9.69189 287.438L14.5256 291.177L31.2308 274.29L24.0967 268.771L9.69189 287.438Z" fill="#A0616A"/>
<path d="M9.89735 283.785L17.8905 289.239L15.3609 292.517L18.7486 303.16C18.916 303.685 18.9112 304.251 18.7349 304.773C18.5585 305.296 18.22 305.749 17.7686 306.065C17.3171 306.381 16.7765 306.545 16.2256 306.532C15.6748 306.519 15.1425 306.33 14.7064 305.993L5.60989 298.955L6.54403 294.5L3.42976 297.269L0 294.615L9.89735 283.785Z" fill="#2F2E41"/>
<path d="M34.2144 120.515C34.2137 122.406 34.6766 124.268 35.5624 125.937C36.4483 127.607 37.7301 129.034 39.2952 130.092C40.8603 131.15 42.6609 131.808 44.539 132.006C46.417 132.205 48.3151 131.939 50.0666 131.232C51.8181 130.525 53.3694 129.398 54.5844 127.951C55.7994 126.503 56.6409 124.779 57.035 122.93C57.4292 121.081 57.3639 119.163 56.8449 117.345C56.326 115.527 55.3692 113.864 54.0586 112.503L54.0032 112.447C53.9109 112.35 53.8186 112.253 53.7217 112.161L53.7199 112.16L53.7184 112.159L53.7174 112.158L53.7171 112.156C53.5971 112.045 53.4771 111.934 53.3525 111.828C51.322 110.045 48.468 108.109 45.556 108.109C39.1827 108.109 34.2144 114.134 34.2144 120.515Z" fill="#2F2E41"/>
<path d="M99.976 114.583C100.031 115.199 99.9508 115.82 99.7405 116.401C99.5302 116.983 99.1951 117.511 98.7588 117.949C98.3225 118.387 97.7955 118.724 97.2151 118.936C96.6347 119.148 96.015 119.23 95.3995 119.176L66.83 145.003L61.9136 137.228L91.5423 114.286C91.7011 113.257 92.2314 112.322 93.0328 111.658C93.8343 110.994 94.8511 110.647 95.8906 110.684C96.9302 110.721 97.9202 111.138 98.6732 111.856C99.4261 112.575 99.8897 113.545 99.976 114.583Z" fill="#A0616A"/>
<path d="M54.6195 152.798C54.6195 152.798 55.6825 154.764 59.3135 151.729C62.2205 149.299 76.1473 138.75 79.1476 134.427C79.8327 134.699 80.5886 134.735 81.2963 134.529C82.004 134.323 82.6232 133.888 83.0563 133.291L74.8357 126.083C72.3761 126.366 72.4288 128.02 72.685 128.96L66.484 131.772L50.4712 142.018L53.826 151.391L54.6195 152.798Z" fill="#F9A826"/>
<path d="M39.1073 170.908L38.5084 173.763L38 184.294L60.3855 185.526L59.6903 169.328L57.5205 165.759L39.1073 170.908Z" fill="#A0616A"/>
<path d="M48.5945 132.874C53.9376 132.874 58.2691 128.537 58.2691 123.188C58.2691 117.838 53.9376 113.501 48.5945 113.501C43.2514 113.501 38.9199 117.838 38.9199 123.188C38.9199 128.537 43.2514 132.874 48.5945 132.874Z" fill="#A0616A"/>
<path d="M31.4184 158.915L31.3589 150.863C31.3575 147.966 32.3367 145.154 34.1368 142.886C35.9368 140.618 38.4514 139.027 41.2704 138.373L41.3069 138.365L43.22 135.784L50.9923 136.563L52.4168 139.478L58.0487 142.835L60.2171 149.814C61.1576 150.442 61.9592 151.256 62.572 152.207C63.1848 153.158 63.5957 154.225 63.7793 155.342C64.5154 160.05 61.223 164.761 60.8314 165.301L59.8223 170.991L37.8707 174.869L37.6925 174.891L31.4184 158.915Z" fill="#F9A826"/>
<path d="M60.4331 121.46C59.3046 122.176 58.1338 122.822 56.927 123.396C55.7022 123.985 54.4211 124.449 53.1032 124.78C52.7262 123.952 52.2647 123.164 51.7262 122.431C51.8648 123.3 51.8684 124.185 51.7368 125.056C49.5524 125.408 47.3151 125.225 45.2173 124.52L43.3954 121.461L43.2577 124.875C41.7483 125.151 40.2442 125.411 38.7348 125.681C38.6448 125.692 38.5548 125.713 38.47 125.729C37.5326 121.498 38.8619 116.837 41.8172 114.016C43.2845 112.63 45.1148 111.69 47.095 111.305C49.0753 110.92 51.124 111.106 53.0026 111.842C53.2409 111.937 53.4845 112.043 53.7176 112.155L53.7179 112.157L53.7191 112.158L53.7208 112.16L53.7229 112.16C53.8606 112.229 53.9771 112.393 54.1307 112.377C60.7402 111.64 60.9521 116.773 60.4331 121.46Z" fill="#2F2E41"/>
<path d="M44.3384 274.948L49.1795 278.677L65.8509 261.756L58.7059 256.253L44.3384 274.948Z" fill="#A0616A"/>
<path d="M44.9756 271.632L52.9797 277.07L50.4568 280.353L53.8659 290.989C54.0343 291.514 54.0307 292.08 53.8554 292.603C53.6801 293.126 53.3425 293.579 52.8917 293.897C52.4409 294.214 51.9006 294.379 51.3497 294.367C50.7988 294.355 50.2661 294.167 49.8294 293.83L40.7187 286.811L41.6439 282.355L38.5352 285.129L35.1001 282.483L44.9756 271.632Z" fill="#2F2E41"/>
<path d="M28.6293 254.296L28.6291 254.233L30.9235 250.275L28.5806 245.122L28.5103 231.883L28.8901 229.895C29.4009 227.222 29.2523 224.465 28.4571 221.863L28.4143 213.804C28.332 211.785 31.4556 210.01 30.7272 208.327C23.8422 192.419 37.7578 180.284 37.8518 180.186L38.1362 179.89L39.6791 181.06L41.1476 181.062L60.9649 184.678L61.108 184.945C61.8874 186.409 63.3917 191.454 63.481 193.737C64.4686 194.882 75.7189 207.916 76.7189 208.822C83.4771 214.944 87.3464 225.077 89.0513 230.572C89.4747 231.931 89.5601 233.372 89.2999 234.77C89.0398 236.169 88.442 237.483 87.5587 238.597L61.9743 266.655L55.0893 260.292L68.9328 235.035L67.9345 232.473C66.1434 232.142 64.5224 231.199 63.3482 229.805L60.545 226.473C59.7689 225.554 59.2757 224.428 59.1251 223.234L57.4251 223.029L51.3358 216.628L47.1111 254.933L45.9626 257.959L25.9606 281.502L17.4868 276.199L28.6293 254.296Z" fill="#2F2E41"/>
<path d="M25.5747 89.8197C25.1904 90.3041 24.9169 90.8669 24.7734 91.4685C24.6298 92.0702 24.6198 92.6961 24.744 93.302C24.8682 93.908 25.1236 94.4793 25.4922 94.9757C25.8607 95.4722 26.3336 95.8817 26.8773 96.1754L20.5171 115.028L25.7106 135.006L34.085 131.215L28.9173 116.146L32.7836 94.212C33.2159 93.2647 33.286 92.1916 32.9808 91.1959C32.6757 90.2003 32.0163 89.3514 31.1277 88.81C30.2391 88.2686 29.183 88.0723 28.1596 88.2584C27.1361 88.4445 26.2164 89 25.5747 89.8197Z" fill="#A0616A"/>
<path d="M33.2403 151.467C33.2403 151.467 31.2734 152.524 29.9054 147.991C28.8103 144.361 21.3574 124.655 21.2231 119.393C20.5016 119.243 19.8504 118.857 19.372 118.296C18.8937 117.735 18.6154 117.03 18.5811 116.293L29.4055 114.793C31.3049 116.384 30.3529 117.737 29.6234 118.38L33.3101 124.633L41.0159 141.512L34.6756 150.728L33.2403 151.467Z" fill="#F9A826"/>
<path d="M38.7324 125.681C39.844 122.324 41.8372 119.329 44.503 117.01C47.1688 114.691 50.4088 113.132 53.8833 112.498C53.8971 112.494 53.9433 112.475 54.0033 112.447C54.0402 112.424 54.0864 112.401 54.1325 112.378C53.9941 112.3 53.8602 112.23 53.7218 112.161L53.72 112.161L53.7185 112.16L53.7175 112.158L53.7172 112.156C53.5972 112.045 53.4772 111.934 53.3526 111.828L53.0018 111.842C53.0018 111.842 40.6753 109.888 38.7324 125.681Z" fill="#FD6584"/>
<path d="M197.789 233.62C199.134 231.595 198.338 228.697 196.011 227.147C193.683 225.596 190.706 225.981 189.36 228.005C188.015 230.03 188.811 232.928 191.139 234.478C193.466 236.029 196.444 235.644 197.789 233.62Z" fill="#F2F2F2"/>
<path d="M170.48 158.056C171.825 156.031 171.029 153.133 168.701 151.583C166.374 150.032 163.396 150.417 162.051 152.441C160.706 154.466 161.502 157.364 163.83 158.914C166.157 160.465 169.135 160.08 170.48 158.056Z" fill="#F2F2F2"/>
<path d="M284.682 274.384C286.027 272.36 285.231 269.462 282.903 267.911C280.576 266.361 277.598 266.745 276.253 268.77C274.907 270.794 275.704 273.692 278.031 275.243C280.359 276.793 283.336 276.409 284.682 274.384Z" fill="#F2F2F2"/>
<path d="M53.7964 31.2877C55.1417 29.2631 54.3454 26.365 52.0179 24.8146C49.6903 23.2642 46.7128 23.6486 45.3675 25.6731C44.0222 27.6977 44.8185 30.5957 47.1461 32.1462C49.4736 33.6966 52.4511 33.3122 53.7964 31.2877Z" fill="#F2F2F2"/>
<path d="M161.543 7.42534C162.888 5.4008 162.092 2.50272 159.764 0.952305C157.436 -0.598114 154.459 -0.213766 153.114 1.81078C151.768 3.83532 152.565 6.73343 154.892 8.28385C157.22 9.83427 160.197 9.44989 161.543 7.42534Z" fill="#F2F2F2"/>
<path d="M110.549 207.627C111.895 205.602 111.098 202.704 108.771 201.154C106.443 199.604 103.466 199.988 102.12 202.012C100.775 204.037 101.571 206.935 103.899 208.486C106.227 210.036 109.204 209.652 110.549 207.627Z" fill="#E6E6E6"/>
<path d="M332.806 313H9.91713C9.76063 313 9.61069 312.937 9.50019 312.826C9.38969 312.715 9.32764 312.565 9.32764 312.408C9.32764 312.251 9.38969 312.101 9.50019 311.99C9.61069 311.879 9.76063 311.817 9.91713 311.816H332.806C332.963 311.816 333.113 311.879 333.224 311.99C333.335 312.101 333.397 312.251 333.397 312.408C333.397 312.565 333.335 312.716 333.224 312.827C333.113 312.938 332.963 313 332.806 313Z" fill="#CCCCCC"/>
<path d="M70.0148 116.409C67.2987 116.401 64.6808 115.391 62.6615 113.572C60.6422 111.754 59.3631 109.254 59.0689 106.55L52.7653 47.9354C52.4556 45.0252 53.3115 42.1107 55.1454 39.8316C56.9792 37.5524 59.6412 36.0946 62.5472 35.7781L249.715 15.6006C252.622 15.2904 255.533 16.1473 257.81 17.9833C260.086 19.8194 261.542 22.4846 261.859 25.3942L268.162 84.0089C268.472 86.9193 267.616 89.8338 265.782 92.1131C263.948 94.3923 261.286 95.8502 258.38 96.1668L71.2117 116.344C70.8142 116.387 70.4146 116.409 70.0148 116.409Z" fill="#E6E6E6"/>
<path d="M247.654 18.3218C247.302 18.3219 246.95 18.3409 246.601 18.3786L66.1809 37.8286C64.9193 37.9646 63.6969 38.348 62.5834 38.957C61.4698 39.566 60.487 40.3887 59.691 41.378C58.895 42.3673 58.3014 43.5038 57.9441 44.7228C57.5869 45.9418 57.4729 47.2193 57.6088 48.4824L60.7959 78.1187C61.3111 82.9097 62.7638 87.5523 65.071 91.7813C67.3783 96.0103 70.4948 99.7429 74.2429 102.766C77.9909 105.789 82.2969 108.043 86.9151 109.4C91.5333 110.757 96.3732 111.19 101.158 110.674L228.024 96.9972C232.794 96.483 237.417 95.0329 241.628 92.7299C245.839 90.4269 249.556 87.316 252.566 83.5748C255.576 79.8337 257.821 75.5355 259.172 70.9258C260.523 66.3161 260.954 61.4851 260.441 56.7086L257.242 26.9611C256.987 24.5916 255.867 22.3997 254.098 20.8055C252.329 19.2112 250.034 18.3269 247.654 18.3218Z" fill="white"/>
<path d="M209.66 49.1647L108.821 60.0356C108.533 60.0671 108.241 60.0413 107.962 59.9598C107.684 59.8784 107.424 59.7427 107.198 59.5607C106.973 59.3787 106.785 59.1538 106.645 58.899C106.506 58.6442 106.419 58.3645 106.388 58.0758C106.357 57.787 106.383 57.495 106.464 57.2164C106.546 56.9378 106.682 56.678 106.864 56.452C107.046 56.226 107.271 56.0381 107.526 55.8992C107.78 55.7602 108.06 55.6729 108.348 55.6422L209.187 44.7713C209.476 44.7398 209.768 44.7656 210.046 44.8471C210.324 44.9286 210.584 45.0642 210.81 45.2462C211.036 45.4282 211.224 45.6531 211.363 45.9079C211.502 46.1627 211.59 46.4424 211.621 46.7312C211.652 47.0199 211.626 47.3119 211.544 47.5905C211.462 47.8691 211.326 48.1289 211.144 48.3549C210.962 48.5809 210.737 48.7688 210.483 48.9077C210.228 49.0467 209.948 49.134 209.66 49.1647Z" fill="#F9A826"/>
<path d="M211.11 62.6483L110.271 73.5192C109.689 73.5819 109.106 73.4106 108.65 73.043C108.195 72.6754 107.903 72.1416 107.841 71.559C107.778 70.9764 107.949 70.3928 108.316 69.9364C108.684 69.4801 109.217 69.1885 109.799 69.1258L210.638 58.2549C211.22 58.1922 211.803 58.3634 212.258 58.731C212.714 59.0986 213.005 59.6325 213.068 60.2151C213.131 60.7977 212.96 61.3813 212.592 61.8376C212.225 62.294 211.692 62.5856 211.11 62.6483Z" fill="#F9A826"/>
<path d="M123.473 85.7355L111.721 87.0024C111.139 87.0651 110.556 86.8938 110.101 86.5262C109.645 86.1586 109.354 85.6248 109.291 85.0422C109.228 84.4596 109.399 83.8759 109.767 83.4196C110.134 82.9633 110.667 82.6717 111.249 82.609L123 81.3421C123.288 81.3106 123.58 81.3364 123.859 81.4179C124.137 81.4994 124.397 81.635 124.623 81.817C124.849 81.999 125.036 82.2239 125.176 82.4787C125.315 82.7335 125.402 83.0132 125.433 83.302C125.464 83.5907 125.438 83.8827 125.357 84.1613C125.275 84.4399 125.139 84.6997 124.957 84.9257C124.775 85.1517 124.55 85.3396 124.295 85.4785C124.041 85.6175 123.761 85.7048 123.473 85.7355Z" fill="#F9A826"/>
<path d="M66.0469 50.4089C68.2407 50.4089 70.0192 48.6283 70.0192 46.4319C70.0192 44.2354 68.2407 42.4548 66.0469 42.4548C63.8531 42.4548 62.0747 44.2354 62.0747 46.4319C62.0747 48.6283 63.8531 50.4089 66.0469 50.4089Z" fill="#3F3D56"/>
<path d="M243.804 30.5237C245.998 30.5237 247.776 28.7431 247.776 26.5466C247.776 24.3502 245.998 22.5696 243.804 22.5696C241.61 22.5696 239.832 24.3502 239.832 26.5466C239.832 28.7431 241.61 30.5237 243.804 30.5237Z" fill="#3F3D56"/>
<path d="M190.101 112.171C189.736 111.85 189.447 111.451 189.255 111.005C189.063 110.558 188.973 110.074 188.991 109.588C189.191 103.811 188.24 98.0526 186.196 92.6472C186.022 92.1928 185.952 91.7055 185.991 91.2206C186.029 90.7357 186.175 90.2654 186.417 89.844C186.65 89.4389 186.968 89.0898 187.35 88.821C187.731 88.5522 188.167 88.3703 188.626 88.288C193.243 85.4985 197.976 84.7154 202.697 85.9609C203.458 85.8487 204.234 86.0118 204.886 86.421C205.538 86.8302 206.023 87.4586 206.254 88.1935C208.165 94.4056 209.228 100.848 209.414 107.346C209.432 108.125 209.168 108.885 208.671 109.485C208.175 110.086 207.478 110.487 206.71 110.614L192.741 112.925C192.273 113.003 191.793 112.976 191.336 112.846C190.88 112.715 190.458 112.485 190.101 112.171Z" fill="#F9A826"/>
<path d="M191.342 95.34L203.099 93.3953C203.196 93.3795 203.289 93.3448 203.372 93.2932C203.455 93.2415 203.527 93.1739 203.585 93.0943C203.642 93.0146 203.683 92.9244 203.705 92.8289C203.727 92.7334 203.73 92.6345 203.714 92.5377C203.698 92.441 203.664 92.3483 203.612 92.2651C203.56 92.1818 203.492 92.1096 203.413 92.0526C203.333 91.9956 203.243 91.9548 203.147 91.9327C203.052 91.9107 202.953 91.9076 202.857 91.9238L191.099 93.8686C190.905 93.9012 190.731 94.0098 190.616 94.1705C190.502 94.3311 190.455 94.5308 190.488 94.7256C190.52 94.9204 190.628 95.0945 190.788 95.2097C190.948 95.3249 191.147 95.3718 191.342 95.34Z" fill="white"/>
<path d="M192.313 101.226L204.07 99.281C204.265 99.2487 204.439 99.1403 204.555 98.9796C204.67 98.8188 204.716 98.6188 204.684 98.4237C204.652 98.2286 204.543 98.0543 204.383 97.9391C204.222 97.8239 204.023 97.7773 203.828 97.8095L192.07 99.7543C191.974 99.7701 191.881 99.8048 191.798 99.8564C191.715 99.9081 191.642 99.9757 191.585 100.055C191.528 100.135 191.487 100.225 191.465 100.321C191.443 100.416 191.439 100.515 191.455 100.612C191.471 100.709 191.506 100.801 191.558 100.885C191.61 100.968 191.677 101.04 191.757 101.097C191.837 101.154 191.927 101.195 192.022 101.217C192.118 101.239 192.217 101.242 192.313 101.226Z" fill="white"/>
<path d="M193.284 107.111L205.041 105.167C205.236 105.134 205.41 105.026 205.525 104.865C205.641 104.705 205.687 104.505 205.655 104.309C205.623 104.114 205.514 103.94 205.354 103.825C205.193 103.71 204.994 103.663 204.799 103.695L193.041 105.64C192.945 105.656 192.852 105.691 192.769 105.743C192.686 105.794 192.614 105.862 192.557 105.941C192.5 106.021 192.46 106.111 192.437 106.207C192.415 106.302 192.412 106.401 192.428 106.497C192.444 106.594 192.479 106.686 192.53 106.77C192.582 106.853 192.65 106.925 192.729 106.982C192.809 107.039 192.898 107.08 192.994 107.102C193.089 107.124 193.188 107.127 193.284 107.111Z" fill="white"/>
</g>
<defs>
<clipPath id="clip0_222_1135">
<rect width="363" height="313" fill="white"/>
</clipPath>
</defs>
</svg>
