<svg width="450" height="525" viewBox="0 0 450 525" fill="none" xmlns="http://www.w3.org/2000/svg">
<g clip-path="url(#clip0_195_300)">
<path d="M14.5443 193.501H435.841C439.595 193.497 443.194 192.003 445.848 189.348C448.503 186.693 449.996 183.093 450 179.339V14.1624C449.996 10.4076 448.503 6.80787 445.848 4.15285C443.194 1.49782 439.595 0.00433555 435.841 0H14.5443C10.7905 0.00433555 7.19165 1.49782 4.53729 4.15285C1.8829 6.80787 0.389832 10.4076 0.385498 14.1624V179.339C0.389862 183.093 1.8829 186.693 4.53729 189.348C7.19165 192.003 10.7905 193.497 14.5443 193.501Z" fill="#F2F2F2"/>
<path d="M112.8 184.468H368.967C388.056 184.447 406.357 176.852 419.855 163.351C433.353 149.85 440.946 131.544 440.968 112.45V81.0586C440.946 61.9647 433.353 43.659 419.855 30.1576C406.357 16.6561 388.056 9.06145 368.967 9.03979H81.4165C62.3272 9.06145 44.0261 16.6561 30.528 30.1576C17.0299 43.659 9.43723 61.9647 9.41571 81.0586C9.44675 108.475 20.349 134.76 39.7306 154.146C59.1123 173.533 85.3905 184.437 112.8 184.468Z" fill="white"/>
<path d="M178.881 56.3244H348.21C349.178 56.3244 350.107 55.9396 350.792 55.2546C351.477 54.5696 351.862 53.6406 351.862 52.6719C351.862 51.7032 351.477 50.7742 350.792 50.0892C350.107 49.4042 349.178 49.0194 348.21 49.0194H178.881C177.912 49.0194 176.984 49.4042 176.299 50.0892C175.614 50.7742 175.229 51.7032 175.229 52.6719C175.229 53.6406 175.614 54.5696 176.299 55.2546C176.984 55.9396 177.912 56.3244 178.881 56.3244Z" fill="#E6E6E6"/>
<path d="M93.1635 95.294H348.21C349.178 95.294 350.107 94.9092 350.792 94.2242C351.477 93.5392 351.862 92.6102 351.862 91.6415C351.862 90.6728 351.477 89.7438 350.792 89.0588C350.107 88.3738 349.178 87.989 348.21 87.989H93.1635C92.195 87.989 91.2662 88.3738 90.5814 89.0588C89.8966 89.7438 89.5119 90.6728 89.5119 91.6415C89.5119 92.6102 89.8966 93.5392 90.5814 94.2242C91.2662 94.9092 92.195 95.294 93.1635 95.294Z" fill="#E6E6E6"/>
<path d="M93.1635 134.263H348.21C349.178 134.263 350.107 133.879 350.792 133.194C351.477 132.509 351.862 131.58 351.862 130.611C351.862 129.642 351.477 128.713 350.792 128.028C350.107 127.343 349.178 126.958 348.21 126.958H93.1635C92.195 126.958 91.2662 127.343 90.5814 128.028C89.8966 128.713 89.5119 129.642 89.5119 130.611C89.5119 131.58 89.8966 132.509 90.5814 133.194C91.2662 133.879 92.195 134.263 93.1635 134.263Z" fill="#E6E6E6"/>
<path d="M93.1635 134.263H348.21C349.178 134.263 350.107 133.879 350.792 133.194C351.477 132.509 351.862 131.58 351.862 130.611C351.862 129.642 351.477 128.713 350.792 128.028C350.107 127.343 349.178 126.958 348.21 126.958H93.1635C92.195 126.958 91.2662 127.343 90.5814 128.028C89.8966 128.713 89.5119 129.642 89.5119 130.611C89.5119 131.58 89.8966 132.509 90.5814 133.194C91.2662 133.879 92.195 134.263 93.1635 134.263Z" fill="#E6E6E6"/>
<path d="M196.749 99.7666C196.709 100.867 196.427 101.945 195.925 102.924C195.423 103.904 194.712 104.762 193.843 105.437C192.974 106.112 191.967 106.589 190.894 106.832C189.82 107.076 188.707 107.082 187.631 106.849L173.705 129.7L167.778 117.12L181.911 97.3488C182.422 95.5672 183.57 94.0352 185.135 93.043C186.7 92.0508 188.575 91.6674 190.404 91.9655C192.233 92.2635 193.889 93.2223 195.058 94.6601C196.228 96.0979 196.83 97.9148 196.749 99.7666Z" fill="#FFB6B6"/>
<path d="M92.2456 165.256L140.236 139.218L155.374 125.013C155.374 125.013 161.954 123.251 159.532 121.11C157.11 118.97 164.012 116.906 164.012 116.906L172.139 109.28L183.686 117.453L180.344 122.634C180.344 122.634 180.574 131.212 175.876 129.562C171.178 127.911 172.352 135.025 172.352 135.025L144.311 178.503L92.2456 165.256Z" fill="#3F3D56"/>
<path d="M233.909 140.725C208.021 140.725 187.034 119.733 187.034 93.8375C187.034 67.9426 208.021 46.9506 233.909 46.9506C259.798 46.9506 280.785 67.9426 280.785 93.8375C280.785 119.733 259.798 140.725 233.909 140.725Z" fill="#F9A826"/>
<path d="M92.0971 506.771H101.844L106.482 469.167H92.0971V506.771Z" fill="#FFB6B6"/>
<path d="M86.9527 523.662H93.9424L95.1901 517.061L98.3854 523.662H116.924C117.812 523.662 118.678 523.378 119.394 522.851C120.109 522.325 120.638 521.583 120.902 520.734C121.167 519.886 121.153 518.975 120.864 518.135C120.574 517.294 120.023 516.569 119.292 516.064L104.488 505.837V499.164L88.9161 500.093L86.9527 523.662Z" fill="#2F2E41"/>
<path d="M170.051 506.771H179.798L184.436 469.167H170.051V506.771Z" fill="#FFB6B6"/>
<path d="M164.906 523.662H171.896L173.144 517.061L176.339 523.662H194.877C195.766 523.662 196.631 523.378 197.347 522.851C198.063 522.325 198.592 521.583 198.856 520.734C199.121 519.886 199.107 518.975 198.817 518.135C198.527 517.294 197.977 516.569 197.245 516.064L182.441 505.837V499.164L166.87 500.093L164.906 523.662Z" fill="#2F2E41"/>
<path d="M102.439 222.38H151.633V278.399H102.439V222.38Z" fill="#FFB6B6"/>
<path d="M150.498 250.011L158.823 259.852L173.203 290.133L209.436 376.364L217.099 394.601L210.911 426.84C210.911 426.84 209.909 449.552 209.909 453.27C209.909 460.84 203.579 465.035 203.579 465.035L198.935 489.228L153.903 487.336C153.903 487.336 155.475 460.668 164.906 453.941C174.338 447.214 178.673 412.156 178.673 412.156L183.798 396.601L133.847 337.375L133.525 358.077L133.369 368.098C133.369 368.098 140.684 433.272 132.157 445.921C123.63 458.569 131.983 457.081 131.983 457.081L131.577 483.172L78.2202 483.551L89.9915 408.434C89.9915 408.434 95.9686 403.713 92.7707 398.968C89.5727 394.223 95.8702 388.411 95.8702 388.411L93.0457 329.769C93.0457 329.769 96.173 319.64 92.4944 318.323C88.8159 317.007 92.0115 308.296 92.0115 308.296L91.4648 296.946L102.439 261.745L150.498 250.011Z" fill="#2F2E41"/>
<path d="M101.682 222.38L96.3842 206.482L92.6 201.183L91.0863 186.043C91.0863 145.164 100.202 151.971 100.202 151.971L105.466 137.594L129.685 136.837L145.2 151.599L158.066 156.141L163.104 182.326L153.903 210.268L151.633 225.408C155.964 233.406 155.598 229.623 152.011 235.628L109.25 247.361C94.1137 252.661 94.1137 239.034 97.1489 235.628C100.184 232.221 101.682 222.38 101.682 222.38Z" fill="#3F3D56"/>
<path d="M120.704 131.755C108.305 131.755 98.2527 121.701 98.2527 109.298C98.2527 96.8955 108.305 86.8412 120.704 86.8412C133.104 86.8412 143.156 96.8955 143.156 109.298C143.156 121.701 133.104 131.755 120.704 131.755Z" fill="#FFB6B6"/>
<path d="M90.7307 139.274C90.5192 139.631 90.3909 140.032 90.3555 140.445C90.32 140.859 90.3783 141.275 90.5259 141.663C90.6736 142.05 90.9069 142.4 91.2083 142.685C91.5098 142.97 91.8717 143.184 92.267 143.309C95.2792 144.309 97.1334 147.223 99.298 149.555C101.455 151.879 104.929 153.809 107.684 152.227C110.431 150.652 110.62 146.633 112.921 144.452C115.161 142.333 118.885 142.59 121.519 144.203L121.597 144.251C122.052 144.548 122.583 144.704 123.126 144.702C123.669 144.699 124.199 144.538 124.651 144.237C125.103 143.937 125.457 143.51 125.669 143.01C125.881 142.511 125.942 141.96 125.845 141.426C124.922 136.517 123.999 131.608 123.078 126.7C125.5 132.537 129.017 137.856 133.439 142.371C134.657 143.777 136.2 144.863 137.934 145.535C139.508 146.035 141.037 144.407 142.566 144.702C138.767 141.379 125.991 120.076 128.277 105.837C130.964 106.14 133.651 106.443 136.337 106.745C136.628 105.474 137.25 104.301 138.139 103.346C138.03 104.584 138.187 105.831 138.6 107.003C139.72 107.132 140.848 107.253 141.968 107.381C143.527 107.555 145.223 107.707 146.562 106.889C148.795 105.527 148.863 102.302 148.227 99.7581C146.365 92.3621 140.719 86.1773 133.81 82.9373C126.9 79.7048 124.856 86.904 117.576 84.6027C103.196 80.0606 92.1762 87.8276 88.2937 102.241C85.0317 114.331 87.4006 127.162 90.7307 139.274Z" fill="#2F2E41"/>
<path d="M28.5746 524.151H56.0662L56.1843 523.936C56.5358 523.299 56.8752 522.623 57.1923 521.929C60.0241 515.865 61.221 508.929 62.2771 502.81L63.0723 498.198C63.1687 497.639 63.0961 497.065 62.864 496.548C62.6319 496.031 62.2508 495.594 61.7695 495.295C61.2882 494.996 60.7286 494.847 60.1622 494.868C59.5959 494.889 59.0487 495.078 58.5906 495.412C54.4126 498.453 50.2331 501.491 46.0518 504.526C44.4687 505.678 42.6606 507.012 40.929 508.453C40.7619 507.641 40.5872 506.827 40.4124 506.024C40.2919 505.47 40.0088 504.964 39.5994 504.572C39.1899 504.18 38.6727 503.918 38.1139 503.822C37.5552 503.725 36.9803 503.798 36.4629 504.03C35.9454 504.262 35.509 504.643 35.2095 505.124L31.993 510.294C29.647 514.068 27.5764 517.788 27.9983 521.8C27.9962 521.849 27.9999 521.898 28.0092 521.946C28.0936 522.605 28.2501 523.252 28.476 523.877L28.5746 524.151Z" fill="#F0F0F0"/>
<path d="M0.981262 524.745L262.222 525C262.482 524.999 262.732 524.894 262.916 524.709C263.1 524.524 263.203 524.274 263.203 524.013C263.203 523.753 263.1 523.502 262.916 523.318C262.732 523.133 262.482 523.028 262.222 523.027L0.981262 522.772C0.72052 522.774 0.470886 522.878 0.286987 523.063C0.103088 523.248 -0.000152588 523.498 -0.000152588 523.759C-0.000152588 524.02 0.103088 524.27 0.286987 524.455C0.470886 524.64 0.72052 524.744 0.981262 524.745Z" fill="#CACACA"/>
<path d="M238.17 156.944L266.906 132.671C267.888 131.84 268.5 130.652 268.608 129.37C268.716 128.087 268.311 126.814 267.482 125.83L262.193 119.566C261.362 118.583 260.175 117.971 258.893 117.863C257.611 117.754 256.338 118.159 255.354 118.989L226.618 143.262C225.636 144.093 225.024 145.28 224.916 146.563C224.808 147.846 225.213 149.119 226.042 150.103L231.331 156.367C232.162 157.35 233.349 157.962 234.631 158.07C235.913 158.178 237.186 157.773 238.17 156.944Z" fill="#3F3D56"/>
<path d="M265.398 126.335C265.845 126.865 266.063 127.551 266.005 128.242C265.946 128.934 265.616 129.573 265.087 130.022L236.352 154.294C235.822 154.741 235.136 154.959 234.445 154.901C233.754 154.843 233.114 154.513 232.666 153.983L227.377 147.719C226.93 147.189 226.712 146.503 226.77 145.812C226.829 145.121 227.159 144.481 227.688 144.033L256.423 119.76C256.954 119.313 257.639 119.095 258.33 119.153C259.021 119.211 259.661 119.541 260.109 120.071L265.398 126.335Z" fill="white"/>
<path d="M248.528 135.771C248.628 135.91 248.759 136.025 248.91 136.105C249.062 136.185 249.23 136.229 249.402 136.233L253.917 136.337C254.062 136.34 254.206 136.315 254.341 136.262C254.477 136.21 254.6 136.131 254.705 136.031C254.81 135.931 254.894 135.811 254.953 135.678C255.011 135.545 255.043 135.402 255.047 135.257C255.05 135.112 255.025 134.968 254.972 134.832C254.92 134.697 254.841 134.573 254.741 134.469C254.641 134.364 254.521 134.279 254.388 134.221C254.255 134.162 254.112 134.13 253.967 134.127L251.014 134.059L253.923 126.382C254.026 126.108 254.016 125.804 253.895 125.538C253.775 125.271 253.554 125.063 253.28 124.959C253.006 124.856 252.703 124.865 252.436 124.984C252.169 125.104 251.961 125.325 251.856 125.599L248.394 134.736C248.331 134.902 248.309 135.08 248.33 135.255C248.35 135.431 248.412 135.599 248.511 135.746L248.528 135.771Z" fill="#F9A826"/>
<path d="M247.949 137.7C246.86 137.86 245.819 138.257 244.9 138.863C243.981 139.468 243.206 140.268 242.63 141.206C242.053 142.144 241.689 143.197 241.564 144.291C241.438 145.384 241.553 146.493 241.902 147.537L220.707 163.868L233.853 168.393L251.965 152.191C253.68 151.489 255.078 150.182 255.894 148.517C256.71 146.853 256.887 144.947 256.392 143.161C255.897 141.375 254.764 139.833 253.208 138.826C251.652 137.819 249.781 137.419 247.949 137.7Z" fill="#FFB6B6"/>
<path d="M137.6 145.775L191.868 179.149C191.868 179.149 213.748 171.051 209.472 167.303C205.196 163.554 218.808 161.02 218.808 161.02L233.846 150.9L242.573 161.044C242.573 161.044 240.983 177.521 238.277 174.668C235.572 171.815 231.528 179.609 231.528 179.609C231.528 179.609 230.333 188.311 222.632 186.121C214.931 183.931 194.266 206.886 194.266 206.886L127.479 181.971L137.6 145.775Z" fill="#3F3D56"/>
<path d="M235.557 112.646C236.187 112.646 236.807 112.499 237.37 112.218C237.932 111.936 238.422 111.528 238.799 111.024L248.738 97.7685C249.057 97.3427 249.29 96.8581 249.422 96.3425C249.554 95.8268 249.583 95.2902 249.508 94.7633C249.433 94.2363 249.254 93.7294 248.983 93.2713C248.712 92.8133 248.353 92.4132 247.928 92.0938C247.068 91.4488 245.987 91.1719 244.923 91.324C244.396 91.3993 243.889 91.5776 243.431 91.8488C242.974 92.1201 242.574 92.4788 242.254 92.9047L235.752 101.576L219.051 76.5193C218.455 75.6248 217.528 75.0038 216.474 74.793C215.42 74.5821 214.326 74.7987 213.431 75.395C212.537 75.9914 211.916 76.9186 211.705 77.9728C211.495 79.027 211.711 80.1218 212.307 81.0163L232.185 110.841C232.545 111.38 233.028 111.825 233.596 112.139C234.163 112.453 234.797 112.626 235.445 112.644C235.482 112.645 235.52 112.646 235.557 112.646Z" fill="white"/>
<path d="M8.61603 79.2081C11.1654 79.2081 13.2321 77.1468 13.2321 74.604C13.2321 72.0613 11.1654 70 8.61603 70C6.06667 70 4 72.0613 4 74.604C4 77.1468 6.06667 79.2081 8.61603 79.2081Z" fill="#ECECEC"/>
</g>
<defs>
<clipPath id="clip0_195_300">
<rect width="450" height="525" fill="white" transform="matrix(-1 0 0 1 450 0)"/>
</clipPath>
</defs>
</svg>
