<svg width="456" height="338" viewBox="0 0 456 338" fill="none" xmlns="http://www.w3.org/2000/svg">
<g clip-path="url(#clip0_195_351)">
<path d="M228 313.048C353.921 313.048 456 310.2 456 306.687C456 303.174 353.921 300.326 228 300.326C102.079 300.326 0 303.174 0 306.687C0 310.2 102.079 313.048 228 313.048Z" fill="#E6E6E6"/>
<path d="M349.508 237.761C349.22 237.765 348.932 237.769 348.64 237.769C348.348 237.769 348.061 237.765 347.773 237.761C332.51 237.415 321.448 227.903 324.264 217.924L331.13 193.58L332.865 187.42L363.627 187.943L365.496 193.969L372.855 217.688C375.97 227.722 364.908 237.415 349.508 237.761Z" fill="#3F3D56"/>
<path opacity="0.2" d="M365.496 193.969C360.251 196.959 354.301 198.5 348.26 198.431C342.219 198.363 336.305 196.688 331.13 193.58L332.865 187.42L363.626 187.943L365.496 193.969Z" fill="black"/>
<path d="M364.198 218.732C365.526 213.792 369.894 206.667 382.142 198.075C403.503 183.089 390.76 171.853 390.208 171.382C389.05 170.395 389.221 169.286 390.606 168.907C391.41 168.747 392.24 168.76 393.039 168.945C393.838 169.131 394.588 169.484 395.239 169.983C395.931 170.553 411.887 184.144 387.783 201.052C366.091 216.271 370.703 226.205 370.756 226.3C371.337 227.363 370.405 228.213 368.672 228.201C366.939 228.19 365.062 227.32 364.478 226.259C364.356 226.034 362.96 223.33 364.198 218.732Z" fill="#3F3D56"/>
<path d="M334.443 241.309C333.977 241.309 333.515 241.217 333.084 241.039C332.654 240.862 332.262 240.601 331.933 240.272C331.603 239.943 331.342 239.553 331.163 239.124C330.985 238.694 330.893 238.234 330.893 237.769V222.428C330.893 221.489 331.267 220.589 331.933 219.925C332.599 219.261 333.501 218.888 334.443 218.888C335.384 218.888 336.287 219.261 336.952 219.925C337.618 220.589 337.992 221.489 337.992 222.428V237.769C337.992 238.234 337.9 238.694 337.722 239.124C337.544 239.553 337.282 239.943 336.953 240.272C336.623 240.601 336.232 240.862 335.801 241.039C335.37 241.217 334.909 241.309 334.443 241.309Z" fill="#3F3D56"/>
<path d="M337.555 204.889C337.36 205.312 337.084 205.692 336.742 206.007C336.4 206.323 335.999 206.569 335.561 206.73C335.124 206.891 334.66 206.965 334.194 206.947C333.728 206.929 333.27 206.82 332.847 206.626L318.874 200.214C318.02 199.821 317.357 199.105 317.031 198.225C316.706 197.345 316.743 196.372 317.137 195.519C317.53 194.667 318.246 194.005 319.128 193.679C320.011 193.354 320.986 193.39 321.841 193.781L335.814 200.193C336.237 200.388 336.618 200.663 336.935 201.004C337.252 201.346 337.498 201.746 337.66 202.182C337.821 202.618 337.895 203.081 337.877 203.546C337.859 204.01 337.75 204.467 337.555 204.889Z" fill="#3F3D56"/>
<path d="M359.726 204.889C359.921 205.312 360.197 205.692 360.539 206.007C360.881 206.323 361.282 206.569 361.719 206.73C362.156 206.891 362.621 206.965 363.087 206.947C363.553 206.929 364.01 206.82 364.434 206.626L378.407 200.214C379.262 199.821 379.926 199.106 380.252 198.226C380.579 197.345 380.541 196.371 380.147 195.518C379.754 194.665 379.037 194.003 378.154 193.677C377.271 193.352 376.295 193.389 375.439 193.782L361.467 200.194C361.043 200.388 360.662 200.663 360.346 201.005C360.029 201.346 359.783 201.746 359.621 202.182C359.46 202.618 359.386 203.081 359.404 203.546C359.421 204.01 359.531 204.467 359.726 204.889Z" fill="#3F3D56"/>
<path d="M362.838 241.309C363.304 241.309 363.765 241.217 364.196 241.039C364.627 240.862 365.018 240.601 365.348 240.272C365.677 239.943 365.939 239.553 366.117 239.124C366.295 238.694 366.387 238.234 366.387 237.769V222.428C366.387 221.489 366.013 220.589 365.347 219.925C364.682 219.261 363.779 218.888 362.838 218.888C361.896 218.888 360.994 219.261 360.328 219.925C359.662 220.589 359.288 221.489 359.288 222.428V237.769C359.288 238.234 359.38 238.694 359.558 239.124C359.737 239.553 359.998 239.943 360.328 240.272C360.658 240.601 361.049 240.862 361.479 241.039C361.91 241.217 362.372 241.309 362.838 241.309Z" fill="#3F3D56"/>
<path d="M377.671 141.994C377.978 141.608 378.199 141.162 378.321 140.685C378.442 140.209 378.461 139.711 378.375 139.227L376.444 127.892L374.512 116.558C374.408 115.946 374.144 115.372 373.747 114.894C373.349 114.416 372.833 114.05 372.25 113.835C371.666 113.619 371.036 113.56 370.422 113.664C369.809 113.768 369.233 114.031 368.754 114.427L359.878 121.763L354.531 126.183C350.965 125.55 347.32 125.495 343.736 126.02L338.585 121.763L329.709 114.427C329.23 114.031 328.655 113.768 328.041 113.664C327.428 113.56 326.798 113.619 326.214 113.835C325.63 114.05 325.114 114.416 324.717 114.894C324.32 115.372 324.056 115.946 323.952 116.558L322.02 127.892L320.088 139.227C319.985 139.823 320.038 140.435 320.243 141.004C316.932 146.066 315.042 151.92 314.769 157.957C314.495 163.995 315.849 169.995 318.689 175.334C321.528 180.673 325.751 185.156 330.916 188.315C336.081 191.475 342.001 193.197 348.06 193.301C354.118 193.406 360.094 191.889 365.366 188.909C370.637 185.929 375.012 181.595 378.035 176.357C381.058 171.119 382.619 165.169 382.555 159.126C382.491 153.082 380.804 147.166 377.671 141.994Z" fill="#3F3D56"/>
<path d="M328.82 119.072C328.609 119.072 328.401 119.11 328.204 119.184C327.914 119.289 327.657 119.469 327.46 119.706C327.263 119.943 327.133 120.228 327.083 120.532L324.741 134.277C324.689 134.58 324.718 134.891 324.825 135.179C324.933 135.468 325.114 135.723 325.351 135.919C325.589 136.115 325.873 136.245 326.177 136.297C326.481 136.348 326.793 136.319 327.082 136.212L340.188 131.363C340.477 131.256 340.732 131.075 340.929 130.838C341.126 130.602 341.256 130.318 341.308 130.015C341.359 129.712 341.33 129.401 341.223 129.113C341.116 128.824 340.935 128.569 340.697 128.373L329.934 119.477C329.622 119.216 329.227 119.073 328.82 119.072Z" fill="#E6E6E6"/>
<path d="M369.644 119.072C369.236 119.073 368.842 119.216 368.53 119.477L357.766 128.373C357.529 128.569 357.348 128.824 357.24 129.113C357.133 129.401 357.104 129.712 357.156 130.015C357.207 130.318 357.338 130.602 357.535 130.838C357.731 131.075 357.987 131.256 358.276 131.363L371.382 136.212C371.671 136.319 371.983 136.348 372.286 136.297C372.59 136.245 372.875 136.115 373.112 135.919C373.35 135.723 373.531 135.468 373.638 135.179C373.745 134.891 373.774 134.58 373.723 134.277L371.38 120.532C371.33 120.228 371.2 119.943 371.003 119.706C370.806 119.469 370.55 119.289 370.26 119.184C370.063 119.11 369.854 119.072 369.644 119.072Z" fill="#E6E6E6"/>
<path d="M348.64 168.932C351.254 168.932 353.373 166.819 353.373 164.212C353.373 161.605 351.254 159.492 348.64 159.492C346.027 159.492 343.908 161.605 343.908 164.212C343.908 166.819 346.027 168.932 348.64 168.932Z" fill="#E6E6E6"/>
<path d="M348.64 163.032C350.383 163.032 351.795 162.504 351.795 161.852C351.795 161.2 350.383 160.672 348.64 160.672C346.898 160.672 345.485 161.2 345.485 161.852C345.485 162.504 346.898 163.032 348.64 163.032Z" fill="#3F3D56"/>
<path d="M346.274 166.966H350.612V172.276C350.612 172.56 350.556 172.841 350.447 173.104C350.338 173.366 350.178 173.605 349.977 173.806C349.775 174.006 349.536 174.166 349.273 174.275C349.01 174.383 348.728 174.439 348.443 174.439C347.868 174.439 347.316 174.211 346.909 173.806C346.502 173.4 346.274 172.85 346.274 172.276L346.274 166.966Z" fill="#FF6584"/>
<path d="M348.904 113.425C348.676 113.896 348.455 114.371 348.247 114.857C345.8 120.55 344.975 126.806 345.862 132.937C346.306 132.295 346.773 131.625 347.247 130.948C346.231 125.064 346.803 119.016 348.904 113.425Z" fill="#3F3D56"/>
<path d="M352.453 117.752C352.225 118.223 352.005 118.698 351.797 119.184C349.349 124.877 348.524 131.133 349.411 137.264C349.855 136.622 350.322 135.952 350.797 135.275C349.78 129.391 350.352 123.343 352.453 117.752Z" fill="#3F3D56"/>
<path d="M363.396 202.697L362.896 196.355L362.396 190.012C362.369 189.67 362.252 189.341 362.057 189.058C361.862 188.775 361.596 188.548 361.285 188.4C360.974 188.252 360.63 188.188 360.286 188.215C359.943 188.242 359.613 188.359 359.329 188.553L354.072 192.156L350.233 194.787C349.988 194.501 349.683 194.271 349.34 194.113C348.997 193.955 348.624 193.874 348.246 193.874C347.868 193.874 347.495 193.955 347.152 194.113C346.809 194.271 346.504 194.501 346.259 194.787L342.42 192.156L337.163 188.553C336.879 188.359 336.549 188.242 336.206 188.215C335.862 188.188 335.518 188.252 335.207 188.4C334.896 188.548 334.63 188.774 334.435 189.058C334.24 189.341 334.123 189.67 334.096 190.012L333.596 196.355L333.096 202.697C333.069 203.04 333.133 203.383 333.281 203.693C333.429 204.003 333.657 204.269 333.941 204.463C334.225 204.658 334.555 204.774 334.898 204.801C335.241 204.828 335.586 204.765 335.897 204.617L341.654 201.877L346.384 199.627C346.627 199.873 346.917 200.068 347.237 200.201C347.556 200.335 347.899 200.403 348.246 200.403C348.592 200.403 348.935 200.335 349.255 200.201C349.575 200.068 349.865 199.873 350.108 199.627L354.838 201.877L360.595 204.617C360.906 204.765 361.251 204.828 361.594 204.801C361.937 204.774 362.267 204.658 362.551 204.463C362.835 204.269 363.063 204.003 363.211 203.693C363.359 203.383 363.423 203.04 363.396 202.697Z" fill="#F9A826"/>
<path d="M342.33 160.279C342.984 160.279 343.513 159.75 343.513 159.099C343.513 158.447 342.984 157.918 342.33 157.918C341.677 157.918 341.147 158.447 341.147 159.099C341.147 159.75 341.677 160.279 342.33 160.279Z" fill="#E6E6E6"/>
<path d="M354.95 160.279C355.604 160.279 356.133 159.75 356.133 159.099C356.133 158.447 355.604 157.918 354.95 157.918C354.297 157.918 353.767 158.447 353.767 159.099C353.767 159.75 354.297 160.279 354.95 160.279Z" fill="#E6E6E6"/>
<path d="M119.722 227.335C120.01 227.339 120.298 227.343 120.59 227.343C120.882 227.343 121.169 227.339 121.457 227.335C136.72 226.989 147.782 217.478 144.966 207.499L138.1 183.154L136.365 176.994L105.603 177.518L103.734 183.544L96.375 207.263C93.2594 217.297 104.322 226.989 119.722 227.335Z" fill="#3F3D56"/>
<path opacity="0.2" d="M103.734 183.544C108.979 186.534 114.929 188.074 120.97 188.006C127.011 187.938 132.925 186.263 138.1 183.154L136.365 176.994L105.603 177.518L103.734 183.544Z" fill="black"/>
<path d="M101.296 205.421C97.9759 201.524 90.9715 196.947 76.2155 194.409C50.4799 189.981 57.1765 174.387 57.4735 173.726C58.0968 172.339 57.4665 171.41 56.0522 171.659C55.2561 171.857 54.5118 172.223 53.8691 172.732C53.2264 173.24 52.7002 173.88 52.3257 174.608C51.9454 175.419 43.3542 194.513 72.3936 199.507C98.5292 204.004 98.6225 214.952 98.6155 215.06C98.5459 216.269 99.7531 216.639 101.315 215.889C102.876 215.139 104.2 213.552 104.271 212.344C104.286 212.088 104.388 209.049 101.296 205.421Z" fill="#3F3D56"/>
<path d="M134.787 230.884C135.253 230.884 135.715 230.792 136.145 230.614C136.576 230.436 136.967 230.175 137.297 229.847C137.627 229.518 137.888 229.128 138.066 228.698C138.245 228.269 138.337 227.808 138.337 227.343V212.003C138.335 211.065 137.961 210.165 137.295 209.502C136.63 208.839 135.728 208.467 134.787 208.467C133.847 208.467 132.944 208.839 132.279 209.502C131.613 210.165 131.239 211.065 131.238 212.003V227.343C131.238 227.808 131.33 228.269 131.508 228.698C131.686 229.128 131.948 229.518 132.277 229.847C132.607 230.175 132.998 230.436 133.429 230.614C133.86 230.792 134.321 230.884 134.787 230.884Z" fill="#3F3D56"/>
<path d="M131.675 194.464C131.87 194.886 132.146 195.266 132.488 195.582C132.83 195.898 133.232 196.143 133.669 196.305C134.106 196.466 134.571 196.54 135.036 196.522C135.502 196.504 135.96 196.395 136.383 196.2L150.356 189.788C150.78 189.594 151.161 189.319 151.479 188.978C151.796 188.637 152.042 188.237 152.204 187.8C152.366 187.364 152.441 186.9 152.423 186.435C152.405 185.97 152.295 185.514 152.1 185.091C151.905 184.668 151.629 184.288 151.286 183.972C150.944 183.656 150.543 183.411 150.105 183.25C149.668 183.088 149.202 183.015 148.736 183.033C148.27 183.052 147.812 183.161 147.389 183.356L133.416 189.768C132.993 189.962 132.612 190.238 132.295 190.579C131.979 190.92 131.732 191.32 131.571 191.756C131.409 192.192 131.335 192.656 131.353 193.121C131.371 193.585 131.48 194.042 131.675 194.464Z" fill="#3F3D56"/>
<path d="M109.504 194.464C109.309 194.886 109.033 195.266 108.691 195.582C108.349 195.898 107.948 196.143 107.511 196.305C107.074 196.466 106.609 196.54 106.143 196.522C105.677 196.504 105.22 196.395 104.796 196.2L90.8234 189.788C90.3995 189.594 90.018 189.319 89.7009 188.978C89.3837 188.637 89.1371 188.237 88.9751 187.8C88.8131 187.364 88.7389 186.9 88.7567 186.435C88.7746 185.97 88.8841 185.514 89.0791 185.091C89.274 184.668 89.5506 184.288 89.8929 183.972C90.2353 183.656 90.6367 183.411 91.0743 183.25C91.5118 183.088 91.9769 183.015 92.443 183.033C92.9091 183.052 93.367 183.161 93.7905 183.356L107.763 189.768C108.187 189.962 108.568 190.238 108.884 190.579C109.201 190.92 109.447 191.32 109.609 191.756C109.77 192.192 109.844 192.656 109.826 193.121C109.808 193.585 109.699 194.042 109.504 194.464Z" fill="#3F3D56"/>
<path d="M106.392 230.884C105.926 230.884 105.464 230.792 105.034 230.614C104.603 230.436 104.212 230.175 103.882 229.847C103.553 229.518 103.291 229.128 103.113 228.698C102.935 228.269 102.843 227.808 102.843 227.343V212.003C102.844 211.065 103.218 210.165 103.884 209.502C104.549 208.839 105.452 208.467 106.392 208.467C107.333 208.467 108.235 208.839 108.9 209.502C109.566 210.165 109.94 211.065 109.942 212.003V227.343C109.942 227.808 109.85 228.269 109.671 228.698C109.493 229.128 109.232 229.518 108.902 229.847C108.572 230.175 108.181 230.436 107.75 230.614C107.32 230.792 106.858 230.884 106.392 230.884Z" fill="#3F3D56"/>
<path d="M148.987 130.579C149.192 130.009 149.245 129.397 149.142 128.802L147.21 117.467L145.278 106.132C145.174 105.52 144.91 104.946 144.513 104.468C144.116 103.99 143.599 103.625 143.016 103.409C142.432 103.193 141.802 103.134 141.189 103.239C140.575 103.343 140 103.606 139.52 104.002L130.645 111.338L125.494 115.595C121.91 115.07 118.265 115.125 114.699 115.757L109.352 111.338L100.476 104.002C99.9965 103.606 99.4212 103.343 98.8076 103.238C98.194 103.134 97.5638 103.193 96.9803 103.409C96.3967 103.625 95.8805 103.99 95.4833 104.468C95.0862 104.946 94.8222 105.52 94.7179 106.132L92.7862 117.467L90.8544 128.802C90.7692 129.286 90.7879 129.783 90.9093 130.26C91.0307 130.737 91.2521 131.183 91.5589 131.568C88.4216 136.742 86.732 142.661 86.6658 148.707C86.5997 154.753 88.1594 160.707 91.1827 165.948C94.206 171.189 98.5824 175.527 103.856 178.509C109.13 181.491 115.109 183.009 121.171 182.904C127.233 182.8 133.155 181.077 138.323 177.915C143.49 174.753 147.714 170.267 150.554 164.925C153.394 159.583 154.746 153.579 154.471 147.539C154.195 141.498 152.302 135.642 148.987 130.579Z" fill="#3F3D56"/>
<path d="M139.296 109.052L128.533 117.948C128.295 118.144 128.114 118.399 128.007 118.687C127.9 118.975 127.87 119.286 127.922 119.589C127.974 119.892 128.104 120.176 128.301 120.413C128.498 120.65 128.753 120.831 129.042 120.937L142.148 125.787C142.437 125.894 142.749 125.923 143.053 125.871C143.357 125.82 143.641 125.689 143.879 125.493C144.116 125.297 144.297 125.042 144.404 124.754C144.512 124.466 144.541 124.155 144.489 123.852L142.147 110.106C142.097 109.803 141.967 109.518 141.77 109.281C141.573 109.044 141.316 108.864 141.026 108.758C140.829 108.685 140.62 108.647 140.41 108.647C140.002 108.647 139.608 108.791 139.296 109.052Z" fill="#E6E6E6"/>
<path d="M98.9699 108.758C98.68 108.864 98.4234 109.044 98.2265 109.281C98.0296 109.518 97.8995 109.803 97.8496 110.106L95.507 123.852C95.4554 124.155 95.4846 124.466 95.5918 124.754C95.699 125.042 95.8803 125.297 96.1176 125.493C96.3549 125.689 96.6397 125.82 96.9435 125.871C97.2473 125.923 97.5593 125.894 97.8482 125.787L110.954 120.937C111.243 120.831 111.499 120.65 111.695 120.413C111.892 120.176 112.023 119.892 112.074 119.589C112.126 119.286 112.097 118.975 111.989 118.687C111.882 118.399 111.701 118.144 111.464 117.948L100.7 109.052C100.388 108.791 99.9937 108.647 99.5863 108.647C99.3758 108.647 99.1671 108.685 98.9699 108.758Z" fill="#E6E6E6"/>
<path d="M120.59 158.507C123.203 158.507 125.322 156.394 125.322 153.787C125.322 151.18 123.203 149.066 120.59 149.066C117.976 149.066 115.857 151.18 115.857 153.787C115.857 156.394 117.976 158.507 120.59 158.507Z" fill="#E6E6E6"/>
<path d="M120.59 152.607C122.332 152.607 123.745 152.078 123.745 151.427C123.745 150.775 122.332 150.247 120.59 150.247C118.847 150.247 117.435 150.775 117.435 151.427C117.435 152.078 118.847 152.607 120.59 152.607Z" fill="#3F3D56"/>
<path d="M120.787 164.014C120.502 164.014 120.22 163.958 119.957 163.849C119.694 163.741 119.455 163.581 119.253 163.38C119.052 163.179 118.892 162.941 118.783 162.678C118.674 162.416 118.618 162.135 118.618 161.85V156.54H122.956V161.85C122.956 162.135 122.9 162.416 122.791 162.678C122.682 162.941 122.522 163.179 122.321 163.38C122.119 163.581 121.88 163.741 121.617 163.849C121.354 163.958 121.072 164.014 120.787 164.014Z" fill="#FF6584"/>
<path d="M120.326 103C120.554 103.471 120.775 103.946 120.982 104.431C123.43 110.125 124.255 116.381 123.368 122.512C122.924 121.869 122.457 121.2 121.983 120.523C122.999 114.639 122.427 108.591 120.326 103Z" fill="#3F3D56"/>
<path d="M116.777 107.327C117.005 107.797 117.225 108.273 117.433 108.758C119.881 114.452 120.706 120.708 119.819 126.839C119.375 126.196 118.908 125.527 118.433 124.85C119.45 118.966 118.878 112.918 116.777 107.327Z" fill="#3F3D56"/>
<path d="M105.834 123.435L106.334 117.093L106.834 110.751C106.861 110.408 106.978 110.079 107.173 109.796C107.368 109.513 107.634 109.286 107.945 109.138C108.256 108.99 108.6 108.926 108.944 108.953C109.287 108.98 109.617 109.097 109.901 109.291L115.158 112.894L118.997 115.526C119.242 115.239 119.547 115.009 119.89 114.851C120.233 114.693 120.606 114.612 120.984 114.612C121.362 114.612 121.735 114.693 122.078 114.851C122.421 115.009 122.726 115.239 122.971 115.526L126.81 112.894L132.067 109.291C132.351 109.097 132.681 108.98 133.024 108.953C133.368 108.926 133.712 108.99 134.023 109.138C134.334 109.286 134.6 109.513 134.795 109.796C134.99 110.079 135.107 110.408 135.134 110.751L135.634 117.093L136.134 123.435C136.161 123.778 136.097 124.121 135.949 124.431C135.801 124.741 135.573 125.007 135.289 125.202C135.006 125.396 134.675 125.513 134.332 125.54C133.989 125.567 133.644 125.503 133.333 125.355L127.576 122.616L122.846 120.365C122.603 120.611 122.313 120.806 121.993 120.94C121.674 121.073 121.33 121.142 120.984 121.142C120.638 121.142 120.294 121.073 119.975 120.94C119.655 120.806 119.365 120.611 119.122 120.365L114.392 122.616L108.635 125.355C108.324 125.503 107.979 125.567 107.636 125.54C107.293 125.513 106.963 125.396 106.679 125.202C106.395 125.007 106.167 124.741 106.019 124.431C105.871 124.121 105.807 123.778 105.834 123.435Z" fill="#F9A826"/>
<path d="M125.717 148.673C125.717 149.325 126.246 148.673 126.9 148.673C127.553 148.673 128.083 149.325 128.083 148.673C128.082 148.361 127.957 148.061 127.735 147.84C127.514 147.62 127.213 147.496 126.9 147.496C126.586 147.496 126.286 147.62 126.064 147.84C125.842 148.061 125.717 148.361 125.717 148.673Z" fill="#E6E6E6"/>
<path d="M115.463 148.673C115.463 149.325 114.933 148.673 114.28 148.673C113.626 148.673 113.097 149.325 113.097 148.673C113.097 148.361 113.222 148.061 113.444 147.84C113.666 147.62 113.966 147.496 114.28 147.496C114.593 147.496 114.894 147.62 115.116 147.84C115.337 148.061 115.462 148.361 115.463 148.673Z" fill="#E6E6E6"/>
<path d="M246.727 237.771V230.27H209.125V230.739V237.771V298.247V305.748H216.645H246.727V298.247H216.645V237.771H246.727Z" fill="#3F3D56"/>
<path d="M265.058 230.27V305.748H302.66V230.27H265.058ZM295.14 298.247H272.578V237.771H295.14V298.247Z" fill="#F9A826"/>
<path d="M160.712 298.247V230.739H153.191V298.247V305.748H160.712H190.793V298.247H160.712Z" fill="#F9A826"/>
<path d="M136.27 237.771V230.27H98.6682V230.739V237.771V264.024V271.525V298.247V305.748H106.189H136.27V298.247H106.189V271.525H136.27V264.024H106.189V237.771H136.27Z" fill="#3F3D56"/>
<path d="M430.507 237.771V230.27H392.905V230.739V237.771V264.024V271.525V298.247V305.748H400.426H430.507V298.247H400.426V271.525H430.507V264.024H400.426V237.771H430.507Z" fill="#F9A826"/>
<path d="M73.2866 230.739V292.732L53.4576 272.955L53.4125 273.001L53.3704 272.959L33.0994 293.177V230.505H25.5789V305.514H33.0994V303.785L53.4161 283.521L73.2866 303.341V305.748H80.8071V230.739H73.2866Z" fill="#3F3D56"/>
<path d="M367.994 230.739V232.467L347.677 252.731L327.806 232.912V230.505H320.286V305.514H327.806V243.52L347.635 263.297L347.681 263.252L347.723 263.293L367.994 243.075V305.748H375.514V230.739H367.994Z" fill="#3F3D56"/>
<path d="M171.858 184.532C174.407 184.532 176.474 182.471 176.474 179.928C176.474 177.385 174.407 175.324 171.858 175.324C169.308 175.324 167.242 177.385 167.242 179.928C167.242 182.471 169.308 184.532 171.858 184.532Z" fill="#F9A826"/>
<path d="M57.9954 235.688C60.5448 235.688 62.6115 233.627 62.6115 231.084C62.6115 228.541 60.5448 226.48 57.9954 226.48C55.4461 226.48 53.3794 228.541 53.3794 231.084C53.3794 233.627 55.4461 235.688 57.9954 235.688Z" fill="#F9A826"/>
<path d="M149.29 338C151.84 338 153.906 335.939 153.906 333.396C153.906 330.853 151.84 328.792 149.29 328.792C146.741 328.792 144.674 330.853 144.674 333.396C144.674 335.939 146.741 338 149.29 338Z" fill="#F9A826"/>
<path d="M401.12 333.908C403.67 333.908 405.736 331.846 405.736 329.303C405.736 326.761 403.67 324.699 401.12 324.699C398.571 324.699 396.504 326.761 396.504 329.303C396.504 331.846 398.571 333.908 401.12 333.908Z" fill="#F9A826"/>
<path d="M405.737 213.18C408.286 213.18 410.353 211.118 410.353 208.575C410.353 206.033 408.286 203.971 405.737 203.971C403.187 203.971 401.121 206.033 401.121 208.575C401.121 211.118 403.187 213.18 405.737 213.18Z" fill="#F9A826"/>
<path d="M347.267 296.052C349.816 296.052 351.883 293.991 351.883 291.448C351.883 288.905 349.816 286.844 347.267 286.844C344.718 286.844 342.651 288.905 342.651 291.448C342.651 293.991 344.718 296.052 347.267 296.052Z" fill="#F9A826"/>
<path d="M269.616 204.208C272.165 204.208 274.232 202.147 274.232 199.604C274.232 197.061 272.165 195 269.616 195C267.067 195 265 197.061 265 199.604C265 202.147 267.067 204.208 269.616 204.208Z" fill="#ECECEC"/>
<path d="M445.616 137.208C448.165 137.208 450.232 135.147 450.232 132.604C450.232 130.061 448.165 128 445.616 128C443.067 128 441 130.061 441 132.604C441 135.147 443.067 137.208 445.616 137.208Z" fill="#F2F2F2"/>
</g>
<path d="M85.616 65.2081C88.1654 65.2081 90.2321 63.1468 90.2321 60.604C90.2321 58.0613 88.1654 56 85.616 56C83.0667 56 81 58.0613 81 60.604C81 63.1468 83.0667 65.2081 85.616 65.2081Z" fill="#F9A826"/>
<path d="M405.616 82.2081C408.165 82.2081 410.232 80.1468 410.232 77.604C410.232 75.0613 408.165 73 405.616 73C403.067 73 401 75.0613 401 77.604C401 80.1468 403.067 82.2081 405.616 82.2081Z" fill="#ECECEC"/>
<path d="M337.616 50.2081C340.165 50.2081 342.232 48.1468 342.232 45.604C342.232 43.0613 340.165 41 337.616 41C335.067 41 333 43.0613 333 45.604C333 48.1468 335.067 50.2081 337.616 50.2081Z" fill="#F9A826"/>
<path d="M44.616 119.208C47.1654 119.208 49.2321 117.147 49.2321 114.604C49.2321 112.061 47.1654 110 44.616 110C42.0667 110 40 112.061 40 114.604C40 117.147 42.0667 119.208 44.616 119.208Z" fill="#F9A826"/>
<path d="M148.616 9.20807C151.165 9.20807 153.232 7.14678 153.232 4.60404C153.232 2.0613 151.165 0 148.616 0C146.067 0 144 2.0613 144 4.60404C144 7.14678 146.067 9.20807 148.616 9.20807Z" fill="#F2F2F2"/>
<path d="M213.616 91.2081C216.165 91.2081 218.232 89.1468 218.232 86.604C218.232 84.0613 216.165 82 213.616 82C211.067 82 209 84.0613 209 86.604C209 89.1468 211.067 91.2081 213.616 91.2081Z" fill="#F9A826"/>
<defs>
<clipPath id="clip0_195_351">
<rect width="456" height="235" fill="white" transform="translate(0 103)"/>
</clipPath>
</defs>
</svg>
