<svg width="35" height="35" viewBox="0 0 35 35" fill="none" xmlns="http://www.w3.org/2000/svg">
<path d="M24.7917 15.3125V10.2083C24.7917 9.82156 24.638 9.45063 24.3645 9.17714C24.091 8.90365 23.7201 8.75 23.3333 8.75H5.83333C5.44656 8.75 5.07563 8.90365 4.80214 9.17714C4.52865 9.45063 4.375 9.82156 4.375 10.2083V24.7917C4.375 25.1784 4.52865 25.5494 4.80214 25.8229C5.07563 26.0964 5.44656 26.25 5.83333 26.25H23.3333C23.7201 26.25 24.091 26.0964 24.3645 25.8229C24.638 25.5494 24.7917 25.1784 24.7917 24.7917V19.6875L30.625 25.5208V9.47917L24.7917 15.3125Z" fill="black"/>
</svg>
