<svg width="505" height="832" viewBox="0 0 505 832" fill="none" xmlns="http://www.w3.org/2000/svg">
<g clip-path="url(#clip0_193_2)">
<path d="M348.096 492.1C339.511 497.86 359.61 560.563 368.902 559.136C374.71 558.259 381.224 531.543 370.013 511.026C364.155 500.219 352.338 489.247 348.096 492.1Z" fill="#65BDFF"/>
<path d="M202.909 440.698C188.264 447.445 171.851 455.18 165.084 472.515C154.176 500.383 179.275 522.272 167.357 549.81C160.438 565.719 150.793 561.276 137.107 579.873C120.846 602.035 111.352 639.887 125.543 669.62C136.35 692.332 156.651 701.273 173.922 708.899C179.881 711.532 219.321 728.319 256.843 714.275C265.832 710.929 269.468 706.101 277.144 706.924C295.728 709.008 298.505 735.944 315.473 740.332C329.714 744.008 346.278 729.8 356.732 715.537C358.802 712.684 360.671 709.831 362.236 707.088C371.326 688.053 378.649 666.055 380.568 644.002C381.022 638.461 381.174 632.975 380.921 627.489C379.962 613.446 377.336 599.786 369.407 587.333C355.166 563.47 333.502 544.764 333.401 515.03C332.795 510.532 332.391 505.869 331.987 501.151C329.916 477.453 328.149 452.053 306.585 436.913C278.053 417.054 244.773 425.008 216.039 435.541C211.292 437.132 206.949 438.833 202.909 440.698Z" fill="#65BDFF"/>
<path d="M87.3144 534.56L84.9409 534.889C82.7694 535.218 80.7999 533.572 80.4969 531.214L77.3154 505.65C77.0124 503.291 78.5274 501.151 80.6989 500.822L83.0724 500.493C85.2439 500.164 87.2134 501.81 87.5164 504.169L90.6979 529.732C91.0009 532.091 89.4859 534.231 87.3144 534.56Z" fill="white"/>
<path d="M76.4571 530.665C74.2856 530.994 72.3161 529.349 72.0131 526.99L70.1951 512.178C69.8921 509.819 71.4071 507.68 73.5786 507.35C75.7501 507.021 77.7196 508.667 78.0226 511.026L79.8406 525.783C80.1436 528.142 78.6286 530.336 76.4571 530.665Z" fill="white"/>
<path d="M124.432 529.128L126.805 528.799C128.977 528.47 130.492 526.331 130.189 523.972L127.007 498.408C126.704 496.049 124.735 494.403 122.563 494.732L120.19 495.061C118.018 495.391 116.503 497.53 116.806 499.889L119.988 525.453C120.291 527.812 122.26 529.457 124.432 529.128Z" fill="white"/>
<path d="M133.977 522.218C136.148 521.889 137.663 519.749 137.36 517.39L135.542 502.633C135.239 500.275 133.27 498.629 131.098 498.958C128.927 499.287 127.412 501.427 127.715 503.785L129.533 518.542C129.785 520.901 131.805 522.547 133.977 522.218Z" fill="white"/>
<path d="M89.6926 521.32L118.972 517.042L117.882 508.234L88.6018 512.512L89.6926 521.32Z" fill="white"/>
<path d="M87.3144 534.56L84.9409 534.889C82.7694 535.218 80.7999 533.572 80.4969 531.214L77.3154 505.65C77.0124 503.291 78.5274 501.151 80.6989 500.822L83.0724 500.493C85.2439 500.164 87.2134 501.81 87.5164 504.169L90.6979 529.732C91.0009 532.091 89.4859 534.231 87.3144 534.56Z" stroke="#4E5A7D" stroke-width="3" stroke-miterlimit="10" stroke-linecap="round" stroke-linejoin="round"/>
<path d="M76.4571 530.665C74.2856 530.994 72.3161 529.349 72.0131 526.99L70.1951 512.178C69.8921 509.819 71.4071 507.68 73.5786 507.35C75.7501 507.021 77.7196 508.667 78.0226 511.026L79.8406 525.783C80.1436 528.142 78.6286 530.336 76.4571 530.665Z" stroke="#4E5A7D" stroke-width="3" stroke-miterlimit="10" stroke-linecap="round" stroke-linejoin="round"/>
<path d="M124.432 529.128L126.805 528.799C128.977 528.47 130.492 526.331 130.189 523.972L127.007 498.408C126.704 496.049 124.735 494.403 122.563 494.732L120.19 495.061C118.018 495.391 116.503 497.53 116.806 499.889L119.988 525.453C120.291 527.812 122.26 529.457 124.432 529.128Z" stroke="#4E5A7D" stroke-width="3" stroke-miterlimit="10" stroke-linecap="round" stroke-linejoin="round"/>
<path d="M133.977 522.218C136.148 521.889 137.663 519.749 137.36 517.39L135.542 502.633C135.239 500.275 133.27 498.629 131.098 498.958C128.927 499.287 127.412 501.427 127.715 503.785L129.533 518.542C129.785 520.901 131.805 522.547 133.977 522.218Z" stroke="#4E5A7D" stroke-width="3" stroke-miterlimit="10" stroke-linecap="round" stroke-linejoin="round"/>
<path d="M89.6926 521.32L118.972 517.042L117.882 508.234L88.6018 512.512L89.6926 521.32Z" stroke="#4E5A7D" stroke-width="3" stroke-miterlimit="10" stroke-linecap="round" stroke-linejoin="round"/>
<path d="M315.271 691.125H205.888L209.979 672.089C212.1 662.215 223.311 655.028 236.441 655.028H284.719C297.849 655.028 309.06 662.27 311.181 672.089L315.271 691.125Z" fill="#E08484"/>
<path d="M315.271 691.125H205.888L209.979 672.089C212.1 662.215 223.311 655.028 236.441 655.028H284.719C297.849 655.028 309.06 662.27 311.181 672.089L315.271 691.125Z" stroke="#4E5A7D" stroke-width="6" stroke-miterlimit="10" stroke-linecap="round" stroke-linejoin="round"/>
<path d="M299.97 676.643H286.234C280.982 676.643 276.74 672.035 276.74 666.329V642.686H244.42V666.329C244.42 672.035 240.178 676.643 234.926 676.643H221.19C201.091 676.643 184.83 694.307 184.83 716.14V748.342H336.33V716.14C336.33 694.307 320.019 676.643 299.97 676.643Z" fill="#FBE3D5"/>
<path d="M259.974 653.547C269.234 653.547 276.74 648.758 276.74 642.85C276.74 636.942 269.234 632.152 259.974 632.152C250.714 632.152 243.208 636.942 243.208 642.85C243.208 648.758 250.714 653.547 259.974 653.547Z" fill="#D5B6A5"/>
<path d="M336.33 716.14V748.341H184.83V716.14C184.83 694.306 201.091 676.642 221.19 676.642H234.926C235.28 676.642 235.633 676.642 235.987 676.587C239.724 687.613 249.521 695.513 260.984 695.513C272.448 695.513 282.194 687.668 285.931 676.642C286.032 676.642 286.133 676.642 286.285 676.642H299.97C320.019 676.642 336.33 694.306 336.33 716.14Z" fill="#E08484"/>
<path d="M246.44 718.116C232.25 718.116 220.685 705.553 220.685 690.138V676.533H301.435V690.138C301.435 705.553 289.87 718.116 275.68 718.116H246.44Z" fill="#D87171"/>
<path d="M299.97 676.643H286.234C280.982 676.643 276.74 672.035 276.74 666.329V642.686H244.42V666.329C244.42 672.035 240.178 676.643 234.926 676.643H221.19C201.091 676.643 184.83 694.307 184.83 716.14V748.342H336.33V716.14C336.33 694.307 320.019 676.643 299.97 676.643Z" stroke="#4E5A7D" stroke-width="6" stroke-miterlimit="10" stroke-linecap="round" stroke-linejoin="round"/>
<path d="M295.678 510.641C295.122 502.303 297.142 495.994 300.728 494.623C304.263 493.251 308.404 497.037 309.818 498.353C323.2 510.532 314.969 551.291 312.696 561.769L295.678 510.641Z" fill="#BCAFAA"/>
<path d="M294.668 510.642C294.112 502.304 296.132 495.995 299.718 494.623C300.425 494.349 301.132 494.294 301.839 494.349" stroke="#4E5A7D" stroke-width="6" stroke-miterlimit="10" stroke-linecap="round" stroke-linejoin="round"/>
<path d="M302.848 494.35C305.777 494.624 308.656 497.257 309.817 498.354C323.2 510.533 314.968 551.292 312.696 561.77L295.677 510.697" stroke="#4E5A7D" stroke-width="6" stroke-miterlimit="10" stroke-linecap="round" stroke-linejoin="round"/>
<path d="M207.808 565.5V547.012C207.808 526.002 224.927 531.433 244.218 531.433L279.922 532.914C291.133 532.914 297.9 514.756 304.263 523.643C304.061 517.17 302.95 508.941 299.465 500.328C297.546 495.501 289.517 477.233 271.034 468.84C264.772 465.987 259.57 465.329 256.389 464.945C244.218 463.464 239.219 461.105 218.312 467.413C205.08 471.363 195.587 478.55 195.435 481.677C195.284 484.529 201.697 483.816 206.949 488.095C215.484 495.007 203.566 510.587 201.899 530.336C201.192 538.784 201.849 550.633 207.808 565.5Z" fill="#BCAFAA"/>
<path d="M301.838 507.351C301.182 504.498 299.869 501.371 299.465 500.329C297.546 495.501 289.516 477.234 271.033 468.84C264.771 465.988 259.57 465.329 256.388 464.945C244.218 463.464 235.986 462.038 215.079 468.347C201.848 472.296 194.374 475.643 195.435 481.677C196.091 485.462 203.919 484.42 208.464 491.552C214.524 501.097 203.565 510.587 201.899 530.391C201.192 538.839 201.848 550.689 207.807 565.555V547.068C207.807 526.057 224.927 531.488 244.218 531.488L279.921 532.969C291.132 532.969 297.899 514.811 304.262 523.698" stroke="#4E5A7D" stroke-width="6" stroke-miterlimit="10" stroke-linecap="round" stroke-linejoin="round"/>
<path d="M302.495 521.285C299.97 518.323 296.182 517.061 292.546 517.884C283.507 519.968 272.498 521.175 260.58 521.175C248.157 521.175 236.693 519.859 227.401 517.609C223.765 516.732 219.927 517.939 217.402 520.901C211.494 527.703 207.858 536.865 207.858 546.958V593.807C207.858 623.869 230.33 648.281 258.004 648.281H261.64C289.314 648.281 311.787 623.869 311.787 593.807V546.958C311.736 537.084 308.201 528.087 302.495 521.285Z" fill="#FBE3D5"/>
<path d="M261.59 641.588H257.954C230.28 641.588 207.808 617.176 207.808 587.114V592.765C207.808 622.827 230.28 647.239 257.954 647.239H261.59C289.264 647.239 311.737 622.827 311.737 592.765V587.114C311.737 617.176 289.264 641.588 261.59 641.588Z" fill="#D5B6A5"/>
<path d="M263.307 596.66C263.307 596.66 268.408 594.959 270.781 595.782C272.498 587.718 267.246 580.367 267.246 580.367" stroke="#4E5A7D" stroke-width="6" stroke-miterlimit="10" stroke-linecap="round" stroke-linejoin="round"/>
<path d="M273.508 619.92C270.579 622.004 266.842 623.266 262.701 623.266C253.51 623.266 246.036 617.012 246.036 609.332" stroke="#4E5A7D" stroke-width="6" stroke-miterlimit="10" stroke-linecap="round" stroke-linejoin="round"/>
<path d="M244.218 568.845C247.063 568.845 249.369 565.701 249.369 561.824C249.369 557.946 247.063 554.802 244.218 554.802C241.373 554.802 239.067 557.946 239.067 561.824C239.067 565.701 241.373 568.845 244.218 568.845Z" fill="#4E5A7D"/>
<path d="M282.396 568.572C285.241 568.572 287.547 565.428 287.547 561.55C287.547 557.672 285.241 554.528 282.396 554.528C279.551 554.528 277.245 557.672 277.245 561.55C277.245 565.428 279.551 568.572 282.396 568.572Z" fill="#4E5A7D"/>
<path d="M292.546 517.938C283.507 520.023 272.498 521.23 260.58 521.23C248.157 521.23 236.693 519.913 227.401 517.664C223.765 516.786 219.927 517.993 217.402 520.956C211.494 527.758 207.858 536.919 207.858 547.013V550.085C224.876 551.402 242.147 552.115 259.216 552.115C276.689 552.115 294.314 551.402 311.787 549.975V547.013C311.787 537.084 308.302 528.087 302.545 521.285C299.97 518.322 296.182 517.061 292.546 517.938Z" fill="#D5B6A5"/>
<path d="M302.495 521.285C299.97 518.323 296.182 517.061 292.546 517.884C283.507 519.968 272.498 521.175 260.58 521.175C248.157 521.175 236.693 519.859 227.401 517.609C223.765 516.732 219.927 517.939 217.402 520.901C211.494 527.703 207.858 536.865 207.858 546.958V593.807C207.858 623.869 230.33 648.281 258.004 648.281H261.64C289.314 648.281 311.787 623.869 311.787 593.807V546.958C311.736 537.084 308.201 528.087 302.495 521.285Z" stroke="#4E5A7D" stroke-width="6" stroke-miterlimit="10" stroke-linecap="round" stroke-linejoin="round"/>
<path d="M313.453 545.97C277.295 548.274 240.986 548.274 204.828 545.97C202.303 545.806 200.333 543.721 200.333 541.143V528.635C200.333 525.837 202.707 523.643 205.484 523.808C241.238 526.112 277.093 526.112 312.847 523.808C315.625 523.643 317.998 525.837 317.998 528.635V541.143C317.998 543.721 316.029 545.806 313.453 545.97Z" fill="#84BDE1"/>
<path opacity="0.3" d="M312.847 523.863C277.093 526.167 241.238 526.167 205.484 523.863C202.707 523.699 200.333 525.893 200.333 528.691V532.86C200.333 530.062 202.707 527.868 205.484 528.032C241.238 530.336 277.093 530.336 312.847 528.032C315.625 527.868 317.998 530.062 317.998 532.86V528.636C317.998 525.893 315.625 523.699 312.847 523.863Z" fill="#84BDE1"/>
<path d="M313.453 545.97C277.295 548.274 240.986 548.274 204.828 545.97C202.303 545.806 200.333 543.721 200.333 541.143V528.635C200.333 525.837 202.707 523.643 205.484 523.808C241.238 526.112 277.093 526.112 312.847 523.808C315.625 523.643 317.998 525.837 317.998 528.635V541.143C317.998 543.721 316.029 545.806 313.453 545.97Z" stroke="#4E5A7D" stroke-width="6" stroke-miterlimit="10" stroke-linecap="round" stroke-linejoin="round"/>
<path d="M299.465 499.396C299.465 499.396 309.868 499.396 311.686 520.846" stroke="#4E5A7D" stroke-width="4" stroke-miterlimit="10" stroke-linecap="round" stroke-linejoin="round"/>
<path d="M241.239 472.846C262.701 474.053 282.75 485.682 285.174 505.925" stroke="#4E5A7D" stroke-width="4" stroke-miterlimit="10" stroke-linecap="round" stroke-linejoin="round"/>
<path d="M226.594 474.6C229.371 473.667 232.906 472.789 236.542 472.844" stroke="#4E5A7D" stroke-width="4" stroke-miterlimit="10" stroke-linecap="round" stroke-linejoin="round"/>
<path d="M243.006 485.353C254.621 487.382 269.67 489.357 275.276 510.148" stroke="#4E5A7D" stroke-width="4" stroke-miterlimit="10" stroke-linecap="round" stroke-linejoin="round"/>
<path d="M259.166 629.738C259.166 629.738 262.045 631.603 267.246 629.738" stroke="#4E5A7D" stroke-width="6" stroke-miterlimit="10" stroke-linecap="round" stroke-linejoin="round"/>
<path d="M235.886 600.938C241.129 600.938 245.38 596.321 245.38 590.625C245.38 584.929 241.129 580.312 235.886 580.312C230.642 580.312 226.392 584.929 226.392 590.625C226.392 596.321 230.642 600.938 235.886 600.938Z" fill="#F5CFC4"/>
<path d="M285.982 600.938C291.225 600.938 295.476 596.321 295.476 590.625C295.476 584.929 291.225 580.312 285.982 580.312C280.738 580.312 276.488 584.929 276.488 590.625C276.488 596.321 280.738 600.938 285.982 600.938Z" fill="#F5CFC4"/>
<path d="M206.393 579.269H207.403V550.414H206.393C203.06 550.414 200.333 553.376 200.333 556.997V572.686C200.333 576.307 203.06 579.269 206.393 579.269Z" fill="#FEF0E3"/>
<path d="M206.393 579.269H207.403V550.414H206.393C203.06 550.414 200.333 553.376 200.333 556.997V572.686C200.333 576.307 203.06 579.269 206.393 579.269Z" stroke="#4E5A7D" stroke-width="6" stroke-miterlimit="10" stroke-linecap="round" stroke-linejoin="round"/>
<path d="M312.746 579.269H311.736V550.414H312.746C316.079 550.414 318.806 553.376 318.806 556.997V572.686C318.806 576.307 316.079 579.269 312.746 579.269Z" fill="#FEF0E3"/>
<path d="M312.746 579.269H311.736V550.414H312.746C316.079 550.414 318.806 553.376 318.806 556.997V572.686C318.806 576.307 316.079 579.269 312.746 579.269Z" stroke="#4E5A7D" stroke-width="6" stroke-miterlimit="10" stroke-linecap="round" stroke-linejoin="round"/>
<path d="M275.68 713.727H246.44C234.472 713.727 224.725 703.139 224.725 690.138V668.194H297.395V690.138C297.395 703.194 287.699 713.727 275.68 713.727Z" fill="#E08484"/>
<path d="M297.395 668.194V690.138C297.395 703.139 287.648 713.727 275.68 713.727H246.44C234.472 713.727 224.725 703.139 224.725 690.138V668.194" stroke="#4E5A7D" stroke-width="6" stroke-miterlimit="10" stroke-linecap="round" stroke-linejoin="round"/>
<path d="M285.881 676.642C282.144 687.668 272.347 695.513 260.934 695.513C249.47 695.513 239.673 687.613 235.936 676.587C240.683 676.038 244.42 671.649 244.42 666.328V664.408H276.74V666.328C276.74 671.869 280.78 676.422 285.881 676.642Z" fill="#FBE3D5"/>
<path d="M282.447 675.765C279.063 685.31 270.63 691.674 260.934 691.674C251.137 691.674 242.653 685.145 239.32 675.436C238.31 676.039 237.148 676.423 235.936 676.588C239.673 687.614 249.47 695.514 260.934 695.514C272.397 695.514 282.144 687.669 285.881 676.642C284.669 676.588 283.507 676.258 282.447 675.765Z" fill="#EDD4C6"/>
<path d="M276.74 664.354V666.274C276.74 671.046 279.72 675.106 283.81 676.258C284.871 676.587 285.477 677.849 285.022 678.946C280.73 688.71 271.589 695.458 260.984 695.458C250.278 695.458 241.087 688.601 236.845 678.726C236.391 677.684 236.896 676.422 237.956 676.093C241.744 674.722 244.471 670.882 244.471 666.274V664.354" stroke="#4E5A7D" stroke-width="6" stroke-miterlimit="10" stroke-linecap="round" stroke-linejoin="round"/>
<path d="M234.977 673.077C237.704 685.914 248.258 695.514 260.934 695.514C273.609 695.514 284.164 685.914 286.891 673.077" stroke="#4E5A7D" stroke-width="6" stroke-miterlimit="10" stroke-linecap="round" stroke-linejoin="round"/>
<path d="M242.248 704.127C244.48 704.127 246.288 702.997 246.288 701.604C246.288 700.21 244.48 699.08 242.248 699.08C240.017 699.08 238.208 700.21 238.208 701.604C238.208 702.997 240.017 704.127 242.248 704.127Z" fill="#4E5A7D"/>
<path d="M242.249 701.603V730.184" stroke="#4E5A7D" stroke-width="8" stroke-miterlimit="10" stroke-linecap="round" stroke-linejoin="round"/>
<path d="M278.861 704.127C281.092 704.127 282.901 702.997 282.901 701.604C282.901 700.21 281.092 699.08 278.861 699.08C276.63 699.08 274.821 700.21 274.821 701.604C274.821 702.997 276.63 704.127 278.861 704.127Z" fill="#4E5A7D"/>
<path d="M278.861 701.603V722.503" stroke="#4E5A7D" stroke-width="8" stroke-miterlimit="10" stroke-linecap="round" stroke-linejoin="round"/>
<path d="M243.713 737.754H240.683C238.764 737.754 237.35 735.834 237.805 733.804L239.118 727.44H245.279L246.592 733.804C247.046 735.834 245.632 737.754 243.713 737.754Z" fill="#FEF0E3"/>
<path d="M243.713 737.754H240.683C238.764 737.754 237.35 735.834 237.805 733.804L239.118 727.44H245.279L246.592 733.804C247.046 735.834 245.632 737.754 243.713 737.754Z" stroke="#4E5A7D" stroke-width="6" stroke-miterlimit="10" stroke-linecap="round" stroke-linejoin="round"/>
<path d="M280.376 732.597H277.346C275.427 732.597 274.013 730.677 274.467 728.648L275.78 722.284H281.941L283.254 728.648C283.709 730.677 282.295 732.597 280.376 732.597Z" fill="#FEF0E3"/>
<path d="M280.376 732.597H277.346C275.427 732.597 274.013 730.677 274.467 728.648L275.78 722.284H281.941L283.254 728.648C283.709 730.677 282.295 732.597 280.376 732.597Z" stroke="#4E5A7D" stroke-width="6" stroke-miterlimit="10" stroke-linecap="round" stroke-linejoin="round"/>
<path opacity="0.58" d="M256.54 674.393C256.54 674.393 258.156 674.557 259.974 676.587C259.974 676.587 262.095 674.393 263.913 674.393" stroke="#D5B6A5" stroke-width="6" stroke-miterlimit="10" stroke-linecap="round" stroke-linejoin="round"/>
<path d="M262.701 507.844C262.701 507.844 261.59 500.932 250.379 497.146" stroke="#4E5A7D" stroke-width="4" stroke-miterlimit="10" stroke-linecap="round" stroke-linejoin="round"/>
<path d="M215.686 727.44V748.341" stroke="#4E5A7D" stroke-width="6" stroke-miterlimit="10" stroke-linecap="round" stroke-linejoin="round"/>
<path d="M304.313 727.44V748.341" stroke="#4E5A7D" stroke-width="6" stroke-miterlimit="10" stroke-linecap="round" stroke-linejoin="round"/>
<path d="M275.932 400.98H249.47C246.692 400.98 244.42 398.512 244.42 395.495V359.672C244.42 356.655 246.692 354.187 249.47 354.187H275.932C278.709 354.187 280.982 356.655 280.982 359.672V395.495C280.982 398.512 278.709 400.98 275.932 400.98Z" fill="white"/>
<path d="M275.932 400.98H249.47C246.692 400.98 244.42 398.512 244.42 395.495V359.672C244.42 356.655 246.692 354.187 249.47 354.187H275.932C278.709 354.187 280.982 356.655 280.982 359.672V395.495C280.982 398.512 278.709 400.98 275.932 400.98Z" stroke="#4E5A7D" stroke-width="3" stroke-miterlimit="10" stroke-linecap="round" stroke-linejoin="round"/>
<path d="M278.507 410.909C284.113 410.909 288.658 405.973 288.658 399.883C288.658 393.793 284.113 388.856 278.507 388.856C272.901 388.856 268.357 393.793 268.357 399.883C268.357 405.973 272.901 410.909 278.507 410.909Z" fill="white"/>
<path d="M278.507 410.909C284.113 410.909 288.658 405.973 288.658 399.883C288.658 393.793 284.113 388.856 278.507 388.856C272.901 388.856 268.357 393.793 268.357 399.883C268.357 405.973 272.901 410.909 278.507 410.909Z" stroke="#4E5A7D" stroke-width="3" stroke-miterlimit="10" stroke-linecap="round" stroke-linejoin="round"/>
<path d="M273.861 399.774L277.043 403.23L283.153 396.537" stroke="#4E5A7D" stroke-width="4" stroke-miterlimit="10" stroke-linecap="round" stroke-linejoin="round"/>
<path d="M265.933 351.279V346.726C265.933 344.751 264.468 343.16 262.65 343.16C260.832 343.16 259.368 344.751 259.368 346.726V351.279H255.782V352.705V357.478H269.518V352.705V351.279H265.933Z" fill="white"/>
<path d="M265.933 351.718V347.494C265.933 345.683 264.468 344.202 262.65 344.202C260.832 344.202 259.368 345.683 259.368 347.494V351.718H255.782V353.034V357.478H269.518V353.034V351.718H265.933Z" stroke="#4E5A7D" stroke-width="3" stroke-miterlimit="10" stroke-linecap="round" stroke-linejoin="round"/>
<path d="M254.167 370.754H272.953" stroke="#4E5A7D" stroke-width="3" stroke-miterlimit="10" stroke-linecap="round" stroke-linejoin="round"/>
<path d="M254.167 377.557H272.953" stroke="#4E5A7D" stroke-width="3" stroke-miterlimit="10" stroke-linecap="round" stroke-linejoin="round"/>
<path d="M257.601 384.14H269.519" stroke="#4E5A7D" stroke-width="3" stroke-miterlimit="10" stroke-linecap="round" stroke-linejoin="round"/>
<path d="M372.336 395.878L367.387 390.282C362.59 384.851 354.611 384.742 349.914 390.282C345.369 395.659 343.905 405.478 350.066 416.395C356.277 427.312 372.286 434.717 372.286 434.717C372.286 434.717 388.345 427.312 394.506 416.395C400.717 405.478 399.253 395.659 394.657 390.282C389.961 384.742 381.982 384.851 377.184 390.282L372.336 395.878Z" fill="white"/>
<path d="M372.336 395.878L367.387 390.282C362.59 384.851 354.611 384.742 349.914 390.282C345.369 395.659 343.905 405.478 350.066 416.395C356.277 427.312 372.286 434.717 372.286 434.717C372.286 434.717 388.345 427.312 394.506 416.395C400.717 405.478 399.253 395.659 394.657 390.282C389.961 384.742 381.982 384.851 377.184 390.282L372.336 395.878Z" stroke="#4E5A7D" stroke-width="3" stroke-miterlimit="10" stroke-linecap="round" stroke-linejoin="round"/>
<path d="M355.217 413.598H363.196L367.085 402.517L372.337 421.991L376.074 413.104L378.952 417.987L382.79 402.517L386.325 412.281H390.719" stroke="#4E5A7D" stroke-width="3" stroke-miterlimit="10" stroke-linecap="round" stroke-linejoin="round"/>
<path d="M403.646 475.093C403.646 475.093 392.233 504.442 392.233 515.962C392.233 527.483 393.142 530.609 393.142 530.609C393.142 530.609 417.938 534.559 431.674 527.537C445.46 520.516 449.399 510.751 449.399 510.751C449.399 510.751 449.248 493.8 440.259 492.703C436.572 492.264 431.371 492.977 429.502 498.243C426.927 505.484 428.745 508.173 428.745 508.173C426.624 505.868 423.19 502.632 416.322 502.632C409.454 502.632 405.818 510.751 405.818 510.751L406.323 487.162L418.544 486.01L420.816 475.093L413.544 465.877L403.646 475.093Z" fill="white"/>
<path d="M403.646 475.093C403.646 475.093 392.233 504.442 392.233 515.962C392.233 527.483 393.142 530.609 393.142 530.609C393.142 530.609 417.938 534.559 431.674 527.537C445.46 520.516 449.399 510.751 449.399 510.751C449.399 510.751 449.248 493.8 440.259 492.703C436.572 492.264 431.371 492.977 429.502 498.243C426.927 505.484 428.745 508.173 428.745 508.173C426.624 505.868 423.19 502.632 416.322 502.632C409.454 502.632 405.818 510.751 405.818 510.751L406.323 487.162L418.544 486.01L420.816 475.093L413.544 465.877L403.646 475.093Z" stroke="#4E5A7D" stroke-width="3" stroke-miterlimit="10" stroke-linecap="round" stroke-linejoin="round"/>
<path d="M413.646 517.828C413.646 517.828 420.059 520.516 426.069 517.828" stroke="#4E5A7D" stroke-width="3" stroke-miterlimit="10" stroke-linecap="round" stroke-linejoin="round"/>
<path d="M398.849 518.979V525.398H403.647" stroke="#4E5A7D" stroke-width="3" stroke-miterlimit="10" stroke-linecap="round" stroke-linejoin="round"/>
<path d="M123.876 412.226C123.876 412.226 137.259 383.865 156.449 378.269C159.58 377.337 166.145 376.294 171.195 380.464C176.649 385.017 178.669 394.562 175.235 401.474C170.185 411.568 155.287 411.952 150.995 406.686C149.429 404.766 149.48 402.352 149.53 401.748C149.631 396.153 155.641 390.667 160.893 391.49C163.923 391.984 165.842 394.452 166.044 394.672C169.882 399.774 168.316 409.703 162.357 419.632" stroke="#4E5A7D" stroke-width="3" stroke-miterlimit="10" stroke-linecap="round" stroke-linejoin="round"/>
<path d="M127.058 413.488L120.544 410.197C119.332 409.593 117.716 410.636 116.908 412.501C116.1 414.366 116.453 416.396 117.615 416.999L118.019 417.219L112.413 428.19C110.747 431.427 111.201 435.157 113.373 436.254C115.544 437.352 118.473 435.267 119.635 431.811L123.725 420.071L124.129 420.291C125.341 420.894 126.957 419.852 127.765 417.987C128.624 416.121 128.27 414.147 127.058 413.488Z" fill="white"/>
<path d="M127.058 413.488L120.544 410.197C119.332 409.593 117.716 410.636 116.908 412.501C116.1 414.366 116.453 416.396 117.615 416.999L118.019 417.219L112.413 428.19C110.747 431.427 111.201 435.157 113.373 436.254C115.544 437.352 118.473 435.267 119.635 431.811L123.725 420.071L124.129 420.291C125.341 420.894 126.957 419.852 127.765 417.987C128.624 416.121 128.27 414.147 127.058 413.488Z" stroke="#4E5A7D" stroke-width="3" stroke-miterlimit="10" stroke-linecap="round" stroke-linejoin="round"/>
<path d="M166.095 418.644L159.227 416.34C157.964 415.901 156.5 417.163 155.944 419.138C155.389 421.113 155.944 423.088 157.257 423.472L157.661 423.636L153.52 435.321C152.308 438.777 153.217 442.398 155.49 443.166C157.762 443.934 160.388 441.465 161.146 437.844L163.721 425.611L164.125 425.776C165.388 426.215 166.852 424.953 167.408 422.978C167.963 421.003 167.357 419.083 166.095 418.644Z" fill="white"/>
<path d="M166.095 418.644L159.227 416.34C157.964 415.901 156.5 417.163 155.944 419.138C155.389 421.113 155.944 423.088 157.257 423.472L157.661 423.636L153.52 435.321C152.308 438.777 153.217 442.398 155.49 443.166C157.762 443.934 160.388 441.465 161.146 437.844L163.721 425.611L164.125 425.776C165.388 426.215 166.852 424.953 167.408 422.978C167.963 421.003 167.357 419.083 166.095 418.644Z" stroke="#4E5A7D" stroke-width="3" stroke-miterlimit="10" stroke-linecap="round" stroke-linejoin="round"/>
<path d="M283.558 354.68H287.244" stroke="white" stroke-width="2" stroke-miterlimit="10" stroke-linecap="round" stroke-linejoin="round"/>
<path d="M281.032 350.566L283.557 346.836" stroke="white" stroke-width="2" stroke-miterlimit="10" stroke-linecap="round" stroke-linejoin="round"/>
<path d="M282.8 352.266L286.588 349.688" stroke="white" stroke-width="2" stroke-miterlimit="10" stroke-linecap="round" stroke-linejoin="round"/>
<path d="M170.892 421.937H173.973" stroke="white" stroke-width="2" stroke-miterlimit="10" stroke-linecap="round" stroke-linejoin="round"/>
<path d="M168.822 418.535L170.892 415.463" stroke="white" stroke-width="2" stroke-miterlimit="10" stroke-linecap="round" stroke-linejoin="round"/>
<path d="M170.286 419.962L173.417 417.822" stroke="white" stroke-width="2" stroke-miterlimit="10" stroke-linecap="round" stroke-linejoin="round"/>
<path d="M137.613 497.201L141.047 496.159" stroke="white" stroke-width="2" stroke-miterlimit="10" stroke-linecap="round" stroke-linejoin="round"/>
<path d="M134.28 494.13L135.744 489.961" stroke="white" stroke-width="2" stroke-miterlimit="10" stroke-linecap="round" stroke-linejoin="round"/>
<path d="M136.3 495.227L139.229 491.771" stroke="white" stroke-width="2" stroke-miterlimit="10" stroke-linecap="round" stroke-linejoin="round"/>
<path d="M71.8614 535.493L71.0029 539.224" stroke="white" stroke-width="2" stroke-miterlimit="10" stroke-linecap="round" stroke-linejoin="round"/>
<path d="M68.9325 531.982L65.145 533.683" stroke="white" stroke-width="2" stroke-miterlimit="10" stroke-linecap="round" stroke-linejoin="round"/>
<path d="M69.9931 534.121L66.9126 537.413" stroke="white" stroke-width="2" stroke-miterlimit="10" stroke-linecap="round" stroke-linejoin="round"/>
<path d="M131.451 415.463H135.037" stroke="white" stroke-width="2" stroke-miterlimit="10" stroke-linecap="round" stroke-linejoin="round"/>
<path d="M129.028 411.514L131.452 407.894" stroke="white" stroke-width="2" stroke-miterlimit="10" stroke-linecap="round" stroke-linejoin="round"/>
<path d="M130.694 413.159L134.381 410.636" stroke="white" stroke-width="2" stroke-miterlimit="10" stroke-linecap="round" stroke-linejoin="round"/>
<path d="M374.458 386.993L376.175 383.317" stroke="white" stroke-width="2" stroke-miterlimit="10" stroke-linecap="round" stroke-linejoin="round"/>
<path d="M370.62 387.541L368.802 383.317" stroke="white" stroke-width="2" stroke-miterlimit="10" stroke-linecap="round" stroke-linejoin="round"/>
<path d="M372.336 386.992V381.122" stroke="white" stroke-width="2" stroke-miterlimit="10" stroke-linecap="round" stroke-linejoin="round"/>
<path d="M426.523 497.311L426.069 493.252" stroke="white" stroke-width="2" stroke-miterlimit="10" stroke-linecap="round" stroke-linejoin="round"/>
<path d="M423.645 500.109L420.009 497.695" stroke="white" stroke-width="2" stroke-miterlimit="10" stroke-linecap="round" stroke-linejoin="round"/>
<path d="M424.756 498.627L421.776 493.745" stroke="white" stroke-width="2" stroke-miterlimit="10" stroke-linecap="round" stroke-linejoin="round"/>
<path d="M160.237 381.232C160.237 381.232 164.681 378.874 168.771 383.372" stroke="white" stroke-width="2" stroke-miterlimit="10" stroke-linecap="round" stroke-linejoin="round"/>
<path d="M114.938 748.342H357.338" stroke="#4E5A7D" stroke-width="6" stroke-miterlimit="10" stroke-linecap="round" stroke-linejoin="round"/>
<path d="M371.226 748.342H388.648" stroke="#4E5A7D" stroke-width="6" stroke-miterlimit="10" stroke-linecap="round" stroke-linejoin="round"/>
<path d="M402.788 748.342H412.08" stroke="#4E5A7D" stroke-width="6" stroke-miterlimit="10" stroke-linecap="round" stroke-linejoin="round"/>
</g>
<path d="M74.0582 135H68.4332L78.6747 105.909H85.1804L95.4361 135H89.8111L82.0412 111.875H81.8139L74.0582 135ZM74.2429 123.594H89.5838V127.827H74.2429V123.594ZM104.183 105.909V135H99.0405V105.909H104.183ZM114.612 105.909V135H109.47V105.909H114.612ZM133.124 120.767V125H120.028V120.767H133.124ZM144.03 105.909V135H138.76V105.909H144.03ZM154.651 122.216V135H149.509V113.182H154.424V116.889H154.68C155.182 115.668 155.982 114.697 157.08 113.977C158.188 113.258 159.557 112.898 161.185 112.898C162.691 112.898 164.003 113.22 165.12 113.864C166.247 114.508 167.118 115.44 167.734 116.662C168.359 117.884 168.666 119.366 168.657 121.108V135H163.515V121.903C163.515 120.445 163.136 119.304 162.379 118.48C161.63 117.656 160.594 117.244 159.268 117.244C158.368 117.244 157.568 117.443 156.867 117.841C156.176 118.229 155.631 118.793 155.234 119.531C154.845 120.27 154.651 121.165 154.651 122.216ZM187.109 120.767V125H174.012V120.767H187.109ZM218.739 120.455C218.739 123.589 218.152 126.274 216.977 128.509C215.813 130.734 214.222 132.438 212.205 133.622C210.197 134.806 207.92 135.398 205.372 135.398C202.825 135.398 200.543 134.806 198.526 133.622C196.518 132.429 194.927 130.72 193.753 128.494C192.588 126.259 192.006 123.58 192.006 120.455C192.006 117.32 192.588 114.64 193.753 112.415C194.927 110.18 196.518 108.471 198.526 107.287C200.543 106.103 202.825 105.511 205.372 105.511C207.92 105.511 210.197 106.103 212.205 107.287C214.222 108.471 215.813 110.18 216.977 112.415C218.152 114.64 218.739 117.32 218.739 120.455ZM213.44 120.455C213.44 118.248 213.095 116.387 212.403 114.872C211.722 113.348 210.775 112.197 209.562 111.42C208.35 110.634 206.954 110.241 205.372 110.241C203.791 110.241 202.394 110.634 201.182 111.42C199.97 112.197 199.018 113.348 198.327 114.872C197.645 116.387 197.304 118.248 197.304 120.455C197.304 122.661 197.645 124.527 198.327 126.051C199.018 127.566 199.97 128.717 201.182 129.503C202.394 130.279 203.791 130.668 205.372 130.668C206.954 130.668 208.35 130.279 209.562 129.503C210.775 128.717 211.722 127.566 212.403 126.051C213.095 124.527 213.44 122.661 213.44 120.455ZM228.636 122.216V135H223.494V113.182H228.408V116.889H228.664C229.166 115.668 229.966 114.697 231.065 113.977C232.173 113.258 233.541 112.898 235.17 112.898C236.675 112.898 237.987 113.22 239.104 113.864C240.231 114.508 241.103 115.44 241.718 116.662C242.343 117.884 242.651 119.366 242.641 121.108V135H237.499V121.903C237.499 120.445 237.121 119.304 236.363 118.48C235.615 117.656 234.578 117.244 233.252 117.244C232.353 117.244 231.552 117.443 230.852 117.841C230.16 118.229 229.616 118.793 229.218 119.531C228.83 120.27 228.636 121.165 228.636 122.216ZM257.528 135.426C255.34 135.426 253.451 134.972 251.86 134.062C250.279 133.144 249.062 131.847 248.21 130.17C247.357 128.485 246.931 126.501 246.931 124.219C246.931 121.974 247.357 120.005 248.21 118.31C249.071 116.605 250.274 115.279 251.817 114.332C253.361 113.376 255.174 112.898 257.258 112.898C258.603 112.898 259.871 113.116 261.065 113.551C262.267 113.977 263.328 114.64 264.246 115.54C265.174 116.439 265.904 117.585 266.434 118.977C266.964 120.36 267.229 122.008 267.229 123.92V125.497H249.346V122.031H262.3C262.291 121.046 262.078 120.17 261.661 119.403C261.245 118.627 260.662 118.016 259.914 117.571C259.175 117.126 258.314 116.903 257.329 116.903C256.278 116.903 255.354 117.159 254.559 117.67C253.763 118.172 253.143 118.835 252.698 119.659C252.263 120.473 252.04 121.368 252.031 122.344V125.369C252.031 126.638 252.263 127.727 252.727 128.636C253.191 129.536 253.839 130.227 254.673 130.71C255.506 131.184 256.481 131.42 257.599 131.42C258.347 131.42 259.024 131.316 259.63 131.108C260.236 130.89 260.762 130.573 261.207 130.156C261.652 129.74 261.988 129.223 262.215 128.608L267.016 129.148C266.713 130.417 266.136 131.525 265.283 132.472C264.441 133.409 263.361 134.138 262.045 134.659C260.728 135.17 259.223 135.426 257.528 135.426ZM281.729 135V105.909H292.638C294.873 105.909 296.748 106.326 298.263 107.159C299.787 107.992 300.938 109.138 301.714 110.597C302.5 112.045 302.893 113.693 302.893 115.54C302.893 117.405 302.5 119.062 301.714 120.511C300.929 121.96 299.768 123.101 298.234 123.935C296.7 124.759 294.811 125.17 292.567 125.17H285.337V120.838H291.857C293.163 120.838 294.233 120.611 295.067 120.156C295.9 119.702 296.516 119.077 296.913 118.281C297.321 117.486 297.524 116.572 297.524 115.54C297.524 114.508 297.321 113.598 296.913 112.812C296.516 112.027 295.895 111.416 295.053 110.98C294.219 110.535 293.144 110.312 291.828 110.312H286.999V135H281.729ZM312.386 105.909V135H307.244V105.909H312.386ZM323.952 135.44C322.569 135.44 321.324 135.194 320.216 134.702C319.117 134.2 318.246 133.461 317.602 132.486C316.968 131.51 316.651 130.308 316.651 128.878C316.651 127.647 316.878 126.629 317.332 125.824C317.787 125.019 318.407 124.375 319.193 123.892C319.979 123.409 320.865 123.045 321.849 122.798C322.844 122.543 323.871 122.358 324.932 122.244C326.21 122.112 327.247 121.993 328.043 121.889C328.838 121.776 329.416 121.605 329.776 121.378C330.145 121.141 330.33 120.777 330.33 120.284V120.199C330.33 119.129 330.012 118.3 329.378 117.713C328.743 117.126 327.83 116.832 326.636 116.832C325.377 116.832 324.378 117.107 323.639 117.656C322.91 118.205 322.418 118.854 322.162 119.602L317.361 118.92C317.74 117.595 318.365 116.487 319.236 115.597C320.107 114.697 321.172 114.025 322.432 113.58C323.691 113.125 325.083 112.898 326.608 112.898C327.659 112.898 328.705 113.021 329.747 113.267C330.789 113.513 331.741 113.92 332.602 114.489C333.464 115.047 334.155 115.81 334.676 116.776C335.206 117.741 335.472 118.949 335.472 120.398V135H330.528V132.003H330.358C330.045 132.609 329.605 133.177 329.037 133.707C328.478 134.228 327.773 134.65 326.92 134.972C326.078 135.284 325.088 135.44 323.952 135.44ZM325.287 131.662C326.319 131.662 327.214 131.458 327.972 131.051C328.729 130.634 329.312 130.085 329.719 129.403C330.135 128.722 330.344 127.978 330.344 127.173V124.602C330.183 124.735 329.908 124.858 329.52 124.972C329.141 125.085 328.715 125.185 328.241 125.27C327.768 125.355 327.299 125.431 326.835 125.497C326.371 125.563 325.969 125.62 325.628 125.668C324.861 125.772 324.174 125.942 323.568 126.179C322.962 126.416 322.484 126.747 322.134 127.173C321.783 127.59 321.608 128.13 321.608 128.793C321.608 129.74 321.954 130.455 322.645 130.938C323.336 131.42 324.217 131.662 325.287 131.662ZM351.537 113.182V117.159H338.994V113.182H351.537ZM342.091 107.955H347.233V128.438C347.233 129.129 347.337 129.659 347.545 130.028C347.763 130.388 348.047 130.634 348.398 130.767C348.748 130.9 349.136 130.966 349.562 130.966C349.884 130.966 350.178 130.942 350.443 130.895C350.718 130.848 350.926 130.805 351.068 130.767L351.935 134.787C351.66 134.882 351.267 134.986 350.756 135.099C350.254 135.213 349.638 135.279 348.909 135.298C347.621 135.336 346.461 135.142 345.429 134.716C344.397 134.28 343.578 133.608 342.972 132.699C342.375 131.79 342.081 130.653 342.091 129.29V107.955ZM366.888 113.182V117.159H353.991V113.182H366.888ZM357.215 135V111.122C357.215 109.654 357.518 108.433 358.124 107.457C358.74 106.482 359.564 105.753 360.596 105.27C361.628 104.787 362.774 104.545 364.033 104.545C364.924 104.545 365.714 104.616 366.406 104.759C367.097 104.901 367.608 105.028 367.94 105.142L366.917 109.119C366.699 109.053 366.424 108.987 366.093 108.92C365.762 108.845 365.392 108.807 364.985 108.807C364.029 108.807 363.352 109.039 362.954 109.503C362.566 109.957 362.371 110.611 362.371 111.463V135H357.215ZM379.612 135.426C377.482 135.426 375.635 134.957 374.072 134.02C372.51 133.082 371.298 131.771 370.436 130.085C369.584 128.4 369.158 126.43 369.158 124.176C369.158 121.922 369.584 119.948 370.436 118.253C371.298 116.558 372.51 115.241 374.072 114.304C375.635 113.366 377.482 112.898 379.612 112.898C381.743 112.898 383.589 113.366 385.152 114.304C386.714 115.241 387.922 116.558 388.774 118.253C389.636 119.948 390.067 121.922 390.067 124.176C390.067 126.43 389.636 128.4 388.774 130.085C387.922 131.771 386.714 133.082 385.152 134.02C383.589 134.957 381.743 135.426 379.612 135.426ZM379.641 131.307C380.796 131.307 381.762 130.99 382.538 130.355C383.315 129.711 383.893 128.849 384.271 127.77C384.66 126.69 384.854 125.488 384.854 124.162C384.854 122.827 384.66 121.619 384.271 120.54C383.893 119.451 383.315 118.584 382.538 117.94C381.762 117.296 380.796 116.974 379.641 116.974C378.457 116.974 377.472 117.296 376.686 117.94C375.91 118.584 375.327 119.451 374.939 120.54C374.56 121.619 374.371 122.827 374.371 124.162C374.371 125.488 374.56 126.69 374.939 127.77C375.327 128.849 375.91 129.711 376.686 130.355C377.472 130.99 378.457 131.307 379.641 131.307ZM394.431 135V113.182H399.417V116.818H399.644C400.042 115.559 400.724 114.588 401.69 113.906C402.665 113.215 403.778 112.869 405.028 112.869C405.312 112.869 405.629 112.884 405.979 112.912C406.339 112.931 406.638 112.964 406.874 113.011V117.741C406.656 117.666 406.311 117.599 405.837 117.543C405.373 117.476 404.924 117.443 404.488 117.443C403.55 117.443 402.708 117.647 401.96 118.054C401.221 118.452 400.638 119.006 400.212 119.716C399.786 120.426 399.573 121.245 399.573 122.173V135H394.431ZM410.29 135V113.182H415.205V116.889H415.461C415.915 115.639 416.668 114.664 417.719 113.963C418.771 113.253 420.025 112.898 421.484 112.898C422.961 112.898 424.206 113.258 425.219 113.977C426.242 114.687 426.962 115.658 427.379 116.889H427.606C428.089 115.677 428.903 114.711 430.049 113.991C431.204 113.262 432.573 112.898 434.154 112.898C436.162 112.898 437.8 113.532 439.069 114.801C440.338 116.07 440.972 117.921 440.972 120.355V135H435.816V121.151C435.816 119.796 435.456 118.807 434.737 118.182C434.017 117.547 433.136 117.23 432.094 117.23C430.854 117.23 429.883 117.618 429.183 118.395C428.491 119.162 428.146 120.161 428.146 121.392V135H423.103V120.938C423.103 119.811 422.762 118.911 422.08 118.239C421.408 117.566 420.527 117.23 419.438 117.23C418.7 117.23 418.027 117.42 417.421 117.798C416.815 118.168 416.332 118.693 415.972 119.375C415.612 120.047 415.433 120.833 415.433 121.733V135H410.29Z" fill="black"/>
<defs>
<clipPath id="clip0_193_2">
<rect width="505" height="708" fill="white" transform="translate(0 124)"/>
</clipPath>
</defs>
</svg>
