<svg width="505" height="832" viewBox="0 0 505 832" fill="none" xmlns="http://www.w3.org/2000/svg">
<g clip-path="url(#clip0_653_82)">
<path d="M87.3144 534.56L84.9409 534.889C82.7694 535.218 80.7999 533.572 80.4969 531.214L77.3154 505.65C77.0124 503.291 78.5274 501.151 80.6989 500.822L83.0724 500.493C85.2439 500.164 87.2134 501.81 87.5164 504.169L90.6979 529.732C91.0009 532.091 89.4859 534.231 87.3144 534.56Z" fill="white"/>
<path d="M76.4571 530.665C74.2856 530.994 72.3161 529.349 72.0131 526.99L70.1951 512.178C69.8921 509.819 71.4071 507.68 73.5786 507.35C75.7501 507.021 77.7196 508.667 78.0226 511.026L79.8406 525.783C80.1436 528.142 78.6286 530.336 76.4571 530.665Z" fill="white"/>
<path d="M124.432 529.128L126.805 528.799C128.977 528.47 130.492 526.331 130.189 523.972L127.007 498.408C126.704 496.049 124.735 494.403 122.563 494.732L120.19 495.061C118.018 495.391 116.503 497.53 116.806 499.889L119.988 525.453C120.291 527.812 122.26 529.457 124.432 529.128Z" fill="white"/>
<path d="M133.977 522.218C136.148 521.889 137.663 519.749 137.36 517.39L135.542 502.633C135.239 500.275 133.27 498.629 131.098 498.958C128.927 499.287 127.412 501.427 127.715 503.785L129.533 518.542C129.785 520.901 131.805 522.547 133.977 522.218Z" fill="white"/>
<path d="M89.6926 521.32L118.972 517.042L117.882 508.234L88.6018 512.512L89.6926 521.32Z" fill="white"/>
<path d="M87.3144 534.56L84.9409 534.889C82.7694 535.218 80.7999 533.572 80.4969 531.214L77.3154 505.65C77.0124 503.291 78.5274 501.151 80.6989 500.822L83.0724 500.493C85.2439 500.164 87.2134 501.81 87.5164 504.169L90.6979 529.732C91.0009 532.091 89.4859 534.231 87.3144 534.56Z" stroke="#2F2E41" stroke-width="3" stroke-miterlimit="10" stroke-linecap="round" stroke-linejoin="round"/>
<path d="M76.4571 530.665C74.2856 530.994 72.3161 529.349 72.0131 526.99L70.1951 512.178C69.8921 509.819 71.4071 507.68 73.5786 507.35C75.7501 507.021 77.7196 508.667 78.0226 511.026L79.8406 525.783C80.1436 528.142 78.6286 530.336 76.4571 530.665Z" stroke="#2F2E41" stroke-width="3" stroke-miterlimit="10" stroke-linecap="round" stroke-linejoin="round"/>
<path d="M124.432 529.128L126.805 528.799C128.977 528.47 130.492 526.331 130.189 523.972L127.007 498.408C126.704 496.049 124.735 494.403 122.563 494.732L120.19 495.061C118.018 495.391 116.503 497.53 116.806 499.889L119.988 525.453C120.291 527.812 122.26 529.457 124.432 529.128Z" stroke="#2F2E41" stroke-width="3" stroke-miterlimit="10" stroke-linecap="round" stroke-linejoin="round"/>
<path d="M133.977 522.218C136.148 521.889 137.663 519.749 137.36 517.39L135.542 502.633C135.239 500.275 133.27 498.629 131.098 498.958C128.927 499.287 127.412 501.427 127.715 503.785L129.533 518.542C129.785 520.901 131.805 522.547 133.977 522.218Z" stroke="#2F2E41" stroke-width="3" stroke-miterlimit="10" stroke-linecap="round" stroke-linejoin="round"/>
<path d="M89.6926 521.32L118.972 517.042L117.882 508.234L88.6018 512.512L89.6926 521.32Z" stroke="#2F2E41" stroke-width="3" stroke-miterlimit="10" stroke-linecap="round" stroke-linejoin="round"/>
<path d="M275.932 400.98H249.47C246.692 400.98 244.42 398.512 244.42 395.495V359.672C244.42 356.655 246.692 354.187 249.47 354.187H275.932C278.709 354.187 280.982 356.655 280.982 359.672V395.495C280.982 398.512 278.709 400.98 275.932 400.98Z" fill="white"/>
<path d="M275.932 400.98H249.47C246.692 400.98 244.42 398.512 244.42 395.495V359.672C244.42 356.655 246.692 354.187 249.47 354.187H275.932C278.709 354.187 280.982 356.655 280.982 359.672V395.495C280.982 398.512 278.709 400.98 275.932 400.98Z" stroke="#2F2E41" stroke-width="3" stroke-miterlimit="10" stroke-linecap="round" stroke-linejoin="round"/>
<path d="M278.507 410.909C284.113 410.909 288.658 405.973 288.658 399.883C288.658 393.793 284.113 388.856 278.507 388.856C272.901 388.856 268.357 393.793 268.357 399.883C268.357 405.973 272.901 410.909 278.507 410.909Z" fill="white"/>
<path d="M278.507 410.909C284.113 410.909 288.658 405.973 288.658 399.883C288.658 393.793 284.113 388.856 278.507 388.856C272.901 388.856 268.357 393.793 268.357 399.883C268.357 405.973 272.901 410.909 278.507 410.909Z" stroke="#2F2E41" stroke-width="3" stroke-miterlimit="10" stroke-linecap="round" stroke-linejoin="round"/>
<path d="M273.861 399.774L277.043 403.23L283.153 396.537" stroke="#2F2E41" stroke-width="4" stroke-miterlimit="10" stroke-linecap="round" stroke-linejoin="round"/>
<path d="M265.933 351.279V346.726C265.933 344.751 264.468 343.16 262.65 343.16C260.832 343.16 259.368 344.751 259.368 346.726V351.279H255.782V352.705V357.478H269.518V352.705V351.279H265.933Z" fill="white"/>
<path d="M265.933 351.718V347.494C265.933 345.683 264.468 344.202 262.65 344.202C260.832 344.202 259.368 345.683 259.368 347.494V351.718H255.782V353.034V357.478H269.518V353.034V351.718H265.933Z" stroke="#2F2E41" stroke-width="3" stroke-miterlimit="10" stroke-linecap="round" stroke-linejoin="round"/>
<path d="M254.167 370.754H272.953" stroke="#2F2E41" stroke-width="3" stroke-miterlimit="10" stroke-linecap="round" stroke-linejoin="round"/>
<path d="M254.167 377.557H272.953" stroke="#2F2E41" stroke-width="3" stroke-miterlimit="10" stroke-linecap="round" stroke-linejoin="round"/>
<path d="M257.601 384.14H269.519" stroke="#2F2E41" stroke-width="3" stroke-miterlimit="10" stroke-linecap="round" stroke-linejoin="round"/>
<path d="M372.336 395.878L367.387 390.282C362.59 384.851 354.611 384.742 349.914 390.282C345.369 395.659 343.905 405.478 350.066 416.395C356.277 427.312 372.286 434.717 372.286 434.717C372.286 434.717 388.345 427.312 394.506 416.395C400.717 405.478 399.253 395.659 394.657 390.282C389.961 384.742 381.982 384.851 377.184 390.282L372.336 395.878Z" fill="white"/>
<path d="M372.336 395.878L367.387 390.282C362.59 384.851 354.611 384.742 349.914 390.282C345.369 395.659 343.905 405.478 350.066 416.395C356.277 427.312 372.286 434.717 372.286 434.717C372.286 434.717 388.345 427.312 394.506 416.395C400.717 405.478 399.253 395.659 394.657 390.282C389.961 384.742 381.982 384.851 377.184 390.282L372.336 395.878Z" stroke="#2F2E41" stroke-width="3" stroke-miterlimit="10" stroke-linecap="round" stroke-linejoin="round"/>
<path d="M355.217 413.598H363.196L367.085 402.517L372.337 421.991L376.074 413.104L378.952 417.987L382.79 402.517L386.325 412.281H390.719" stroke="#2F2E41" stroke-width="3" stroke-miterlimit="10" stroke-linecap="round" stroke-linejoin="round"/>
<path d="M403.646 475.093C403.646 475.093 392.233 504.442 392.233 515.962C392.233 527.483 393.142 530.609 393.142 530.609C393.142 530.609 417.938 534.559 431.674 527.537C445.46 520.516 449.399 510.751 449.399 510.751C449.399 510.751 449.248 493.8 440.259 492.703C436.572 492.264 431.371 492.977 429.502 498.243C426.927 505.484 428.745 508.173 428.745 508.173C426.624 505.868 423.19 502.632 416.322 502.632C409.454 502.632 405.818 510.751 405.818 510.751L406.323 487.162L418.544 486.01L420.816 475.093L413.544 465.877L403.646 475.093Z" fill="white"/>
<path d="M403.646 475.093C403.646 475.093 392.233 504.442 392.233 515.962C392.233 527.483 393.142 530.609 393.142 530.609C393.142 530.609 417.938 534.559 431.674 527.537C445.46 520.516 449.399 510.751 449.399 510.751C449.399 510.751 449.248 493.8 440.259 492.703C436.572 492.264 431.371 492.977 429.502 498.243C426.927 505.484 428.745 508.173 428.745 508.173C426.624 505.868 423.19 502.632 416.322 502.632C409.454 502.632 405.818 510.751 405.818 510.751L406.323 487.162L418.544 486.01L420.816 475.093L413.544 465.877L403.646 475.093Z" stroke="#2F2E41" stroke-width="3" stroke-miterlimit="10" stroke-linecap="round" stroke-linejoin="round"/>
<path d="M413.646 517.828C413.646 517.828 420.059 520.516 426.069 517.828" stroke="#2F2E41" stroke-width="3" stroke-miterlimit="10" stroke-linecap="round" stroke-linejoin="round"/>
<path d="M398.849 518.979V525.398H403.647" stroke="#2F2E41" stroke-width="3" stroke-miterlimit="10" stroke-linecap="round" stroke-linejoin="round"/>
<path d="M123.876 412.226C123.876 412.226 137.259 383.865 156.449 378.269C159.58 377.337 166.145 376.294 171.195 380.464C176.649 385.017 178.669 394.562 175.235 401.474C170.185 411.568 155.287 411.952 150.995 406.686C149.429 404.766 149.48 402.352 149.53 401.748C149.631 396.153 155.641 390.667 160.893 391.49C163.923 391.984 165.842 394.452 166.044 394.672C169.882 399.774 168.316 409.703 162.357 419.632" stroke="#2F2E41" stroke-width="3" stroke-miterlimit="10" stroke-linecap="round" stroke-linejoin="round"/>
<path d="M127.058 413.488L120.544 410.197C119.332 409.593 117.716 410.636 116.908 412.501C116.1 414.366 116.453 416.396 117.615 416.999L118.019 417.219L112.413 428.19C110.747 431.427 111.201 435.157 113.373 436.254C115.544 437.352 118.473 435.267 119.635 431.811L123.725 420.071L124.129 420.291C125.341 420.894 126.957 419.852 127.765 417.987C128.624 416.121 128.27 414.147 127.058 413.488Z" fill="white"/>
<path d="M127.058 413.488L120.544 410.197C119.332 409.593 117.716 410.636 116.908 412.501C116.1 414.366 116.453 416.396 117.615 416.999L118.019 417.219L112.413 428.19C110.747 431.427 111.201 435.157 113.373 436.254C115.544 437.352 118.473 435.267 119.635 431.811L123.725 420.071L124.129 420.291C125.341 420.894 126.957 419.852 127.765 417.987C128.624 416.121 128.27 414.147 127.058 413.488Z" stroke="#2F2E41" stroke-width="3" stroke-miterlimit="10" stroke-linecap="round" stroke-linejoin="round"/>
<path d="M166.095 418.644L159.227 416.34C157.964 415.901 156.5 417.163 155.944 419.138C155.389 421.113 155.944 423.088 157.257 423.472L157.661 423.636L153.52 435.321C152.308 438.777 153.217 442.398 155.49 443.166C157.762 443.934 160.388 441.465 161.146 437.844L163.721 425.611L164.125 425.776C165.388 426.215 166.852 424.953 167.408 422.978C167.963 421.003 167.357 419.083 166.095 418.644Z" fill="white"/>
<path d="M166.095 418.644L159.227 416.34C157.964 415.901 156.5 417.163 155.944 419.138C155.389 421.113 155.944 423.088 157.257 423.472L157.661 423.636L153.52 435.321C152.308 438.777 153.217 442.398 155.49 443.166C157.762 443.934 160.388 441.465 161.146 437.844L163.721 425.611L164.125 425.776C165.388 426.215 166.852 424.953 167.408 422.978C167.963 421.003 167.357 419.083 166.095 418.644Z" stroke="#2F2E41" stroke-width="3" stroke-miterlimit="10" stroke-linecap="round" stroke-linejoin="round"/>
<path d="M283.558 354.68H287.244" stroke="white" stroke-width="2" stroke-miterlimit="10" stroke-linecap="round" stroke-linejoin="round"/>
<path d="M281.032 350.566L283.557 346.836" stroke="white" stroke-width="2" stroke-miterlimit="10" stroke-linecap="round" stroke-linejoin="round"/>
<path d="M282.8 352.266L286.588 349.688" stroke="white" stroke-width="2" stroke-miterlimit="10" stroke-linecap="round" stroke-linejoin="round"/>
<path d="M170.892 421.937H173.973" stroke="white" stroke-width="2" stroke-miterlimit="10" stroke-linecap="round" stroke-linejoin="round"/>
<path d="M168.822 418.535L170.892 415.463" stroke="white" stroke-width="2" stroke-miterlimit="10" stroke-linecap="round" stroke-linejoin="round"/>
<path d="M170.286 419.962L173.417 417.822" stroke="white" stroke-width="2" stroke-miterlimit="10" stroke-linecap="round" stroke-linejoin="round"/>
<path d="M137.613 497.201L141.047 496.159" stroke="white" stroke-width="2" stroke-miterlimit="10" stroke-linecap="round" stroke-linejoin="round"/>
<path d="M134.28 494.13L135.744 489.961" stroke="white" stroke-width="2" stroke-miterlimit="10" stroke-linecap="round" stroke-linejoin="round"/>
<path d="M136.3 495.227L139.229 491.771" stroke="white" stroke-width="2" stroke-miterlimit="10" stroke-linecap="round" stroke-linejoin="round"/>
<path d="M71.8614 535.493L71.0029 539.224" stroke="white" stroke-width="2" stroke-miterlimit="10" stroke-linecap="round" stroke-linejoin="round"/>
<path d="M68.9325 531.982L65.145 533.683" stroke="white" stroke-width="2" stroke-miterlimit="10" stroke-linecap="round" stroke-linejoin="round"/>
<path d="M69.9931 534.121L66.9126 537.413" stroke="white" stroke-width="2" stroke-miterlimit="10" stroke-linecap="round" stroke-linejoin="round"/>
<path d="M131.451 415.463H135.037" stroke="white" stroke-width="2" stroke-miterlimit="10" stroke-linecap="round" stroke-linejoin="round"/>
<path d="M129.028 411.514L131.452 407.894" stroke="white" stroke-width="2" stroke-miterlimit="10" stroke-linecap="round" stroke-linejoin="round"/>
<path d="M130.694 413.159L134.381 410.636" stroke="white" stroke-width="2" stroke-miterlimit="10" stroke-linecap="round" stroke-linejoin="round"/>
<path d="M374.458 386.993L376.175 383.317" stroke="white" stroke-width="2" stroke-miterlimit="10" stroke-linecap="round" stroke-linejoin="round"/>
<path d="M370.62 387.541L368.802 383.317" stroke="white" stroke-width="2" stroke-miterlimit="10" stroke-linecap="round" stroke-linejoin="round"/>
<path d="M372.336 386.992V381.122" stroke="white" stroke-width="2" stroke-miterlimit="10" stroke-linecap="round" stroke-linejoin="round"/>
<path d="M426.523 497.311L426.069 493.252" stroke="white" stroke-width="2" stroke-miterlimit="10" stroke-linecap="round" stroke-linejoin="round"/>
<path d="M423.645 500.109L420.009 497.695" stroke="white" stroke-width="2" stroke-miterlimit="10" stroke-linecap="round" stroke-linejoin="round"/>
<path d="M424.756 498.627L421.776 493.745" stroke="white" stroke-width="2" stroke-miterlimit="10" stroke-linecap="round" stroke-linejoin="round"/>
<path d="M160.237 381.232C160.237 381.232 164.681 378.874 168.771 383.372" stroke="white" stroke-width="2" stroke-miterlimit="10" stroke-linecap="round" stroke-linejoin="round"/>
<path d="M10.4396 733.65C12.3475 713.103 17.6169 693.008 26.0375 674.169C28.3844 668.926 30.9675 663.799 33.7868 658.787C33.9282 658.525 33.9623 658.218 33.8818 657.931C33.8014 657.644 33.6127 657.4 33.3555 657.25C33.0984 657.1 32.793 657.055 32.5036 657.125C32.2143 657.196 31.9637 657.376 31.8047 657.628C21.5519 675.883 14.3691 695.699 10.5435 716.283C9.47938 722.031 8.67953 727.82 8.14406 733.65C8.00799 735.12 10.3044 735.111 10.4396 733.65Z" fill="#E6E6E6"/>
<path d="M39.3466 662.468C47.3759 662.468 53.8849 655.959 53.8849 647.93C53.8849 639.901 47.3759 633.392 39.3466 633.392C31.3173 633.392 24.8082 639.901 24.8082 647.93C24.8082 655.959 31.3173 662.468 39.3466 662.468Z" fill="#F9A826"/>
<path d="M11.9267 734.036C13.1644 720.706 16.5829 707.67 22.0457 695.448C23.5683 692.047 25.244 688.72 27.0731 685.469C27.1648 685.299 27.1869 685.1 27.1347 684.914C27.0825 684.728 26.96 684.569 26.7932 684.472C26.6264 684.374 26.4283 684.346 26.2406 684.391C26.0529 684.437 25.8904 684.554 25.7872 684.717C19.1357 696.56 14.4759 709.415 11.9941 722.769C11.3037 726.499 10.7849 730.254 10.4375 734.036C10.3492 734.99 11.8389 734.984 11.9267 734.036Z" fill="#E6E6E6"/>
<path d="M30.68 687.858C35.889 687.858 40.1117 683.635 40.1117 678.426C40.1117 673.217 35.889 668.994 30.68 668.994C25.4711 668.994 21.2484 673.217 21.2484 678.426C21.2484 683.635 25.4711 687.858 30.68 687.858Z" fill="#F9A826"/>
<path d="M10.0471 733.146C2.82431 721.874 -2.49829 709.493 -5.70817 696.496C-6.59965 692.878 -7.32422 689.225 -7.88192 685.536C-7.91413 685.345 -8.01909 685.175 -8.17467 685.06C-8.33026 684.946 -8.52431 684.896 -8.71583 684.922C-8.90736 684.947 -9.08136 685.047 -9.2012 685.198C-9.32103 685.35 -9.37733 685.542 -9.35813 685.734C-7.31875 699.163 -3.08608 712.165 3.1706 724.221C4.91993 727.586 6.8207 730.866 8.87286 734.062C9.38995 734.868 10.5609 733.947 10.0471 733.146Z" fill="#E6E6E6"/>
<path d="M-9.36988 687.195C-4.1609 687.195 0.0618153 682.973 0.0618153 677.764C0.0618153 672.555 -4.1609 668.332 -9.36988 668.332C-14.5789 668.332 -18.8016 672.555 -18.8016 677.764C-18.8016 682.973 -14.5789 687.195 -9.36988 687.195Z" fill="#F9A826"/>
<path d="M-18.9075 741.49V722.959C-18.9055 721.117 -18.1726 719.35 -16.8698 718.047C-15.5671 716.745 -13.8007 716.012 -11.9583 716.01H31.2811C33.1235 716.012 34.8898 716.745 36.1926 718.047C37.4954 719.35 38.2282 721.117 38.2303 722.959V741.49C38.2282 743.333 37.4954 745.099 36.1926 746.402C34.8898 747.704 33.1235 748.437 31.2811 748.439H-11.9583C-13.8007 748.437 -15.5671 747.704 -16.8698 746.402C-18.1726 745.099 -18.9055 743.333 -18.9075 741.49Z" fill="#F2F2F2"/>
<path d="M445.531 763.118C445.531 773.275 437.297 777.892 427.14 777.892C416.984 777.892 408.75 773.275 408.75 763.118C408.75 752.961 412.837 741.111 427.14 745.197C441.444 739.067 445.531 752.961 445.531 763.118Z" fill="#FF6584"/>
<path d="M426.245 749.954C425.529 749.955 424.838 749.695 424.301 749.224C423.763 748.752 423.416 748.101 423.324 747.392C422.715 742.324 419.359 732.4 417.944 728.369L417.944 728.367C417.801 727.967 417.757 727.537 417.816 727.116C417.876 726.694 418.036 726.294 418.284 725.948C418.521 725.639 418.821 725.384 419.164 725.199C419.507 725.014 419.885 724.904 420.274 724.876C420.662 724.848 421.053 724.903 421.418 725.036C421.784 725.17 422.118 725.379 422.397 725.651C422.646 725.913 422.839 726.222 422.964 726.561C423.088 726.901 423.141 727.262 423.12 727.622C422.843 732.796 426.615 741.157 428.888 745.681C429.102 746.108 429.21 746.58 429.202 747.057C429.194 747.535 429.069 748.003 428.84 748.422C428.611 748.84 428.283 749.197 427.885 749.461C427.487 749.725 427.031 749.888 426.556 749.937C426.453 749.949 426.349 749.954 426.245 749.954Z" fill="#3F3D56"/>
<path d="M439.853 738.54C446.237 733.315 441.228 722.623 433.238 724.675C432.163 724.932 431.172 725.461 430.36 726.211C425.459 730.841 424.699 742.687 424.699 742.687C424.699 742.687 433.354 743.859 439.853 738.54Z" fill="#3F3D56"/>
<path d="M549.909 751.689H-38.4557C-38.8653 751.689 -39.2581 751.526 -39.5477 751.237C-39.8373 750.947 -40 750.554 -40 750.145C-40 749.735 -39.8373 749.343 -39.5477 749.053C-39.2581 748.763 -38.8653 748.601 -38.4557 748.601H549.909C550.319 748.601 550.712 748.763 551.001 749.053C551.291 749.343 551.454 749.735 551.454 750.145C551.454 750.554 551.291 750.947 551.001 751.237C550.712 751.526 550.319 751.689 549.909 751.689Z" fill="#3F3D56"/>
<path d="M267.4 549.39C290.428 549.39 309.095 530.723 309.095 507.695C309.095 484.668 290.428 466 267.4 466C244.372 466 225.705 484.668 225.705 507.695C225.705 530.723 244.372 549.39 267.4 549.39Z" fill="#2F2E41"/>
<path d="M227.783 775.356L226.679 756.458L299.053 743.2L300.683 771.096L227.783 775.356Z" fill="#FFB8B8"/>
<path d="M231.289 742.641L233.42 779.091L210.47 780.432L206.998 721.032C210.012 720.856 213.031 721.275 215.883 722.266C218.734 723.256 221.363 724.799 223.619 726.805C225.875 728.812 227.713 731.243 229.029 733.96C230.345 736.677 231.113 739.627 231.289 742.641Z" fill="#2F2E41"/>
<path d="M259.262 775.183L247.24 789.808L185.104 750.4L202.847 728.814L259.262 775.183Z" fill="#FFB8B8"/>
<path d="M234.474 796.822L257.658 768.615L275.418 783.212L237.636 829.18C235.304 827.263 233.372 824.905 231.951 822.241C230.53 819.578 229.647 816.66 229.354 813.656C229.06 810.651 229.361 807.618 230.24 804.73C231.118 801.841 232.557 799.154 234.474 796.822Z" fill="#2F2E41"/>
<path d="M224.667 707.168L216.451 745.896C216.262 746.788 216.273 747.71 216.482 748.598C216.692 749.485 217.095 750.315 217.663 751.027C218.231 751.74 218.95 752.319 219.768 752.721C220.586 753.123 221.483 753.34 222.394 753.354L303.156 754.657C304.067 754.672 304.969 754.485 305.799 754.11C306.628 753.735 307.365 753.182 307.956 752.489C308.547 751.796 308.977 750.981 309.216 750.103C309.455 749.224 309.497 748.304 309.339 747.407L302.275 707.376C302.022 705.946 301.274 704.651 300.162 703.717C299.049 702.784 297.644 702.272 296.191 702.272H230.709C229.293 702.272 227.921 702.759 226.821 703.65C225.721 704.541 224.96 705.783 224.667 707.168Z" fill="#2F2E41"/>
<path d="M238.059 720.804C238.059 720.804 159.301 671.387 143.859 697.64C136.137 710.766 139.998 723.506 145.789 732.965C151.163 741.577 158.877 748.482 168.03 752.872L231.882 784.118L255.046 759.41L239.603 745.512L238.059 720.804Z" fill="#2F2E41"/>
<path d="M278.21 713.082C278.21 713.082 380.132 683.741 360.056 739.334C339.981 794.928 264.312 773.308 264.312 773.308L256.59 750.144L282.843 731.613L278.21 713.082Z" fill="#2F2E41"/>
<path d="M267.923 555.146C288.87 555.146 305.852 538.164 305.852 517.217C305.852 496.269 288.87 479.288 267.923 479.288C246.975 479.288 229.994 496.269 229.994 517.217C229.994 538.164 246.975 555.146 267.923 555.146Z" fill="#FFB8B8"/>
<path d="M269.91 719.21C254.15 718.972 238.47 716.906 223.185 713.054L222.734 712.931L201.569 615.573C199.665 607.018 200.959 598.061 205.208 590.395C209.456 582.73 216.365 576.885 224.629 573.965C250.155 564.806 277.977 564.251 303.849 572.383C312.53 575.181 319.838 581.148 324.313 589.096C328.788 597.043 330.103 606.385 327.994 615.259L304.354 712.849L304.021 713.008C294.197 717.662 281.911 719.21 269.91 719.21Z" fill="#CCCCCC"/>
<path d="M241.48 726.775C242.249 724.638 243.476 722.697 245.077 721.086C246.677 719.476 248.611 718.236 250.742 717.454C252.873 716.672 255.15 716.367 257.412 716.56C259.674 716.753 261.866 717.439 263.834 718.571L305.508 682.397L309.279 710.825L269.126 740.818C267.005 743.998 263.792 746.29 260.095 747.259C256.397 748.228 252.473 747.807 249.065 746.076C245.658 744.345 243.003 741.424 241.605 737.867C240.207 734.309 240.163 730.363 241.48 726.775Z" fill="#FFB8B8"/>
<path d="M281.226 734.664C280.548 734.664 279.874 734.565 279.224 734.37C278.17 734.063 277.204 733.508 276.408 732.752C275.612 731.995 275.009 731.058 274.649 730.021L269.619 715.77C269.148 714.452 269.088 713.024 269.447 711.672C269.807 710.32 270.568 709.109 271.63 708.199L328.411 674.111L306.028 574.257L306.597 574.119C306.829 574.062 329.762 568.843 339.159 593.902C345.74 611.453 370.093 649.615 368.375 675.403C368.049 680.561 365.993 685.459 362.541 689.306C359.088 693.152 354.44 695.722 349.347 696.602L285.432 733.221C284.229 734.154 282.749 734.662 281.226 734.664Z" fill="#CCCCCC"/>
<path d="M287.594 723.386C286.826 721.25 285.598 719.308 283.998 717.698C282.398 716.087 280.464 714.848 278.333 714.066C276.201 713.283 273.925 712.978 271.663 713.171C269.401 713.364 267.209 714.051 265.241 715.182L223.566 679.009L219.796 707.436L259.948 737.429C262.069 740.609 265.282 742.901 268.98 743.87C272.677 744.839 276.601 744.418 280.009 742.687C283.417 740.956 286.071 738.035 287.469 734.478C288.867 730.921 288.912 726.974 287.594 723.386Z" fill="#FFB8B8"/>
<path d="M252.03 734.665C250.507 734.663 249.027 734.155 247.823 733.222L179.276 699.691C174.183 698.812 169.535 696.241 166.082 692.395C162.63 688.548 160.574 683.651 160.248 678.492C158.53 652.704 187.516 611.454 194.096 593.903C203.493 568.843 226.427 574.061 226.658 574.12L227.228 574.257L200.212 677.2L261.626 708.2C262.688 709.109 263.449 710.32 263.808 711.672C264.167 713.024 264.108 714.453 263.637 715.77L258.606 730.022C258.247 731.059 257.644 731.995 256.848 732.752C256.052 733.509 255.086 734.064 254.032 734.371C253.382 734.565 252.708 734.664 252.03 734.665Z" fill="#CCCCCC"/>
<path d="M333.804 750.145H196.364C193.498 750.142 190.75 749.002 188.724 746.975C186.697 744.949 185.557 742.201 185.554 739.335V663.666C185.557 660.8 186.697 658.053 188.724 656.026C190.75 654 193.498 652.86 196.364 652.856H333.804C336.669 652.86 339.417 654 341.444 656.026C343.47 658.053 344.61 660.8 344.613 663.666V739.335C344.61 742.201 343.47 744.949 341.443 746.975C339.417 749.002 336.669 750.142 333.804 750.145Z" fill="#F9A826"/>
<path d="M265.084 710.767C270.201 710.767 274.349 706.618 274.349 701.501C274.349 696.384 270.201 692.235 265.084 692.235C259.966 692.235 255.818 696.384 255.818 701.501C255.818 706.618 259.966 710.767 265.084 710.767Z" fill="white"/>
<path d="M229.614 515.672C227.366 509.97 231.055 503.175 236.526 500.413C241.997 497.651 248.6 498.176 254.452 499.997C259.37 501.526 263.98 503.897 268.778 505.77C273.509 507.866 278.676 508.786 283.839 508.452C288.957 507.874 294.051 505.004 296.146 500.298C298.316 495.421 296.84 489.468 293.497 485.305C289.94 481.281 285.336 478.322 280.198 476.758C268.913 472.783 255.879 472.666 245.402 478.445C234.926 484.224 227.806 496.529 229.972 508.296" fill="#2F2E41"/>
</g>
<path d="M74.0582 135H68.4332L78.6747 105.909H85.1804L95.4361 135H89.8111L82.0412 111.875H81.8139L74.0582 135ZM74.2429 123.594H89.5838V127.827H74.2429V123.594ZM104.183 105.909V135H99.0405V105.909H104.183ZM114.612 105.909V135H109.47V105.909H114.612ZM133.124 120.767V125H120.028V120.767H133.124ZM144.03 105.909V135H138.76V105.909H144.03ZM154.651 122.216V135H149.509V113.182H154.424V116.889H154.68C155.182 115.668 155.982 114.697 157.08 113.977C158.188 113.258 159.557 112.898 161.185 112.898C162.691 112.898 164.003 113.22 165.12 113.864C166.247 114.508 167.118 115.44 167.734 116.662C168.359 117.884 168.666 119.366 168.657 121.108V135H163.515V121.903C163.515 120.445 163.136 119.304 162.379 118.48C161.63 117.656 160.594 117.244 159.268 117.244C158.368 117.244 157.568 117.443 156.867 117.841C156.176 118.229 155.631 118.793 155.234 119.531C154.845 120.27 154.651 121.165 154.651 122.216ZM187.109 120.767V125H174.012V120.767H187.109ZM218.739 120.455C218.739 123.589 218.152 126.274 216.977 128.509C215.813 130.734 214.222 132.438 212.205 133.622C210.197 134.806 207.92 135.398 205.372 135.398C202.825 135.398 200.543 134.806 198.526 133.622C196.518 132.429 194.927 130.72 193.753 128.494C192.588 126.259 192.006 123.58 192.006 120.455C192.006 117.32 192.588 114.64 193.753 112.415C194.927 110.18 196.518 108.471 198.526 107.287C200.543 106.103 202.825 105.511 205.372 105.511C207.92 105.511 210.197 106.103 212.205 107.287C214.222 108.471 215.813 110.18 216.977 112.415C218.152 114.64 218.739 117.32 218.739 120.455ZM213.44 120.455C213.44 118.248 213.095 116.387 212.403 114.872C211.722 113.348 210.775 112.197 209.562 111.42C208.35 110.634 206.954 110.241 205.372 110.241C203.791 110.241 202.394 110.634 201.182 111.42C199.97 112.197 199.018 113.348 198.327 114.872C197.645 116.387 197.304 118.248 197.304 120.455C197.304 122.661 197.645 124.527 198.327 126.051C199.018 127.566 199.97 128.717 201.182 129.503C202.394 130.279 203.791 130.668 205.372 130.668C206.954 130.668 208.35 130.279 209.562 129.503C210.775 128.717 211.722 127.566 212.403 126.051C213.095 124.527 213.44 122.661 213.44 120.455ZM228.636 122.216V135H223.494V113.182H228.408V116.889H228.664C229.166 115.668 229.966 114.697 231.065 113.977C232.173 113.258 233.541 112.898 235.17 112.898C236.675 112.898 237.987 113.22 239.104 113.864C240.231 114.508 241.103 115.44 241.718 116.662C242.343 117.884 242.651 119.366 242.641 121.108V135H237.499V121.903C237.499 120.445 237.121 119.304 236.363 118.48C235.615 117.656 234.578 117.244 233.252 117.244C232.353 117.244 231.552 117.443 230.852 117.841C230.16 118.229 229.616 118.793 229.218 119.531C228.83 120.27 228.636 121.165 228.636 122.216ZM257.528 135.426C255.34 135.426 253.451 134.972 251.86 134.062C250.279 133.144 249.062 131.847 248.21 130.17C247.357 128.485 246.931 126.501 246.931 124.219C246.931 121.974 247.357 120.005 248.21 118.31C249.071 116.605 250.274 115.279 251.817 114.332C253.361 113.376 255.174 112.898 257.258 112.898C258.603 112.898 259.871 113.116 261.065 113.551C262.267 113.977 263.328 114.64 264.246 115.54C265.174 116.439 265.904 117.585 266.434 118.977C266.964 120.36 267.229 122.008 267.229 123.92V125.497H249.346V122.031H262.3C262.291 121.046 262.078 120.17 261.661 119.403C261.245 118.627 260.662 118.016 259.914 117.571C259.175 117.126 258.314 116.903 257.329 116.903C256.278 116.903 255.354 117.159 254.559 117.67C253.763 118.172 253.143 118.835 252.698 119.659C252.263 120.473 252.04 121.368 252.031 122.344V125.369C252.031 126.638 252.263 127.727 252.727 128.636C253.191 129.536 253.839 130.227 254.673 130.71C255.506 131.184 256.481 131.42 257.599 131.42C258.347 131.42 259.024 131.316 259.63 131.108C260.236 130.89 260.762 130.573 261.207 130.156C261.652 129.74 261.988 129.223 262.215 128.608L267.016 129.148C266.713 130.417 266.136 131.525 265.283 132.472C264.441 133.409 263.361 134.138 262.045 134.659C260.728 135.17 259.223 135.426 257.528 135.426ZM281.729 135V105.909H292.638C294.873 105.909 296.748 106.326 298.263 107.159C299.787 107.992 300.938 109.138 301.714 110.597C302.5 112.045 302.893 113.693 302.893 115.54C302.893 117.405 302.5 119.062 301.714 120.511C300.929 121.96 299.768 123.101 298.234 123.935C296.7 124.759 294.811 125.17 292.567 125.17H285.337V120.838H291.857C293.163 120.838 294.233 120.611 295.067 120.156C295.9 119.702 296.516 119.077 296.913 118.281C297.321 117.486 297.524 116.572 297.524 115.54C297.524 114.508 297.321 113.598 296.913 112.812C296.516 112.027 295.895 111.416 295.053 110.98C294.219 110.535 293.144 110.312 291.828 110.312H286.999V135H281.729ZM312.386 105.909V135H307.244V105.909H312.386ZM323.952 135.44C322.569 135.44 321.324 135.194 320.216 134.702C319.117 134.2 318.246 133.461 317.602 132.486C316.968 131.51 316.651 130.308 316.651 128.878C316.651 127.647 316.878 126.629 317.332 125.824C317.787 125.019 318.407 124.375 319.193 123.892C319.979 123.409 320.865 123.045 321.849 122.798C322.844 122.543 323.871 122.358 324.932 122.244C326.21 122.112 327.247 121.993 328.043 121.889C328.838 121.776 329.416 121.605 329.776 121.378C330.145 121.141 330.33 120.777 330.33 120.284V120.199C330.33 119.129 330.012 118.3 329.378 117.713C328.743 117.126 327.83 116.832 326.636 116.832C325.377 116.832 324.378 117.107 323.639 117.656C322.91 118.205 322.418 118.854 322.162 119.602L317.361 118.92C317.74 117.595 318.365 116.487 319.236 115.597C320.107 114.697 321.172 114.025 322.432 113.58C323.691 113.125 325.083 112.898 326.608 112.898C327.659 112.898 328.705 113.021 329.747 113.267C330.789 113.513 331.741 113.92 332.602 114.489C333.464 115.047 334.155 115.81 334.676 116.776C335.206 117.741 335.472 118.949 335.472 120.398V135H330.528V132.003H330.358C330.045 132.609 329.605 133.177 329.037 133.707C328.478 134.228 327.773 134.65 326.92 134.972C326.078 135.284 325.088 135.44 323.952 135.44ZM325.287 131.662C326.319 131.662 327.214 131.458 327.972 131.051C328.729 130.634 329.312 130.085 329.719 129.403C330.135 128.722 330.344 127.978 330.344 127.173V124.602C330.183 124.735 329.908 124.858 329.52 124.972C329.141 125.085 328.715 125.185 328.241 125.27C327.768 125.355 327.299 125.431 326.835 125.497C326.371 125.563 325.969 125.62 325.628 125.668C324.861 125.772 324.174 125.942 323.568 126.179C322.962 126.416 322.484 126.747 322.134 127.173C321.783 127.59 321.608 128.13 321.608 128.793C321.608 129.74 321.954 130.455 322.645 130.938C323.336 131.42 324.217 131.662 325.287 131.662ZM351.537 113.182V117.159H338.994V113.182H351.537ZM342.091 107.955H347.233V128.438C347.233 129.129 347.337 129.659 347.545 130.028C347.763 130.388 348.047 130.634 348.398 130.767C348.748 130.9 349.136 130.966 349.562 130.966C349.884 130.966 350.178 130.942 350.443 130.895C350.718 130.848 350.926 130.805 351.068 130.767L351.935 134.787C351.66 134.882 351.267 134.986 350.756 135.099C350.254 135.213 349.638 135.279 348.909 135.298C347.621 135.336 346.461 135.142 345.429 134.716C344.397 134.28 343.578 133.608 342.972 132.699C342.375 131.79 342.081 130.653 342.091 129.29V107.955ZM366.888 113.182V117.159H353.991V113.182H366.888ZM357.215 135V111.122C357.215 109.654 357.518 108.433 358.124 107.457C358.74 106.482 359.564 105.753 360.596 105.27C361.628 104.787 362.774 104.545 364.033 104.545C364.924 104.545 365.714 104.616 366.406 104.759C367.097 104.901 367.608 105.028 367.94 105.142L366.917 109.119C366.699 109.053 366.424 108.987 366.093 108.92C365.762 108.845 365.392 108.807 364.985 108.807C364.029 108.807 363.352 109.039 362.954 109.503C362.566 109.957 362.371 110.611 362.371 111.463V135H357.215ZM379.612 135.426C377.482 135.426 375.635 134.957 374.072 134.02C372.51 133.082 371.298 131.771 370.436 130.085C369.584 128.4 369.158 126.43 369.158 124.176C369.158 121.922 369.584 119.948 370.436 118.253C371.298 116.558 372.51 115.241 374.072 114.304C375.635 113.366 377.482 112.898 379.612 112.898C381.743 112.898 383.589 113.366 385.152 114.304C386.714 115.241 387.922 116.558 388.774 118.253C389.636 119.948 390.067 121.922 390.067 124.176C390.067 126.43 389.636 128.4 388.774 130.085C387.922 131.771 386.714 133.082 385.152 134.02C383.589 134.957 381.743 135.426 379.612 135.426ZM379.641 131.307C380.796 131.307 381.762 130.99 382.538 130.355C383.315 129.711 383.893 128.849 384.271 127.77C384.66 126.69 384.854 125.488 384.854 124.162C384.854 122.827 384.66 121.619 384.271 120.54C383.893 119.451 383.315 118.584 382.538 117.94C381.762 117.296 380.796 116.974 379.641 116.974C378.457 116.974 377.472 117.296 376.686 117.94C375.91 118.584 375.327 119.451 374.939 120.54C374.56 121.619 374.371 122.827 374.371 124.162C374.371 125.488 374.56 126.69 374.939 127.77C375.327 128.849 375.91 129.711 376.686 130.355C377.472 130.99 378.457 131.307 379.641 131.307ZM394.431 135V113.182H399.417V116.818H399.644C400.042 115.559 400.724 114.588 401.69 113.906C402.665 113.215 403.778 112.869 405.028 112.869C405.312 112.869 405.629 112.884 405.979 112.912C406.339 112.931 406.638 112.964 406.874 113.011V117.741C406.656 117.666 406.311 117.599 405.837 117.543C405.373 117.476 404.924 117.443 404.488 117.443C403.55 117.443 402.708 117.647 401.96 118.054C401.221 118.452 400.638 119.006 400.212 119.716C399.786 120.426 399.573 121.245 399.573 122.173V135H394.431ZM410.29 135V113.182H415.205V116.889H415.461C415.915 115.639 416.668 114.664 417.719 113.963C418.771 113.253 420.025 112.898 421.484 112.898C422.961 112.898 424.206 113.258 425.219 113.977C426.242 114.687 426.962 115.658 427.379 116.889H427.606C428.089 115.677 428.903 114.711 430.049 113.991C431.204 113.262 432.573 112.898 434.154 112.898C436.162 112.898 437.8 113.532 439.069 114.801C440.338 116.07 440.972 117.921 440.972 120.355V135H435.816V121.151C435.816 119.796 435.456 118.807 434.737 118.182C434.017 117.547 433.136 117.23 432.094 117.23C430.854 117.23 429.883 117.618 429.183 118.395C428.491 119.162 428.146 120.161 428.146 121.392V135H423.103V120.938C423.103 119.811 422.762 118.911 422.08 118.239C421.408 117.566 420.527 117.23 419.438 117.23C418.7 117.23 418.027 117.42 417.421 117.798C416.815 118.168 416.332 118.693 415.972 119.375C415.612 120.047 415.433 120.833 415.433 121.733V135H410.29Z" fill="url(#paint0_linear_653_82)"/>
<defs>
<linearGradient id="paint0_linear_653_82" x1="55.5" y1="91.5" x2="463" y2="135" gradientUnits="userSpaceOnUse">
<stop stop-color="#F5A623"/>
<stop offset="0.372917" stop-color="#B4C455"/>
<stop offset="0.591667" stop-color="#75E086"/>
<stop offset="0.789583" stop-color="#5CF8DC"/>
<stop offset="1" stop-color="#1E5E52"/>
</linearGradient>
<clipPath id="clip0_653_82">
<rect width="505" height="708" fill="white" transform="translate(0 124)"/>
</clipPath>
</defs>
</svg>
