<svg width="406" height="384" viewBox="0 0 406 384" fill="none" xmlns="http://www.w3.org/2000/svg">
<g clip-path="url(#clip0_222_1766)">
<path d="M318.058 301.503C318.841 301.793 319.688 301.866 320.51 301.715C321.331 301.565 322.097 301.196 322.727 300.648L330.115 294.206C331.043 293.395 331.612 292.249 331.696 291.019C331.78 289.789 331.372 288.577 330.563 287.647L276.859 226.083C276.048 225.155 274.901 224.586 273.672 224.502C272.442 224.418 271.229 224.825 270.299 225.635L262.911 232.077C261.983 232.888 261.414 234.034 261.33 235.263C261.246 236.493 261.653 237.705 262.463 238.635L316.167 300.2C316.677 300.786 317.328 301.235 318.058 301.503Z" fill="#F9A826"/>
<path d="M244.247 233.758C244.73 233.758 245.21 233.682 245.671 233.535C246.253 233.351 246.793 233.053 247.259 232.659C247.726 232.265 248.11 231.782 248.388 231.239L252.881 222.528C253.444 221.432 253.55 220.157 253.175 218.983C252.8 217.809 251.974 216.832 250.879 216.266L178.256 178.832C177.16 178.268 175.885 178.163 174.71 178.538C173.536 178.913 172.559 179.739 171.993 180.834L167.501 189.545C166.937 190.641 166.831 191.916 167.206 193.089C167.582 194.263 168.407 195.24 169.503 195.806L242.125 233.24C242.781 233.58 243.508 233.758 244.247 233.758Z" fill="#F9A826"/>
<path d="M245.556 235.866C246.42 235.865 247.267 235.625 248.002 235.172C248.738 234.719 249.333 234.07 249.721 233.298L254.119 224.539C254.616 223.551 254.744 222.419 254.479 221.345C254.45 221.227 254.416 221.108 254.377 220.99C254.288 220.723 254.192 220.306 254.08 219.822C253.724 218.282 253.28 216.364 252.376 215.91L220.466 196.573C219.368 196.014 218.092 195.913 216.92 196.294C215.748 196.674 214.775 197.505 214.215 198.603L214.202 198.629L206.152 215.217C205.602 216.319 205.511 217.594 205.899 218.763C206.287 219.932 207.123 220.899 208.224 221.453L243.507 235.38C244.143 235.699 244.844 235.866 245.556 235.866Z" fill="#2F2E41"/>
<path d="M258.803 192.875C278.435 192.875 294.351 176.963 294.351 157.335C294.351 137.707 278.435 121.795 258.803 121.795C239.17 121.795 223.255 137.707 223.255 157.335C223.255 176.963 239.17 192.875 258.803 192.875Z" fill="#F9A826"/>
<path d="M265.732 383.013H275.535C276.768 383.012 277.95 382.521 278.821 381.65C279.693 380.779 280.183 379.597 280.185 378.365V295.348C280.183 294.115 279.693 292.934 278.821 292.062C277.95 291.191 276.768 290.701 275.535 290.699H265.732C264.499 290.701 263.318 291.191 262.446 292.062C261.574 292.934 261.084 294.115 261.083 295.348V378.365C261.084 379.597 261.574 380.779 262.446 381.65C263.318 382.521 264.499 383.012 265.732 383.013Z" fill="#F9A826"/>
<path d="M223.493 344.375C224.234 344.377 224.964 344.201 225.623 343.863C226.282 343.525 226.851 343.035 227.282 342.432L274.805 275.982C275.521 274.979 275.809 273.733 275.607 272.517C275.405 271.301 274.729 270.215 273.727 269.497L265.752 263.797C264.749 263.081 263.502 262.792 262.286 262.994C261.07 263.196 259.984 263.872 259.266 264.874L211.743 331.324C211.027 332.327 210.738 333.574 210.94 334.789C211.143 336.005 211.819 337.091 212.821 337.809L220.795 343.51C221.582 344.073 222.526 344.376 223.493 344.375Z" fill="#F9A826"/>
<path d="M236.101 381.779C237.078 381.763 238.039 381.522 238.909 381.077L247.685 376.709C249.98 375.566 251.244 373.427 250.504 371.94L227.885 326.518C227.145 325.031 224.675 324.751 222.38 325.893L213.604 330.261C212.581 330.746 211.711 331.502 211.088 332.447C210.818 332.814 210.648 333.246 210.595 333.698C210.541 334.151 210.607 334.61 210.785 335.03L233.403 380.451C233.837 381.322 234.863 381.779 236.101 381.779Z" fill="#F9A826"/>
<path d="M278.765 261.265C279.594 261.568 280.491 261.629 281.352 261.443C282.214 261.256 283.006 260.83 283.635 260.212L296.935 247.453C297.37 247.025 297.716 246.516 297.955 245.954C298.193 245.392 298.318 244.788 298.323 244.178C298.328 243.568 298.213 242.962 297.983 242.396C297.754 241.831 297.416 241.315 296.988 240.88L296.984 240.877L268.717 216.443C268.027 215.74 266.065 215.91 264.489 216.045C263.995 216.088 263.568 216.124 263.285 216.122C263.162 216.121 263.038 216.126 262.917 216.134C261.813 216.213 260.775 216.684 259.988 217.461L253.007 224.341C252.13 225.208 251.633 226.386 251.624 227.619C251.615 228.851 252.096 230.037 252.96 230.915L277.04 260.144C277.525 260.641 278.114 261.024 278.765 261.265Z" fill="#2F2E41"/>
<path d="M241.708 170.507L241.745 169.179C239.274 169.11 237.095 168.955 235.458 167.759C234.994 167.401 234.612 166.947 234.339 166.428C234.067 165.909 233.909 165.338 233.876 164.752C233.848 164.395 233.902 164.035 234.035 163.702C234.167 163.368 234.375 163.07 234.642 162.83C235.729 161.913 237.478 162.21 238.752 162.794L239.851 163.298L237.744 147.898L236.427 148.078L238.22 161.178C236.488 160.669 234.884 160.888 233.785 161.816C233.363 162.184 233.031 162.645 232.817 163.163C232.603 163.68 232.511 164.24 232.549 164.799C232.588 165.586 232.798 166.354 233.165 167.051C233.532 167.747 234.048 168.355 234.674 168.832C236.778 170.369 239.512 170.446 241.708 170.507Z" fill="#2F2E41"/>
<path d="M229.919 149.208H222.764V150.536H229.919V149.208Z" fill="#2F2E41"/>
<path d="M252.502 149.208H245.347V150.536H252.502V149.208Z" fill="#2F2E41"/>
<path d="M209.65 332.952L248.427 221.212C247.175 219.521 246.336 216.459 246.334 212.95V209.977C246.337 204.645 248.268 200.324 250.651 200.318H265.264C267.647 200.324 269.579 204.645 269.581 209.977V212.95C269.579 216.814 268.562 220.138 267.096 221.683L286.782 296.128C287.163 296.784 287.365 297.529 287.367 298.288C287.368 299.047 287.169 299.792 286.79 300.449C286.41 301.107 285.864 301.652 285.206 302.03C284.548 302.408 283.801 302.606 283.042 302.603L213.389 339.427C212.631 339.427 211.886 339.227 211.23 338.848C210.574 338.469 210.029 337.925 209.65 337.268C209.271 336.612 209.071 335.868 209.071 335.11C209.071 334.353 209.271 333.608 209.65 332.952Z" fill="#2F2E41"/>
<path d="M138.547 193.989C131.787 190.213 126.784 183.929 124.621 176.495C110.943 181.804 96.1834 183.729 81.6008 182.105C67.0181 180.48 53.0443 175.356 40.8703 167.167C-0.774338 139.157 -11.862 82.4969 16.1539 40.8612C44.1697 -0.774554 100.843 -11.8587 142.487 16.1502C184.028 44.09 195.163 100.538 167.412 142.144C170.858 144.052 173.892 146.623 176.338 149.709C178.785 152.795 180.595 156.336 181.666 160.125C182.717 163.877 183.019 167.799 182.554 171.667C182.09 175.535 180.867 179.274 178.957 182.67C177.047 186.066 174.487 189.053 171.423 191.46C168.358 193.866 164.849 195.646 161.097 196.697C157.346 197.758 153.421 198.065 149.551 197.6C145.68 197.135 141.94 195.908 138.547 193.989Z" fill="white"/>
<path d="M141.859 186.446C137.132 183.487 133.705 178.845 132.268 173.458C131.988 172.461 131.503 171.534 130.843 170.736C130.182 169.938 129.362 169.288 128.435 168.827C127.508 168.365 126.494 168.104 125.459 168.059C124.425 168.014 123.392 168.186 122.428 168.565L121.977 168.742C103.539 175.986 83.1147 176.384 64.4084 169.864C45.7021 163.344 29.9522 150.337 20.0149 133.203C10.0776 116.069 6.61083 95.9424 10.2433 76.4721C13.8758 57.0018 24.367 39.4776 39.8144 27.0774C55.2617 14.6773 74.6424 8.22218 94.4419 8.88278C114.241 9.54339 133.148 17.2759 147.735 30.6782C162.321 44.0804 171.62 62.2649 173.946 81.934C176.272 101.603 171.471 121.454 160.413 137.888L160.144 138.288C159.565 139.147 159.174 140.119 158.994 141.139C158.815 142.159 158.851 143.205 159.101 144.21C159.352 145.216 159.81 146.157 160.446 146.974C161.083 147.791 161.884 148.466 162.798 148.954C165.435 150.334 167.766 152.23 169.654 154.53C171.542 156.831 172.948 159.487 173.787 162.342C174.66 165.459 174.817 168.733 174.247 171.919C173.677 175.105 172.394 178.121 170.495 180.743C168.055 184.142 164.661 186.74 160.743 188.209C158.291 189.138 155.691 189.615 153.069 189.618C149.111 189.615 145.231 188.517 141.859 186.446Z" fill="#F0F0F0"/>
<path d="M138.213 194.584C137.178 194.002 136.177 193.361 135.216 192.665C124.88 185.168 112.685 181.696 100.88 182.885C79.5997 185.013 58.2432 179.654 40.4895 167.733C-1.46697 139.513 -12.6379 82.428 15.5878 40.4806C43.8133 -1.46649 100.911 -12.6353 142.868 15.5845C160.247 27.306 173.094 44.6178 179.274 64.6455C185.455 84.6732 184.599 106.212 176.847 125.686C175.107 129.968 174.39 134.597 174.753 139.205C175.116 143.813 176.549 148.273 178.938 152.23C181.391 156.213 182.89 160.708 183.318 165.366C183.746 170.023 183.09 174.716 181.404 179.079C179.717 183.441 177.044 187.355 173.594 190.513C170.144 193.672 166.01 195.99 161.515 197.287C158.763 198.084 155.912 198.49 153.046 198.492C147.849 198.481 142.741 197.135 138.213 194.584ZM17.2856 41.6226C6.61345 57.4829 1.29183 76.3385 2.09767 95.4367C2.9035 114.535 9.79462 132.876 21.7649 147.781C33.7351 162.686 50.1577 173.375 68.6349 178.288C87.112 183.201 106.676 182.08 124.471 175.089L125.525 174.674L125.83 175.765C127.856 182.993 132.671 189.121 139.216 192.801C145.76 196.48 153.499 197.409 160.729 195.384C167.959 193.359 174.088 188.545 177.768 182.002C181.448 175.458 182.378 167.722 180.352 160.493C179.315 156.819 177.548 153.392 175.158 150.416C172.767 147.439 169.802 144.974 166.438 143.167L165.44 142.634L166.072 141.694C179.336 121.968 184.221 97.783 179.652 74.4568C175.084 51.1306 161.436 30.5734 141.709 17.3059C121.983 4.03834 97.7943 -0.85324 74.4614 3.70681C51.1286 8.26687 30.5624 21.9052 17.2856 41.6226Z" fill="#3F3D56"/>
<path d="M129.081 102.346C134.948 102.346 139.704 97.5912 139.704 91.7252C139.704 85.8593 134.948 81.104 129.081 81.104C123.213 81.104 118.457 85.8593 118.457 91.7252C118.457 97.5912 123.213 102.346 129.081 102.346Z" fill="#F9A826"/>
<path d="M92.8355 102.346C98.7027 102.346 103.459 97.5912 103.459 91.7252C103.459 85.8593 98.7027 81.104 92.8355 81.104C86.9683 81.104 82.2119 85.8593 82.2119 91.7252C82.2119 97.5912 86.9683 102.346 92.8355 102.346Z" fill="#F9A826"/>
<path d="M56.5904 102.346C62.4576 102.346 67.214 97.5912 67.214 91.7252C67.214 85.8593 62.4576 81.104 56.5904 81.104C50.7231 81.104 45.9668 85.8593 45.9668 91.7252C45.9668 97.5912 50.7231 102.346 56.5904 102.346Z" fill="#F9A826"/>
<path d="M274.839 141.804C273.714 139.32 271.079 138.29 268.485 138.18C265.156 138.039 262.089 139.469 259.078 140.706C255.968 141.983 252.784 143.024 249.377 142.762C246.355 142.524 243.444 141.517 240.921 139.837C238.432 138.218 236.431 135.953 235.129 133.285C233.828 130.618 233.276 127.646 233.533 124.689C234.079 118.81 237.515 113.168 242.99 110.68C246.101 109.281 249.552 108.818 252.922 109.347C256.291 109.876 259.434 111.374 261.967 113.659L260.221 114.382C259.494 107.126 263.441 100.226 268.978 95.7973C274.82 91.126 282.292 88.4255 289.617 87.227C297.145 85.9056 304.885 86.4879 312.131 88.9208C318.162 91.068 323.661 94.4876 328.253 98.9474C333.025 103.566 336.743 109.161 339.151 115.349C341.559 121.538 342.602 128.174 342.206 134.802C341.784 141.812 339.917 148.66 336.724 154.915C333.537 161.032 329.177 166.461 323.891 170.893C313.37 179.856 300.331 185.15 287.484 189.831C285.886 190.414 284.285 190.99 282.681 191.559C281.439 192.002 280.904 190.026 282.137 189.586C294.532 185.167 307.148 180.575 317.971 172.915C323.331 169.213 327.996 164.594 331.752 159.272C335.565 153.694 338.178 147.385 339.426 140.744C341.311 131.391 340.101 121.679 335.978 113.074C331.855 104.469 325.044 97.4393 316.573 93.0458C310.451 89.9459 303.653 88.4184 296.793 88.6011C289.347 88.7358 282.032 90.5923 275.423 94.0251C269.301 97.2624 263.967 102.444 262.506 109.436C262.173 111.063 262.093 112.731 262.267 114.382C262.361 115.317 261.114 115.659 260.52 115.105C258.416 113.226 255.838 111.956 253.064 111.432C250.291 110.909 247.428 111.152 244.782 112.135C239.53 114.082 236.042 119.315 235.568 124.807C235.328 127.55 235.878 130.305 237.154 132.746C238.429 135.187 240.377 137.211 242.766 138.581C245.161 140.011 247.9 140.765 250.69 140.76C253.947 140.729 256.947 139.381 259.907 138.165C263.07 136.866 266.279 135.783 269.74 136.251C272.582 136.636 275.376 138.057 276.606 140.772C277.145 141.962 275.382 143.003 274.839 141.804Z" fill="#2F2E41"/>
<path d="M100.102 384H405.188C405.403 384 405.609 383.914 405.761 383.761C405.912 383.609 405.998 383.403 405.998 383.188C405.998 382.973 405.912 382.767 405.761 382.615C405.609 382.463 405.403 382.377 405.188 382.376H100.102C99.8868 382.377 99.6808 382.463 99.529 382.615C99.3772 382.767 99.292 382.973 99.292 383.188C99.292 383.403 99.3772 383.609 99.529 383.761C99.6808 383.914 99.8868 384 100.102 384Z" fill="#DCDCDC"/>
</g>
<defs>
<clipPath id="clip0_222_1766">
<rect width="406" height="384" fill="white"/>
</clipPath>
</defs>
</svg>
