<svg width="1430" height="818" viewBox="0 0 1430 818" fill="none" xmlns="http://www.w3.org/2000/svg">
<g clip-path="url(#clip0_653_85)">
<path d="M472.934 33.792L478.22 456.808L706.632 564.732L701.346 141.717L472.934 33.792Z" fill="#F2F2F2"/>
<path d="M403.524 0L232.85 339.874L464.431 449.297L459.145 26.2809L403.524 0Z" fill="#F2F2F2"/>
<path d="M1430 477.464L969.03 259.656L974.316 682.671L1259.32 817.338L1430 477.464Z" fill="#F2F2F2"/>
<path d="M721.994 141.717L727.28 564.732L955.693 672.657L950.407 249.642L721.994 141.717Z" fill="#F2F2F2"/>
<path d="M801.385 479.381L794.933 619.585C794.933 619.585 811.71 752.279 807.838 756.035C803.966 759.79 793.642 767.301 801.385 776.064C809.128 784.827 837.52 791.086 838.811 786.079C840.101 781.071 842.682 638.363 842.682 638.363L851.716 469.366L801.385 479.381Z" fill="#2F2E41"/>
<path opacity="0.2" d="M801.385 479.381L794.933 619.585C794.933 619.585 811.71 752.279 807.838 756.035C803.966 759.79 793.642 767.301 801.385 776.064C809.128 784.827 837.52 791.086 838.811 786.079C840.101 781.071 842.682 638.363 842.682 638.363L851.716 469.366L801.385 479.381Z" fill="black"/>
<path d="M807.838 773.561C807.838 773.561 775.575 797.345 771.703 797.345C767.832 797.345 732.987 808.612 757.507 813.619C782.028 818.626 841.392 816.123 842.683 808.612C843.973 801.101 838.811 778.307 838.811 778.307L807.838 773.561Z" fill="#2F2E41"/>
<path opacity="0.2" d="M807.838 773.561C807.838 773.561 775.575 797.345 771.703 797.345C767.832 797.345 732.987 808.612 757.507 813.619C782.028 818.626 841.392 816.123 842.683 808.612C843.973 801.101 838.811 778.307 838.811 778.307L807.838 773.561Z" fill="black"/>
<path d="M727.825 374.227C727.825 374.227 713.629 379.234 713.629 382.989C713.629 386.745 700.724 434.314 698.143 436.818C695.562 439.322 694.271 450.588 694.271 450.588C694.271 450.588 681.366 479.38 683.947 479.38C686.528 479.38 708.467 474.373 709.757 479.38C711.048 484.387 721.372 448.084 721.372 448.084L743.311 405.522L727.825 374.227Z" fill="#F9A826"/>
<path d="M683.947 484.388C683.947 484.388 687.818 511.928 698.143 514.432C708.467 516.936 698.143 479.381 698.143 479.381L683.947 484.388Z" fill="#FFB8B8"/>
<path d="M717.501 359.205C717.501 359.205 725.244 375.479 729.116 384.241C732.987 393.004 769.122 361.709 769.122 361.709C769.122 361.709 749.764 347.938 749.764 341.679C749.764 335.42 717.501 359.205 717.501 359.205Z" fill="#FFB8B8"/>
<path d="M345.232 766.118C353.887 797.152 383.532 816.372 383.532 816.372C383.532 816.372 399.144 785.276 390.489 754.243C381.834 723.209 352.19 703.989 352.19 703.989C352.19 703.989 336.577 735.085 345.232 766.118Z" fill="#3F3D56"/>
<path d="M357.95 759.449C381.699 781.875 384.599 816.347 384.599 816.347C384.599 816.347 348.996 814.462 325.247 792.036C301.498 769.611 298.597 735.139 298.597 735.139C298.597 735.139 334.201 737.024 357.95 759.449Z" fill="#F9A826"/>
<path d="M652.974 817.374C629.747 817.374 607.041 810.693 587.729 798.175C568.416 785.658 553.364 767.867 544.475 747.051C535.586 726.236 533.261 703.331 537.792 681.233C542.323 659.136 553.508 638.838 569.932 622.906C586.356 606.975 607.282 596.125 630.063 591.73C652.844 587.334 676.457 589.59 697.916 598.212C719.375 606.835 737.716 621.435 750.621 640.169C763.525 658.902 770.413 680.927 770.413 703.457C770.377 733.659 757.993 762.615 735.977 783.971C713.96 805.327 684.11 817.34 652.974 817.374ZM652.974 592.045C630.257 592.045 608.051 598.579 589.163 610.821C570.274 623.063 555.553 640.464 546.86 660.822C538.166 681.18 535.892 703.581 540.323 725.193C544.755 746.805 555.694 766.657 571.757 782.238C587.821 797.819 608.286 808.43 630.566 812.729C652.847 817.028 675.941 814.822 696.928 806.389C717.916 797.957 735.854 783.677 748.475 765.355C761.095 747.033 767.832 725.493 767.832 703.457C767.797 673.919 755.685 645.6 734.153 624.714C712.62 603.827 683.426 592.078 652.974 592.045Z" fill="#2F2E41"/>
<path d="M1014.32 817.374C991.096 817.374 968.391 810.693 949.078 798.175C929.765 785.658 914.713 767.867 905.824 747.051C896.936 726.236 894.61 703.331 899.141 681.233C903.673 659.136 914.858 638.838 931.282 622.906C947.706 606.975 968.631 596.125 991.412 591.73C1014.19 587.334 1037.81 589.59 1059.27 598.212C1080.72 606.835 1099.07 621.435 1111.97 640.169C1124.87 658.902 1131.76 680.927 1131.76 703.457C1131.73 733.659 1119.34 762.615 1097.33 783.971C1075.31 805.327 1045.46 817.34 1014.32 817.374ZM1014.32 592.045C991.607 592.045 969.4 598.579 950.512 610.821C931.624 623.063 916.902 640.464 908.209 660.822C899.516 681.18 897.241 703.581 901.673 725.193C906.105 746.805 917.044 766.657 933.107 782.238C949.17 797.819 969.636 808.43 991.916 812.729C1014.2 817.028 1037.29 814.822 1058.28 806.389C1079.26 797.957 1097.2 783.677 1109.82 765.355C1122.44 747.033 1129.18 725.493 1129.18 703.457C1129.15 673.919 1117.03 645.6 1095.5 624.713C1073.97 603.827 1044.77 592.078 1014.32 592.045Z" fill="#2F2E41"/>
<path d="M652.974 710.969C657.251 710.969 660.717 707.606 660.717 703.458C660.717 699.31 657.251 695.947 652.974 695.947C648.698 695.947 645.231 699.31 645.231 703.458C645.231 707.606 648.698 710.969 652.974 710.969Z" fill="#2F2E41"/>
<path d="M1016.9 710.969C1021.18 710.969 1024.65 707.606 1024.65 703.458C1024.65 699.31 1021.18 695.947 1016.9 695.947C1012.63 695.947 1009.16 699.31 1009.16 703.458C1009.16 707.606 1012.63 710.969 1016.9 710.969Z" fill="#2F2E41"/>
<path d="M664.486 692.682L662.111 691.7L729.561 538.199L920.831 541.985L921.201 542.548L1015.41 685.256L1013.24 686.607L919.398 544.462L731.251 540.737L664.486 692.682Z" fill="#2F2E41"/>
<path d="M865.428 721.213L915.002 551.646L917.484 552.328L868.977 718.25L998.675 702.215L999 704.7L865.428 721.213Z" fill="#2F2E41"/>
<path d="M724.875 576.146L723.032 577.899L855.957 709.341L857.8 707.588L724.875 576.146Z" fill="#2F2E41"/>
<path d="M927.897 511.597L920.166 539.141L922.656 539.798L930.387 512.255L927.897 511.597Z" fill="#2F2E41"/>
<path d="M734.247 530.982L731.728 530.428L737.823 504.417H716.21V488.144H718.791V501.914H741.057L734.247 530.982Z" fill="#2F2E41"/>
<path d="M881.398 486.892C881.398 486.892 881.398 479.381 898.175 483.137C914.952 486.892 966.574 496.907 970.445 495.655C974.317 494.403 973.026 503.166 956.249 506.921C939.472 510.677 920.114 501.914 916.243 499.41C912.371 496.907 881.398 486.892 881.398 486.892Z" fill="#2F2E41"/>
<path d="M834.939 710.969H801.385V723.487H834.939V710.969Z" fill="#F9A826"/>
<path d="M867.203 744.768C862.098 744.768 857.108 743.3 852.863 740.549C848.619 737.798 845.31 733.888 843.357 729.313C841.403 724.738 840.892 719.704 841.888 714.847C842.884 709.991 845.342 705.53 848.952 702.028C852.562 698.527 857.161 696.142 862.167 695.176C867.174 694.21 872.364 694.706 877.08 696.601C881.796 698.496 885.827 701.705 888.664 705.822C891.5 709.94 893.013 714.78 893.013 719.732C893.006 726.37 890.284 732.734 885.445 737.427C880.606 742.121 874.046 744.761 867.203 744.768ZM867.203 697.199C862.608 697.199 858.117 698.521 854.297 700.996C850.477 703.472 847.5 706.992 845.741 711.109C843.983 715.226 843.523 719.757 844.42 724.128C845.316 728.499 847.528 732.514 850.777 735.665C854.026 738.816 858.165 740.962 862.671 741.832C867.177 742.701 871.848 742.255 876.092 740.55C880.337 738.844 883.965 735.956 886.517 732.25C889.07 728.545 890.432 724.188 890.432 719.732C890.425 713.758 887.975 708.031 883.621 703.806C879.266 699.582 873.361 697.206 867.203 697.199Z" fill="#2F2E41"/>
<path d="M729.116 371.723C746.221 371.723 760.088 358.272 760.088 341.68C760.088 325.087 746.221 311.636 729.116 311.636C712.01 311.636 698.143 325.087 698.143 341.68C698.143 358.272 712.01 371.723 729.116 371.723Z" fill="#FFB8B8"/>
<path d="M827.196 481.884C827.196 481.884 738.149 531.957 739.44 548.231C740.73 564.505 807.838 653.384 807.838 653.384C807.838 653.384 813 679.673 818.162 679.673C823.324 679.673 855.588 690.939 856.878 683.428C858.169 675.917 846.554 667.155 847.845 662.147C849.135 657.14 791.061 565.757 791.061 565.757C791.061 565.757 915.349 520.691 889.34 481.884C863.331 443.077 827.196 481.884 827.196 481.884Z" fill="#2F2E41"/>
<path d="M829.777 674.666C829.777 674.666 814.291 678.421 811.71 683.429C809.129 688.436 763.96 704.71 776.865 708.465C789.771 712.221 864.621 713.473 867.203 710.969C869.784 708.465 867.203 679.407 856.878 679.54C846.554 679.673 834.939 683.429 829.777 674.666Z" fill="#2F2E41"/>
<path d="M729.116 387.997L758.153 353.572C758.153 353.572 791.061 344.183 805.257 362.96C819.453 381.738 858.169 428.056 871.074 438.07C883.98 448.085 902.047 486.891 895.594 488.143C889.142 489.395 853.007 474.373 838.811 484.388C824.615 494.402 797.514 495.654 796.223 490.647C794.933 485.64 717.501 401.767 717.501 390.501C717.501 379.234 725.752 376.817 725.752 376.817L729.116 387.997Z" fill="#F9A826"/>
<path d="M744.712 487.523L705.776 474.171C703.76 473.479 701.548 474.504 700.835 476.46C700.123 478.415 701.179 480.561 703.195 481.252L742.131 494.605C744.146 495.296 746.358 494.271 747.071 492.316C747.784 490.36 746.727 488.215 744.712 487.523Z" fill="#2F2E41"/>
<path d="M656.846 471.869C656.846 471.869 611.677 484.387 615.549 498.157C619.42 511.928 660.717 481.884 660.717 481.884L656.846 471.869Z" fill="#FFB8B8"/>
<path d="M774.284 362.961C774.284 362.961 756.217 377.983 752.345 395.508C748.474 413.034 729.116 444.329 729.116 444.329L650.393 469.366C650.393 469.366 645.231 493.151 652.974 493.151C660.717 493.151 747.183 475.625 749.764 471.87C752.345 468.114 807.838 396.76 807.838 396.76C807.838 396.76 813 357.953 774.284 362.961Z" fill="#F9A826"/>
<path d="M709.878 306.906C709.115 307.543 708.201 307.988 707.218 308.2C706.725 308.286 706.216 308.178 705.804 307.901C705.392 307.624 705.11 307.201 705.019 306.722C704.45 308.254 703.392 309.569 702 310.477C700.522 311.225 698.237 310.598 698.024 308.995C697.809 310.212 697.253 311.349 696.419 312.282C695.984 312.728 695.385 312.99 694.752 313.011C694.119 313.031 693.504 312.809 693.039 312.392C693.686 315.822 693.287 319.35 693.49 322.832C693.693 326.314 694.65 330.006 697.362 332.296C701.318 335.635 707.265 334.811 712.468 334.178C713.255 334.018 714.071 334.061 714.836 334.304C716.784 335.109 716.695 337.739 716.722 339.793C716.88 343.397 718.351 346.829 720.872 349.481C723.392 352.133 726.8 353.832 730.491 354.278C732.556 354.587 734.663 354.088 736.349 352.891C737.826 351.676 738.581 349.697 740.274 348.784C743.027 347.3 746.366 349.465 748.38 351.815C750.393 354.165 752.377 357.056 755.495 357.486C759.62 358.055 762.761 353.977 764.303 350.223C766.429 344.961 767.448 339.339 767.299 333.689C767.15 328.039 765.836 322.475 763.435 317.325C754.823 299.115 725.403 296.235 709.878 306.906Z" fill="#2F2E41"/>
<path d="M1254.86 817.323L1252.57 816.174C1282.36 760.312 1266.43 687.767 1247.82 636.747C1235.19 602.453 1219.07 569.462 1199.71 538.259L1201.9 536.922C1221.36 568.283 1237.55 601.442 1250.26 635.91C1269.03 687.398 1285.07 760.667 1254.86 817.323Z" fill="#2F2E41"/>
<path d="M1276.96 537.37L1260.21 626.256L1262.75 626.706L1279.49 537.82L1276.96 537.37Z" fill="#2F2E41"/>
<path d="M1165.62 613.099L1163.73 614.805L1250.19 704.937L1252.08 703.23L1165.62 613.099Z" fill="#2F2E41"/>
<path d="M1321.06 712.106L1277.2 770.956L1279.29 772.423L1323.15 713.573L1321.06 712.106Z" fill="#2F2E41"/>
<path d="M1284.69 513.806C1291.82 513.806 1297.6 508.201 1297.6 501.288C1297.6 494.374 1291.82 488.77 1284.69 488.77C1277.56 488.77 1271.79 494.374 1271.79 501.288C1271.79 508.201 1277.56 513.806 1284.69 513.806Z" fill="#F9A826"/>
<path d="M1144.02 610.197C1151.15 610.197 1156.93 604.592 1156.93 597.678C1156.93 590.765 1151.15 585.16 1144.02 585.16C1136.89 585.16 1131.12 590.765 1131.12 597.678C1131.12 604.592 1136.89 610.197 1144.02 610.197Z" fill="#3F3D56"/>
<path d="M1200.81 622.715C1207.93 622.715 1213.71 617.111 1213.71 610.197C1213.71 603.283 1207.93 597.679 1200.81 597.679C1193.68 597.679 1187.9 603.283 1187.9 610.197C1187.9 617.111 1193.68 622.715 1200.81 622.715Z" fill="#3F3D56"/>
<path d="M1174.99 671.537C1182.12 671.537 1187.9 665.932 1187.9 659.018C1187.9 652.105 1182.12 646.5 1174.99 646.5C1167.87 646.5 1162.09 652.105 1162.09 659.018C1162.09 665.932 1167.87 671.537 1174.99 671.537Z" fill="#F9A826"/>
<path d="M1336.31 702.831C1343.44 702.831 1349.22 697.227 1349.22 690.313C1349.22 683.4 1343.44 677.795 1336.31 677.795C1329.18 677.795 1323.41 683.4 1323.41 690.313C1323.41 697.227 1329.18 702.831 1336.31 702.831Z" fill="#3F3D56"/>
<path d="M1293.72 716.602C1300.85 716.602 1306.63 710.997 1306.63 704.084C1306.63 697.17 1300.85 691.565 1293.72 691.565C1286.6 691.565 1280.82 697.17 1280.82 704.084C1280.82 710.997 1286.6 716.602 1293.72 716.602Z" fill="#3F3D56"/>
<path d="M1323.41 756.661C1330.53 756.661 1336.31 751.056 1336.31 744.142C1336.31 737.229 1330.53 731.624 1323.41 731.624C1316.28 731.624 1310.5 737.229 1310.5 744.142C1310.5 751.056 1316.28 756.661 1323.41 756.661Z" fill="#3F3D56"/>
<path d="M1187.9 528.828C1195.03 528.828 1200.81 523.223 1200.81 516.309C1200.81 509.396 1195.03 503.791 1187.9 503.791C1180.77 503.791 1175 509.396 1175 516.309C1175 523.223 1180.77 528.828 1187.9 528.828Z" fill="#3F3D56"/>
<path d="M1385.35 815.496H220V818H1385.35V815.496Z" fill="#2F2E41"/>
<path d="M419.949 556.277L310.421 494.938L247.185 601.181L356.713 662.52L419.949 556.277Z" fill="#F2F2F2"/>
<path d="M359.378 683.882C353.762 683.882 348.273 682.267 343.604 679.241C338.935 676.215 335.296 671.914 333.147 666.881C330.998 661.849 330.436 656.311 331.531 650.969C332.627 645.627 335.331 640.72 339.302 636.868C343.272 633.017 348.331 630.394 353.839 629.331C359.346 628.268 365.055 628.814 370.243 630.898C375.431 632.983 379.865 636.512 382.984 641.041C386.104 645.57 387.769 650.895 387.769 656.342C387.761 663.644 384.767 670.644 379.444 675.807C374.122 680.97 366.905 683.874 359.378 683.882ZM359.378 631.305C354.273 631.305 349.282 632.774 345.038 635.525C340.793 638.276 337.485 642.186 335.532 646.761C333.578 651.336 333.067 656.37 334.063 661.226C335.059 666.083 337.517 670.544 341.127 674.046C344.736 677.547 349.335 679.931 354.342 680.897C359.349 681.864 364.539 681.368 369.255 679.473C373.971 677.578 378.002 674.369 380.838 670.252C383.674 666.134 385.188 661.294 385.188 656.342C385.181 649.704 382.459 643.34 377.62 638.647C372.781 633.953 366.221 631.313 359.378 631.305Z" fill="#3F3D56"/>
</g>
<path d="M19.435 247.495C17.7483 247.495 16.0983 247.367 14.485 247.11C12.8717 246.853 11.35 246.468 9.92 245.955C8.49 245.405 7.20667 244.745 6.07 243.975C5.52 243.572 5.135 243.113 4.915 242.6C4.73167 242.087 4.67667 241.592 4.75 241.115C4.86 240.602 5.08 240.162 5.41 239.795C5.74 239.428 6.14333 239.208 6.62 239.135C7.09667 239.025 7.62833 239.172 8.215 239.575C9.865 240.638 11.6067 241.427 13.44 241.94C15.2733 242.417 17.2717 242.655 19.435 242.655C22.5517 242.655 24.8433 242.105 26.31 241.005C27.8133 239.868 28.565 238.402 28.565 236.605C28.565 235.138 28.0333 233.983 26.97 233.14C25.9067 232.26 24.1283 231.563 21.635 231.05L15.75 229.84C12.2667 229.107 9.66333 227.897 7.94 226.21C6.25333 224.523 5.41 222.25 5.41 219.39C5.41 217.667 5.75833 216.09 6.455 214.66C7.18833 213.23 8.19667 212.002 9.48 210.975C10.7633 209.912 12.3033 209.105 14.1 208.555C15.8967 208.005 17.8583 207.73 19.985 207.73C22.2583 207.73 24.385 208.023 26.365 208.61C28.3817 209.197 30.1783 210.095 31.755 211.305C32.2317 211.635 32.5433 212.057 32.69 212.57C32.8733 213.047 32.91 213.523 32.8 214C32.7267 214.477 32.525 214.88 32.195 215.21C31.865 215.54 31.4433 215.742 30.93 215.815C30.4167 215.852 29.8483 215.668 29.225 215.265C27.795 214.312 26.3283 213.633 24.825 213.23C23.3583 212.79 21.7267 212.57 19.93 212.57C18.1333 212.57 16.5567 212.845 15.2 213.395C13.88 213.945 12.8533 214.715 12.12 215.705C11.4233 216.695 11.075 217.868 11.075 219.225C11.075 220.765 11.57 221.993 12.56 222.91C13.55 223.827 15.2 224.523 17.51 225L23.34 226.21C27.0067 226.98 29.7383 228.172 31.535 229.785C33.3317 231.398 34.23 233.543 34.23 236.22C34.23 237.943 33.8817 239.502 33.185 240.895C32.4883 242.252 31.4983 243.425 30.215 244.415C28.9317 245.405 27.3733 246.175 25.54 246.725C23.7433 247.238 21.7083 247.495 19.435 247.495ZM51.3977 247.495C49.1977 247.495 47.3461 247.11 45.8427 246.34C44.3394 245.57 43.2211 244.433 42.4877 242.93C41.7544 241.427 41.3877 239.593 41.3877 237.43V224.45H38.0877C37.3544 224.45 36.7861 224.267 36.3827 223.9C35.9794 223.497 35.7777 222.965 35.7777 222.305C35.7777 221.608 35.9794 221.077 36.3827 220.71C36.7861 220.343 37.3544 220.16 38.0877 220.16H41.3877V214.495C41.3877 213.578 41.6261 212.882 42.1027 212.405C42.6161 211.928 43.3127 211.69 44.1927 211.69C45.0727 211.69 45.7511 211.928 46.2277 212.405C46.7044 212.882 46.9427 213.578 46.9427 214.495V220.16H53.3777C54.1111 220.16 54.6794 220.343 55.0827 220.71C55.4861 221.077 55.6877 221.608 55.6877 222.305C55.6877 222.965 55.4861 223.497 55.0827 223.9C54.6794 224.267 54.1111 224.45 53.3777 224.45H46.9427V236.99C46.9427 238.933 47.3461 240.4 48.1527 241.39C48.9961 242.38 50.3527 242.875 52.2227 242.875C52.8827 242.875 53.4511 242.82 53.9277 242.71C54.4411 242.563 54.8627 242.472 55.1927 242.435C55.5961 242.435 55.9261 242.582 56.1827 242.875C56.4394 243.132 56.5677 243.645 56.5677 244.415C56.5677 244.965 56.4577 245.478 56.2377 245.955C56.0544 246.432 55.7061 246.743 55.1927 246.89C54.7527 247.037 54.1477 247.165 53.3777 247.275C52.6444 247.422 51.9844 247.495 51.3977 247.495ZM62.8506 247.385C61.934 247.385 61.2373 247.147 60.7606 246.67C60.284 246.157 60.0456 245.46 60.0456 244.58V222.58C60.0456 221.663 60.284 220.967 60.7606 220.49C61.2373 220.013 61.8973 219.775 62.7406 219.775C63.6206 219.775 64.2806 220.013 64.7206 220.49C65.1973 220.967 65.4356 221.663 65.4356 222.58V226.595H64.8856C65.4723 224.395 66.554 222.727 68.1306 221.59C69.7073 220.453 71.724 219.793 74.1806 219.61C74.8406 219.573 75.354 219.738 75.7206 220.105C76.124 220.472 76.344 221.04 76.3806 221.81C76.454 222.58 76.289 223.203 75.8856 223.68C75.4823 224.12 74.859 224.377 74.0156 224.45L72.9706 224.56C70.5873 224.78 68.7723 225.532 67.5256 226.815C66.279 228.098 65.6556 229.858 65.6556 232.095V244.58C65.6556 245.46 65.4173 246.157 64.9406 246.67C64.5006 247.147 63.804 247.385 62.8506 247.385ZM91.8472 247.495C89.1339 247.495 86.7872 246.927 84.8072 245.79C82.8639 244.653 81.3422 243.04 80.2422 240.95C79.1422 238.86 78.5922 236.403 78.5922 233.58C78.5922 231.417 78.9039 229.492 79.5272 227.805C80.1506 226.118 81.0306 224.67 82.1672 223.46C83.3406 222.213 84.7339 221.278 86.3472 220.655C87.9972 219.995 89.8306 219.665 91.8472 219.665C94.5239 219.665 96.8339 220.233 98.7772 221.37C100.757 222.507 102.297 224.12 103.397 226.21C104.497 228.263 105.047 230.72 105.047 233.58C105.047 235.707 104.736 237.632 104.112 239.355C103.489 241.078 102.591 242.545 101.417 243.755C100.281 244.965 98.8872 245.9 97.2372 246.56C95.6239 247.183 93.8272 247.495 91.8472 247.495ZM91.8472 243.205C93.3506 243.205 94.6706 242.838 95.8072 242.105C96.9439 241.372 97.8239 240.29 98.4472 238.86C99.1072 237.43 99.4372 235.67 99.4372 233.58C99.4372 230.427 98.7406 228.043 97.3472 226.43C95.9539 224.817 94.1206 224.01 91.8472 224.01C90.3072 224.01 88.9689 224.377 87.8322 225.11C86.6956 225.807 85.7972 226.87 85.1372 228.3C84.5139 229.73 84.2022 231.49 84.2022 233.58C84.2022 236.697 84.8989 239.08 86.2922 240.73C87.6856 242.38 89.5372 243.205 91.8472 243.205ZM114.036 247.385C113.156 247.385 112.478 247.147 112.001 246.67C111.524 246.157 111.286 245.46 111.286 244.58V222.58C111.286 221.663 111.524 220.967 112.001 220.49C112.478 220.013 113.138 219.775 113.981 219.775C114.861 219.775 115.521 220.013 115.961 220.49C116.438 220.967 116.676 221.663 116.676 222.58V226.87L116.071 225.88C116.878 223.827 118.143 222.287 119.866 221.26C121.589 220.197 123.569 219.665 125.806 219.665C127.933 219.665 129.693 220.068 131.086 220.875C132.516 221.645 133.579 222.837 134.276 224.45C134.973 226.027 135.321 228.025 135.321 230.445V244.58C135.321 245.46 135.083 246.157 134.606 246.67C134.129 247.147 133.451 247.385 132.571 247.385C131.654 247.385 130.958 247.147 130.481 246.67C130.004 246.157 129.766 245.46 129.766 244.58V230.775C129.766 228.465 129.308 226.778 128.391 225.715C127.511 224.652 126.118 224.12 124.211 224.12C121.974 224.12 120.178 224.817 118.821 226.21C117.501 227.603 116.841 229.473 116.841 231.82V244.58C116.841 246.45 115.906 247.385 114.036 247.385ZM155.13 257.395C153.15 257.395 151.225 257.193 149.355 256.79C147.522 256.387 145.854 255.727 144.35 254.81C143.8 254.517 143.434 254.15 143.25 253.71C143.067 253.307 143.012 252.885 143.085 252.445C143.195 252.005 143.397 251.62 143.69 251.29C143.984 250.96 144.332 250.74 144.735 250.63C145.175 250.52 145.634 250.593 146.11 250.85C147.724 251.73 149.245 252.317 150.675 252.61C152.142 252.94 153.499 253.105 154.745 253.105C157.312 253.105 159.237 252.445 160.52 251.125C161.804 249.842 162.445 247.935 162.445 245.405V239.795H162.94C162.39 241.812 161.235 243.407 159.475 244.58C157.715 245.753 155.68 246.34 153.37 246.34C150.95 246.34 148.842 245.79 147.045 244.69C145.249 243.553 143.855 241.995 142.865 240.015C141.875 237.998 141.38 235.652 141.38 232.975C141.38 230.958 141.655 229.143 142.205 227.53C142.792 225.917 143.599 224.523 144.625 223.35C145.689 222.177 146.954 221.278 148.42 220.655C149.924 219.995 151.574 219.665 153.37 219.665C155.717 219.665 157.752 220.252 159.475 221.425C161.235 222.598 162.372 224.193 162.885 226.21L162.335 227.145V222.58C162.335 221.663 162.574 220.967 163.05 220.49C163.564 220.013 164.242 219.775 165.085 219.775C165.965 219.775 166.644 220.013 167.12 220.49C167.597 220.967 167.835 221.663 167.835 222.58V244.745C167.835 248.925 166.754 252.078 164.59 254.205C162.427 256.332 159.274 257.395 155.13 257.395ZM154.69 241.995C156.304 241.995 157.679 241.628 158.815 240.895C159.952 240.162 160.832 239.117 161.455 237.76C162.079 236.403 162.39 234.808 162.39 232.975C162.39 230.225 161.694 228.043 160.3 226.43C158.944 224.817 157.074 224.01 154.69 224.01C153.114 224.01 151.757 224.377 150.62 225.11C149.484 225.843 148.585 226.888 147.925 228.245C147.302 229.565 146.99 231.142 146.99 232.975C146.99 235.762 147.687 237.962 149.08 239.575C150.474 241.188 152.344 241.995 154.69 241.995ZM193.599 247.385C192.682 247.385 191.967 247.128 191.454 246.615C190.977 246.102 190.739 245.387 190.739 244.47V211.14C190.739 210.187 190.995 209.472 191.509 208.995C192.022 208.482 192.737 208.225 193.654 208.225H206.799C210.979 208.225 214.205 209.27 216.479 211.36C218.752 213.413 219.889 216.31 219.889 220.05C219.889 223.827 218.752 226.76 216.479 228.85C214.205 230.903 210.979 231.93 206.799 231.93H196.459V244.47C196.459 245.387 196.22 246.102 195.744 246.615C195.267 247.128 194.552 247.385 193.599 247.385ZM196.459 227.365H205.974C208.724 227.365 210.795 226.76 212.189 225.55C213.619 224.303 214.334 222.47 214.334 220.05C214.334 217.667 213.619 215.87 212.189 214.66C210.795 213.413 208.724 212.79 205.974 212.79H196.459V227.365ZM236.728 247.495C233.794 247.495 231.264 246.945 229.138 245.845C227.048 244.708 225.416 243.113 224.243 241.06C223.106 238.97 222.538 236.495 222.538 233.635C222.538 230.848 223.106 228.41 224.243 226.32C225.379 224.23 226.938 222.598 228.918 221.425C230.898 220.252 233.153 219.665 235.683 219.665C237.553 219.665 239.221 219.977 240.688 220.6C242.154 221.187 243.401 222.067 244.428 223.24C245.491 224.377 246.279 225.77 246.793 227.42C247.343 229.07 247.618 230.922 247.618 232.975C247.618 233.598 247.434 234.075 247.068 234.405C246.701 234.698 246.151 234.845 245.418 234.845H226.938V231.435H243.878L242.943 232.205C242.943 230.372 242.668 228.813 242.118 227.53C241.604 226.247 240.816 225.275 239.753 224.615C238.726 223.918 237.443 223.57 235.903 223.57C234.179 223.57 232.713 223.973 231.503 224.78C230.329 225.587 229.431 226.705 228.808 228.135C228.184 229.565 227.873 231.233 227.873 233.14V233.47C227.873 236.697 228.624 239.135 230.128 240.785C231.668 242.398 233.886 243.205 236.783 243.205C237.883 243.205 239.038 243.058 240.248 242.765C241.494 242.472 242.668 241.977 243.768 241.28C244.391 240.913 244.941 240.748 245.418 240.785C245.931 240.822 246.334 240.987 246.628 241.28C246.958 241.573 247.159 241.94 247.233 242.38C247.306 242.82 247.233 243.278 247.013 243.755C246.793 244.195 246.408 244.598 245.858 244.965C244.611 245.808 243.163 246.45 241.513 246.89C239.863 247.293 238.268 247.495 236.728 247.495ZM265.334 247.495C262.62 247.495 260.274 246.927 258.294 245.79C256.35 244.653 254.829 243.04 253.729 240.95C252.629 238.86 252.079 236.403 252.079 233.58C252.079 231.417 252.39 229.492 253.014 227.805C253.637 226.118 254.517 224.67 255.654 223.46C256.827 222.213 258.22 221.278 259.834 220.655C261.484 219.995 263.317 219.665 265.334 219.665C268.01 219.665 270.32 220.233 272.264 221.37C274.244 222.507 275.784 224.12 276.884 226.21C277.984 228.263 278.534 230.72 278.534 233.58C278.534 235.707 278.222 237.632 277.599 239.355C276.975 241.078 276.077 242.545 274.904 243.755C273.767 244.965 272.374 245.9 270.724 246.56C269.11 247.183 267.314 247.495 265.334 247.495ZM265.334 243.205C266.837 243.205 268.157 242.838 269.294 242.105C270.43 241.372 271.31 240.29 271.934 238.86C272.594 237.43 272.924 235.67 272.924 233.58C272.924 230.427 272.227 228.043 270.834 226.43C269.44 224.817 267.607 224.01 265.334 224.01C263.794 224.01 262.455 224.377 261.319 225.11C260.182 225.807 259.284 226.87 258.624 228.3C258 229.73 257.689 231.49 257.689 233.58C257.689 236.697 258.385 239.08 259.779 240.73C261.172 242.38 263.024 243.205 265.334 243.205ZM287.522 257.285C286.642 257.285 285.964 257.047 285.487 256.57C285.011 256.093 284.772 255.397 284.772 254.48V222.58C284.772 221.663 285.011 220.967 285.487 220.49C285.964 220.013 286.624 219.775 287.467 219.775C288.347 219.775 289.026 220.013 289.502 220.49C289.979 220.967 290.217 221.663 290.217 222.58V227.365L289.612 226.21C290.199 224.23 291.354 222.653 293.077 221.48C294.801 220.27 296.836 219.665 299.182 219.665C301.566 219.665 303.637 220.233 305.397 221.37C307.194 222.507 308.569 224.102 309.522 226.155C310.512 228.208 311.007 230.683 311.007 233.58C311.007 236.403 310.512 238.878 309.522 241.005C308.569 243.095 307.212 244.708 305.452 245.845C303.692 246.945 301.602 247.495 299.182 247.495C296.872 247.495 294.856 246.908 293.132 245.735C291.409 244.562 290.254 243.003 289.667 241.06H290.327V254.48C290.327 255.397 290.071 256.093 289.557 256.57C289.081 257.047 288.402 257.285 287.522 257.285ZM297.807 243.205C299.347 243.205 300.686 242.838 301.822 242.105C302.959 241.372 303.839 240.29 304.462 238.86C305.086 237.43 305.397 235.67 305.397 233.58C305.397 230.427 304.701 228.043 303.307 226.43C301.951 224.817 300.117 224.01 297.807 224.01C296.304 224.01 294.966 224.377 293.792 225.11C292.656 225.807 291.776 226.87 291.152 228.3C290.529 229.73 290.217 231.49 290.217 233.58C290.217 236.697 290.914 239.08 292.307 240.73C293.701 242.38 295.534 243.205 297.807 243.205ZM325.902 247.495C323.042 247.495 320.879 246.67 319.412 245.02C317.982 243.333 317.267 240.913 317.267 237.76V210.645C317.267 209.728 317.506 209.032 317.982 208.555C318.459 208.078 319.137 207.84 320.017 207.84C320.897 207.84 321.576 208.078 322.052 208.555C322.566 209.032 322.822 209.728 322.822 210.645V237.43C322.822 239.263 323.189 240.638 323.922 241.555C324.692 242.435 325.792 242.875 327.222 242.875C327.552 242.875 327.846 242.875 328.102 242.875C328.359 242.838 328.616 242.802 328.872 242.765C329.312 242.728 329.624 242.857 329.807 243.15C329.991 243.407 330.082 243.957 330.082 244.8C330.082 245.57 329.917 246.175 329.587 246.615C329.257 247.018 328.726 247.275 327.992 247.385C327.662 247.422 327.314 247.44 326.947 247.44C326.581 247.477 326.232 247.495 325.902 247.495ZM346.405 247.495C343.472 247.495 340.942 246.945 338.815 245.845C336.725 244.708 335.094 243.113 333.92 241.06C332.784 238.97 332.215 236.495 332.215 233.635C332.215 230.848 332.784 228.41 333.92 226.32C335.057 224.23 336.615 222.598 338.595 221.425C340.575 220.252 342.83 219.665 345.36 219.665C347.23 219.665 348.899 219.977 350.365 220.6C351.832 221.187 353.079 222.067 354.105 223.24C355.169 224.377 355.957 225.77 356.47 227.42C357.02 229.07 357.295 230.922 357.295 232.975C357.295 233.598 357.112 234.075 356.745 234.405C356.379 234.698 355.829 234.845 355.095 234.845H336.615V231.435H353.555L352.62 232.205C352.62 230.372 352.345 228.813 351.795 227.53C351.282 226.247 350.494 225.275 349.43 224.615C348.404 223.918 347.12 223.57 345.58 223.57C343.857 223.57 342.39 223.973 341.18 224.78C340.007 225.587 339.109 226.705 338.485 228.135C337.862 229.565 337.55 231.233 337.55 233.14V233.47C337.55 236.697 338.302 239.135 339.805 240.785C341.345 242.398 343.564 243.205 346.46 243.205C347.56 243.205 348.715 243.058 349.925 242.765C351.172 242.472 352.345 241.977 353.445 241.28C354.069 240.913 354.619 240.748 355.095 240.785C355.609 240.822 356.012 240.987 356.305 241.28C356.635 241.573 356.837 241.94 356.91 242.38C356.984 242.82 356.91 243.278 356.69 243.755C356.47 244.195 356.085 244.598 355.535 244.965C354.289 245.808 352.84 246.45 351.19 246.89C349.54 247.293 347.945 247.495 346.405 247.495Z" fill="url(#paint0_linear_653_85)"/>
<path d="M17.435 322.495C15.7483 322.495 14.0983 322.367 12.485 322.11C10.8717 321.853 9.35 321.468 7.92 320.955C6.49 320.405 5.20667 319.745 4.07 318.975C3.52 318.572 3.135 318.113 2.915 317.6C2.73167 317.087 2.67667 316.592 2.75 316.115C2.86 315.602 3.08 315.162 3.41 314.795C3.74 314.428 4.14333 314.208 4.62 314.135C5.09667 314.025 5.62833 314.172 6.215 314.575C7.865 315.638 9.60667 316.427 11.44 316.94C13.2733 317.417 15.2717 317.655 17.435 317.655C20.5517 317.655 22.8433 317.105 24.31 316.005C25.8133 314.868 26.565 313.402 26.565 311.605C26.565 310.138 26.0333 308.983 24.97 308.14C23.9067 307.26 22.1283 306.563 19.635 306.05L13.75 304.84C10.2667 304.107 7.66333 302.897 5.94 301.21C4.25333 299.523 3.41 297.25 3.41 294.39C3.41 292.667 3.75833 291.09 4.455 289.66C5.18833 288.23 6.19667 287.002 7.48 285.975C8.76333 284.912 10.3033 284.105 12.1 283.555C13.8967 283.005 15.8583 282.73 17.985 282.73C20.2583 282.73 22.385 283.023 24.365 283.61C26.3817 284.197 28.1783 285.095 29.755 286.305C30.2317 286.635 30.5433 287.057 30.69 287.57C30.8733 288.047 30.91 288.523 30.8 289C30.7267 289.477 30.525 289.88 30.195 290.21C29.865 290.54 29.4433 290.742 28.93 290.815C28.4167 290.852 27.8483 290.668 27.225 290.265C25.795 289.312 24.3283 288.633 22.825 288.23C21.3583 287.79 19.7267 287.57 17.93 287.57C16.1333 287.57 14.5567 287.845 13.2 288.395C11.88 288.945 10.8533 289.715 10.12 290.705C9.42333 291.695 9.075 292.868 9.075 294.225C9.075 295.765 9.57 296.993 10.56 297.91C11.55 298.827 13.2 299.523 15.51 300L21.34 301.21C25.0067 301.98 27.7383 303.172 29.535 304.785C31.3317 306.398 32.23 308.543 32.23 311.22C32.23 312.943 31.8817 314.502 31.185 315.895C30.4883 317.252 29.4983 318.425 28.215 319.415C26.9317 320.405 25.3733 321.175 23.54 321.725C21.7433 322.238 19.7083 322.495 17.435 322.495ZM49.3977 322.495C47.1977 322.495 45.3461 322.11 43.8427 321.34C42.3394 320.57 41.2211 319.433 40.4877 317.93C39.7544 316.427 39.3877 314.593 39.3877 312.43V299.45H36.0877C35.3544 299.45 34.7861 299.267 34.3827 298.9C33.9794 298.497 33.7777 297.965 33.7777 297.305C33.7777 296.608 33.9794 296.077 34.3827 295.71C34.7861 295.343 35.3544 295.16 36.0877 295.16H39.3877V289.495C39.3877 288.578 39.6261 287.882 40.1027 287.405C40.6161 286.928 41.3127 286.69 42.1927 286.69C43.0727 286.69 43.7511 286.928 44.2277 287.405C44.7044 287.882 44.9427 288.578 44.9427 289.495V295.16H51.3777C52.1111 295.16 52.6794 295.343 53.0827 295.71C53.4861 296.077 53.6877 296.608 53.6877 297.305C53.6877 297.965 53.4861 298.497 53.0827 298.9C52.6794 299.267 52.1111 299.45 51.3777 299.45H44.9427V311.99C44.9427 313.933 45.3461 315.4 46.1527 316.39C46.9961 317.38 48.3527 317.875 50.2227 317.875C50.8827 317.875 51.4511 317.82 51.9277 317.71C52.4411 317.563 52.8627 317.472 53.1927 317.435C53.5961 317.435 53.9261 317.582 54.1827 317.875C54.4394 318.132 54.5677 318.645 54.5677 319.415C54.5677 319.965 54.4577 320.478 54.2377 320.955C54.0544 321.432 53.7061 321.743 53.1927 321.89C52.7527 322.037 52.1477 322.165 51.3777 322.275C50.6444 322.422 49.9844 322.495 49.3977 322.495ZM60.8506 322.385C59.934 322.385 59.2373 322.147 58.7606 321.67C58.284 321.157 58.0456 320.46 58.0456 319.58V297.58C58.0456 296.663 58.284 295.967 58.7606 295.49C59.2373 295.013 59.8973 294.775 60.7406 294.775C61.6206 294.775 62.2806 295.013 62.7206 295.49C63.1973 295.967 63.4356 296.663 63.4356 297.58V301.595H62.8856C63.4723 299.395 64.554 297.727 66.1306 296.59C67.7073 295.453 69.724 294.793 72.1806 294.61C72.8406 294.573 73.354 294.738 73.7206 295.105C74.124 295.472 74.344 296.04 74.3806 296.81C74.454 297.58 74.289 298.203 73.8856 298.68C73.4823 299.12 72.859 299.377 72.0156 299.45L70.9706 299.56C68.5873 299.78 66.7723 300.532 65.5256 301.815C64.279 303.098 63.6556 304.858 63.6556 307.095V319.58C63.6556 320.46 63.4173 321.157 62.9406 321.67C62.5006 322.147 61.804 322.385 60.8506 322.385ZM89.8472 322.495C87.1339 322.495 84.7872 321.927 82.8072 320.79C80.8639 319.653 79.3422 318.04 78.2422 315.95C77.1422 313.86 76.5922 311.403 76.5922 308.58C76.5922 306.417 76.9039 304.492 77.5272 302.805C78.1506 301.118 79.0306 299.67 80.1672 298.46C81.3406 297.213 82.7339 296.278 84.3472 295.655C85.9972 294.995 87.8306 294.665 89.8472 294.665C92.5239 294.665 94.8339 295.233 96.7772 296.37C98.7572 297.507 100.297 299.12 101.397 301.21C102.497 303.263 103.047 305.72 103.047 308.58C103.047 310.707 102.736 312.632 102.112 314.355C101.489 316.078 100.591 317.545 99.4172 318.755C98.2806 319.965 96.8872 320.9 95.2372 321.56C93.6239 322.183 91.8272 322.495 89.8472 322.495ZM89.8472 318.205C91.3506 318.205 92.6706 317.838 93.8072 317.105C94.9439 316.372 95.8239 315.29 96.4472 313.86C97.1072 312.43 97.4372 310.67 97.4372 308.58C97.4372 305.427 96.7406 303.043 95.3472 301.43C93.9539 299.817 92.1206 299.01 89.8472 299.01C88.3072 299.01 86.9689 299.377 85.8322 300.11C84.6956 300.807 83.7972 301.87 83.1372 303.3C82.5139 304.73 82.2022 306.49 82.2022 308.58C82.2022 311.697 82.8989 314.08 84.2922 315.73C85.6856 317.38 87.5372 318.205 89.8472 318.205ZM112.036 322.385C111.156 322.385 110.478 322.147 110.001 321.67C109.524 321.157 109.286 320.46 109.286 319.58V297.58C109.286 296.663 109.524 295.967 110.001 295.49C110.478 295.013 111.138 294.775 111.981 294.775C112.861 294.775 113.521 295.013 113.961 295.49C114.438 295.967 114.676 296.663 114.676 297.58V301.87L114.071 300.88C114.878 298.827 116.143 297.287 117.866 296.26C119.589 295.197 121.569 294.665 123.806 294.665C125.933 294.665 127.693 295.068 129.086 295.875C130.516 296.645 131.579 297.837 132.276 299.45C132.973 301.027 133.321 303.025 133.321 305.445V319.58C133.321 320.46 133.083 321.157 132.606 321.67C132.129 322.147 131.451 322.385 130.571 322.385C129.654 322.385 128.958 322.147 128.481 321.67C128.004 321.157 127.766 320.46 127.766 319.58V305.775C127.766 303.465 127.308 301.778 126.391 300.715C125.511 299.652 124.118 299.12 122.211 299.12C119.974 299.12 118.178 299.817 116.821 301.21C115.501 302.603 114.841 304.473 114.841 306.82V319.58C114.841 321.45 113.906 322.385 112.036 322.385ZM153.13 332.395C151.15 332.395 149.225 332.193 147.355 331.79C145.522 331.387 143.854 330.727 142.35 329.81C141.8 329.517 141.434 329.15 141.25 328.71C141.067 328.307 141.012 327.885 141.085 327.445C141.195 327.005 141.397 326.62 141.69 326.29C141.984 325.96 142.332 325.74 142.735 325.63C143.175 325.52 143.634 325.593 144.11 325.85C145.724 326.73 147.245 327.317 148.675 327.61C150.142 327.94 151.499 328.105 152.745 328.105C155.312 328.105 157.237 327.445 158.52 326.125C159.804 324.842 160.445 322.935 160.445 320.405V314.795H160.94C160.39 316.812 159.235 318.407 157.475 319.58C155.715 320.753 153.68 321.34 151.37 321.34C148.95 321.34 146.842 320.79 145.045 319.69C143.249 318.553 141.855 316.995 140.865 315.015C139.875 312.998 139.38 310.652 139.38 307.975C139.38 305.958 139.655 304.143 140.205 302.53C140.792 300.917 141.599 299.523 142.625 298.35C143.689 297.177 144.954 296.278 146.42 295.655C147.924 294.995 149.574 294.665 151.37 294.665C153.717 294.665 155.752 295.252 157.475 296.425C159.235 297.598 160.372 299.193 160.885 301.21L160.335 302.145V297.58C160.335 296.663 160.574 295.967 161.05 295.49C161.564 295.013 162.242 294.775 163.085 294.775C163.965 294.775 164.644 295.013 165.12 295.49C165.597 295.967 165.835 296.663 165.835 297.58V319.745C165.835 323.925 164.754 327.078 162.59 329.205C160.427 331.332 157.274 332.395 153.13 332.395ZM152.69 316.995C154.304 316.995 155.679 316.628 156.815 315.895C157.952 315.162 158.832 314.117 159.455 312.76C160.079 311.403 160.39 309.808 160.39 307.975C160.39 305.225 159.694 303.043 158.3 301.43C156.944 299.817 155.074 299.01 152.69 299.01C151.114 299.01 149.757 299.377 148.62 300.11C147.484 300.843 146.585 301.888 145.925 303.245C145.302 304.565 144.99 306.142 144.99 307.975C144.99 310.762 145.687 312.962 147.08 314.575C148.474 316.188 150.344 316.995 152.69 316.995ZM206.119 322.495C202.195 322.495 198.84 321.688 196.054 320.075C193.267 318.462 191.122 316.17 189.619 313.2C188.152 310.193 187.419 306.655 187.419 302.585C187.419 299.542 187.84 296.81 188.684 294.39C189.527 291.933 190.737 289.843 192.314 288.12C193.927 286.36 195.889 285.022 198.199 284.105C200.545 283.188 203.185 282.73 206.119 282.73C208.282 282.73 210.354 283.023 212.334 283.61C214.35 284.197 216.092 285.04 217.559 286.14C218.182 286.543 218.585 287.038 218.769 287.625C218.989 288.175 219.025 288.707 218.879 289.22C218.769 289.733 218.53 290.173 218.164 290.54C217.797 290.87 217.32 291.053 216.734 291.09C216.184 291.127 215.579 290.925 214.919 290.485C213.709 289.568 212.37 288.89 210.904 288.45C209.437 288.01 207.897 287.79 206.284 287.79C203.497 287.79 201.15 288.377 199.244 289.55C197.337 290.687 195.889 292.355 194.899 294.555C193.909 296.755 193.414 299.432 193.414 302.585C193.414 305.738 193.909 308.433 194.899 310.67C195.889 312.87 197.337 314.557 199.244 315.73C201.15 316.867 203.497 317.435 206.284 317.435C207.897 317.435 209.437 317.215 210.904 316.775C212.407 316.298 213.819 315.602 215.139 314.685C215.799 314.282 216.385 314.098 216.899 314.135C217.449 314.172 217.907 314.355 218.274 314.685C218.64 315.015 218.879 315.437 218.989 315.95C219.135 316.427 219.117 316.94 218.934 317.49C218.787 318.003 218.439 318.443 217.889 318.81C216.385 320.02 214.607 320.937 212.554 321.56C210.5 322.183 208.355 322.495 206.119 322.495ZM235.028 322.495C232.315 322.495 229.968 321.927 227.988 320.79C226.045 319.653 224.523 318.04 223.423 315.95C222.323 313.86 221.773 311.403 221.773 308.58C221.773 306.417 222.085 304.492 222.708 302.805C223.331 301.118 224.211 299.67 225.348 298.46C226.521 297.213 227.915 296.278 229.528 295.655C231.178 294.995 233.011 294.665 235.028 294.665C237.705 294.665 240.015 295.233 241.958 296.37C243.938 297.507 245.478 299.12 246.578 301.21C247.678 303.263 248.228 305.72 248.228 308.58C248.228 310.707 247.916 312.632 247.293 314.355C246.67 316.078 245.771 317.545 244.598 318.755C243.461 319.965 242.068 320.9 240.418 321.56C238.805 322.183 237.008 322.495 235.028 322.495ZM235.028 318.205C236.531 318.205 237.851 317.838 238.988 317.105C240.125 316.372 241.005 315.29 241.628 313.86C242.288 312.43 242.618 310.67 242.618 308.58C242.618 305.427 241.921 303.043 240.528 301.43C239.135 299.817 237.301 299.01 235.028 299.01C233.488 299.01 232.15 299.377 231.013 300.11C229.876 300.807 228.978 301.87 228.318 303.3C227.695 304.73 227.383 306.49 227.383 308.58C227.383 311.697 228.08 314.08 229.473 315.73C230.866 317.38 232.718 318.205 235.028 318.205ZM257.327 322.385C256.447 322.385 255.768 322.147 255.292 321.67C254.815 321.157 254.577 320.46 254.577 319.58V297.58C254.577 296.663 254.815 295.967 255.292 295.49C255.768 295.013 256.428 294.775 257.272 294.775C258.152 294.775 258.812 295.013 259.252 295.49C259.728 295.967 259.967 296.663 259.967 297.58V302.09L259.362 300.88C260.095 298.937 261.232 297.415 262.772 296.315C264.312 295.215 266.163 294.665 268.327 294.665C270.563 294.665 272.378 295.197 273.772 296.26C275.165 297.323 276.118 298.955 276.632 301.155H275.862C276.558 299.138 277.75 297.562 279.437 296.425C281.123 295.252 283.085 294.665 285.322 294.665C287.375 294.665 289.062 295.068 290.382 295.875C291.702 296.645 292.692 297.837 293.352 299.45C294.012 301.027 294.342 303.025 294.342 305.445V319.58C294.342 320.46 294.085 321.157 293.572 321.67C293.095 322.147 292.417 322.385 291.537 322.385C290.657 322.385 289.978 322.147 289.502 321.67C289.025 321.157 288.787 320.46 288.787 319.58V305.72C288.787 303.447 288.383 301.778 287.577 300.715C286.807 299.652 285.523 299.12 283.727 299.12C281.71 299.12 280.115 299.817 278.942 301.21C277.768 302.603 277.182 304.528 277.182 306.985V319.58C277.182 320.46 276.943 321.157 276.467 321.67C275.99 322.147 275.312 322.385 274.432 322.385C273.552 322.385 272.855 322.147 272.342 321.67C271.865 321.157 271.627 320.46 271.627 319.58V305.72C271.627 303.447 271.242 301.778 270.472 300.715C269.702 299.652 268.418 299.12 266.622 299.12C264.605 299.12 263.01 299.817 261.837 301.21C260.7 302.603 260.132 304.528 260.132 306.985V319.58C260.132 321.45 259.197 322.385 257.327 322.385ZM304.968 322.385C304.088 322.385 303.41 322.147 302.933 321.67C302.456 321.157 302.218 320.46 302.218 319.58V297.58C302.218 296.663 302.456 295.967 302.933 295.49C303.41 295.013 304.07 294.775 304.913 294.775C305.793 294.775 306.453 295.013 306.893 295.49C307.37 295.967 307.608 296.663 307.608 297.58V302.09L307.003 300.88C307.736 298.937 308.873 297.415 310.413 296.315C311.953 295.215 313.805 294.665 315.968 294.665C318.205 294.665 320.02 295.197 321.413 296.26C322.806 297.323 323.76 298.955 324.273 301.155H323.503C324.2 299.138 325.391 297.562 327.078 296.425C328.765 295.252 330.726 294.665 332.963 294.665C335.016 294.665 336.703 295.068 338.023 295.875C339.343 296.645 340.333 297.837 340.993 299.45C341.653 301.027 341.983 303.025 341.983 305.445V319.58C341.983 320.46 341.726 321.157 341.213 321.67C340.736 322.147 340.058 322.385 339.178 322.385C338.298 322.385 337.62 322.147 337.143 321.67C336.666 321.157 336.428 320.46 336.428 319.58V305.72C336.428 303.447 336.025 301.778 335.218 300.715C334.448 299.652 333.165 299.12 331.368 299.12C329.351 299.12 327.756 299.817 326.583 301.21C325.41 302.603 324.823 304.528 324.823 306.985V319.58C324.823 320.46 324.585 321.157 324.108 321.67C323.631 322.147 322.953 322.385 322.073 322.385C321.193 322.385 320.496 322.147 319.983 321.67C319.506 321.157 319.268 320.46 319.268 319.58V305.72C319.268 303.447 318.883 301.778 318.113 300.715C317.343 299.652 316.06 299.12 314.263 299.12C312.246 299.12 310.651 299.817 309.478 301.21C308.341 302.603 307.773 304.528 307.773 306.985V319.58C307.773 321.45 306.838 322.385 304.968 322.385ZM359.32 322.495C357.156 322.495 355.341 322.092 353.875 321.285C352.445 320.478 351.363 319.287 350.63 317.71C349.933 316.097 349.585 314.08 349.585 311.66V297.58C349.585 296.627 349.823 295.93 350.3 295.49C350.776 295.013 351.455 294.775 352.335 294.775C353.215 294.775 353.893 295.013 354.37 295.49C354.883 295.93 355.14 296.627 355.14 297.58V311.715C355.14 313.878 355.58 315.473 356.46 316.5C357.34 317.527 358.733 318.04 360.64 318.04C362.73 318.04 364.416 317.343 365.7 315.95C367.02 314.52 367.68 312.65 367.68 310.34V297.58C367.68 296.627 367.918 295.93 368.395 295.49C368.871 295.013 369.568 294.775 370.485 294.775C371.365 294.775 372.043 295.013 372.52 295.49C372.996 295.93 373.235 296.627 373.235 297.58V319.58C373.235 321.45 372.336 322.385 370.54 322.385C369.696 322.385 369.036 322.147 368.56 321.67C368.083 321.157 367.845 320.46 367.845 319.58V314.905L368.56 316.115C367.826 318.168 366.653 319.745 365.04 320.845C363.426 321.945 361.52 322.495 359.32 322.495ZM383.813 322.385C382.933 322.385 382.255 322.147 381.778 321.67C381.302 321.157 381.063 320.46 381.063 319.58V297.58C381.063 296.663 381.302 295.967 381.778 295.49C382.255 295.013 382.915 294.775 383.758 294.775C384.638 294.775 385.298 295.013 385.738 295.49C386.215 295.967 386.453 296.663 386.453 297.58V301.87L385.848 300.88C386.655 298.827 387.92 297.287 389.643 296.26C391.367 295.197 393.347 294.665 395.583 294.665C397.71 294.665 399.47 295.068 400.863 295.875C402.293 296.645 403.357 297.837 404.053 299.45C404.75 301.027 405.098 303.025 405.098 305.445V319.58C405.098 320.46 404.86 321.157 404.383 321.67C403.907 322.147 403.228 322.385 402.348 322.385C401.432 322.385 400.735 322.147 400.258 321.67C399.782 321.157 399.543 320.46 399.543 319.58V305.775C399.543 303.465 399.085 301.778 398.168 300.715C397.288 299.652 395.895 299.12 393.988 299.12C391.752 299.12 389.955 299.817 388.598 301.21C387.278 302.603 386.618 304.473 386.618 306.82V319.58C386.618 321.45 385.683 322.385 383.813 322.385ZM415.503 322.33C414.623 322.33 413.944 322.073 413.468 321.56C412.991 321.01 412.753 320.258 412.753 319.305V297.855C412.753 296.902 412.991 296.168 413.468 295.655C413.944 295.142 414.623 294.885 415.503 294.885C416.383 294.885 417.061 295.142 417.538 295.655C418.051 296.168 418.308 296.902 418.308 297.855V319.305C418.308 320.258 418.069 321.01 417.593 321.56C417.116 322.073 416.419 322.33 415.503 322.33ZM415.503 289.165C414.403 289.165 413.541 288.89 412.918 288.34C412.331 287.79 412.038 287.02 412.038 286.03C412.038 285.003 412.331 284.233 412.918 283.72C413.541 283.17 414.403 282.895 415.503 282.895C416.603 282.895 417.446 283.17 418.033 283.72C418.656 284.233 418.968 285.003 418.968 286.03C418.968 287.02 418.656 287.79 418.033 288.34C417.446 288.89 416.603 289.165 415.503 289.165ZM437.567 322.495C435.367 322.495 433.515 322.11 432.012 321.34C430.508 320.57 429.39 319.433 428.657 317.93C427.923 316.427 427.557 314.593 427.557 312.43V299.45H424.257C423.523 299.45 422.955 299.267 422.552 298.9C422.148 298.497 421.947 297.965 421.947 297.305C421.947 296.608 422.148 296.077 422.552 295.71C422.955 295.343 423.523 295.16 424.257 295.16H427.557V289.495C427.557 288.578 427.795 287.882 428.272 287.405C428.785 286.928 429.482 286.69 430.362 286.69C431.242 286.69 431.92 286.928 432.397 287.405C432.873 287.882 433.112 288.578 433.112 289.495V295.16H439.547C440.28 295.16 440.848 295.343 441.252 295.71C441.655 296.077 441.857 296.608 441.857 297.305C441.857 297.965 441.655 298.497 441.252 298.9C440.848 299.267 440.28 299.45 439.547 299.45H433.112V311.99C433.112 313.933 433.515 315.4 434.322 316.39C435.165 317.38 436.522 317.875 438.392 317.875C439.052 317.875 439.62 317.82 440.097 317.71C440.61 317.563 441.032 317.472 441.362 317.435C441.765 317.435 442.095 317.582 442.352 317.875C442.608 318.132 442.737 318.645 442.737 319.415C442.737 319.965 442.627 320.478 442.407 320.955C442.223 321.432 441.875 321.743 441.362 321.89C440.922 322.037 440.317 322.165 439.547 322.275C438.813 322.422 438.153 322.495 437.567 322.495ZM452.916 332.285C452.256 332.285 451.706 332.102 451.266 331.735C450.862 331.405 450.624 330.947 450.551 330.36C450.514 329.81 450.624 329.205 450.881 328.545L454.621 320.13V322.495L444.336 298.57C444.079 297.91 443.987 297.287 444.061 296.7C444.134 296.113 444.409 295.655 444.886 295.325C445.362 294.958 446.004 294.775 446.811 294.775C447.507 294.775 448.057 294.94 448.461 295.27C448.864 295.6 449.231 296.168 449.561 296.975L457.866 317.49H456.326L464.741 296.975C465.071 296.132 465.456 295.563 465.896 295.27C466.336 294.94 466.941 294.775 467.711 294.775C468.371 294.775 468.884 294.958 469.251 295.325C469.654 295.655 469.892 296.113 469.966 296.7C470.076 297.25 469.984 297.855 469.691 298.515L455.941 330.14C455.574 330.983 455.152 331.552 454.676 331.845C454.236 332.138 453.649 332.285 452.916 332.285Z" fill="url(#paint1_linear_653_85)"/>
<defs>
<linearGradient id="paint0_linear_653_85" x1="-9.5198" y1="236" x2="360" y2="236" gradientUnits="userSpaceOnUse">
<stop stop-color="#DD5183"/>
<stop offset="0.0001" stop-color="#F9A826"/>
<stop offset="0.439461" stop-color="#75E093"/>
<stop offset="0.87066" stop-color="#5CE5F8"/>
<stop offset="0.982292" stop-color="#00A4BA"/>
</linearGradient>
<linearGradient id="paint1_linear_653_85" x1="-15.1881" y1="311" x2="472" y2="311" gradientUnits="userSpaceOnUse">
<stop stop-color="#DD5183"/>
<stop offset="0.0001" stop-color="#F9A826"/>
<stop offset="0.439461" stop-color="#75E093"/>
<stop offset="0.87066" stop-color="#5CE5F8"/>
<stop offset="0.982292" stop-color="#00A4BA"/>
</linearGradient>
<clipPath id="clip0_653_85">
<rect width="1210" height="818" fill="white" transform="translate(220)"/>
</clipPath>
</defs>
</svg>
