<svg width="1277" height="674" viewBox="0 0 1277 674" fill="none" xmlns="http://www.w3.org/2000/svg">
<g clip-path="url(#clip0_177_155)">
<path opacity="0.35" d="M439.128 187.039C439.128 180.821 434.117 175.81 427.899 175.81H381.221C375.003 175.81 369.992 170.799 369.992 164.581C369.992 158.363 375.003 153.352 381.221 153.352H392.218C398.435 153.352 403.446 148.341 403.446 142.123C403.446 135.906 398.435 130.895 392.218 130.895H269.907C263.69 130.895 258.678 135.906 258.678 142.123C258.678 148.341 263.69 153.352 269.907 153.352H281.693C287.91 153.352 292.922 158.363 292.922 164.581C292.922 170.799 287.91 175.81 281.693 175.81H244.155C237.938 175.81 232.926 180.821 232.926 187.039C232.926 193.256 237.938 198.267 244.155 198.267H247.403C253.621 198.267 258.632 203.279 258.632 209.496C258.632 215.714 253.621 220.725 247.403 220.725H228.426C222.208 220.725 217.197 225.736 217.197 231.954C217.197 238.171 222.208 243.183 228.426 243.183H271.392C277.61 243.183 282.621 248.194 282.621 254.411C282.621 260.629 277.61 265.64 271.392 265.64H254.178C247.96 265.64 242.949 270.651 242.949 276.869C242.949 283.087 247.96 288.098 254.178 288.098H275.104C281.322 288.098 286.333 293.109 286.333 299.327C286.333 305.544 281.322 310.555 275.104 310.555H273.758C267.541 310.555 262.53 315.567 262.53 321.784C262.53 328.002 267.541 333.013 273.758 333.013H386.139C392.357 333.013 397.368 328.002 397.368 321.784C397.368 315.567 392.357 310.555 386.139 310.555H376.488C370.27 310.555 365.259 305.544 365.259 299.327C365.259 293.109 370.27 288.098 376.488 288.098H427.899C434.117 288.098 439.128 283.087 439.128 276.869C439.128 270.651 434.117 265.64 427.899 265.64H414.722C408.504 265.64 403.493 260.629 403.493 254.411C403.493 248.194 408.504 243.183 414.722 243.183H422.842C429.059 243.183 434.07 238.171 434.07 231.954C434.07 225.736 429.059 220.725 422.842 220.725H396.997C390.779 220.725 385.768 215.714 385.768 209.496C385.768 203.279 390.779 198.267 396.997 198.267H427.899C434.117 198.267 439.128 193.256 439.128 187.039ZM327.026 220.771H317.328C311.11 220.771 306.099 215.76 306.099 209.543C306.099 203.325 311.11 198.314 317.328 198.314H327.026C333.243 198.314 338.254 203.325 338.254 209.543C338.301 215.714 333.243 220.771 327.026 220.771Z" fill="#404D52"/>
<path opacity="0.45" d="M414.722 394.4C414.722 397.462 412.216 399.968 409.154 399.968H234.458C231.395 399.968 228.89 397.462 228.89 394.4C228.89 391.337 231.395 388.832 234.458 388.832H287.075C290.138 388.832 292.643 386.326 292.643 383.264C292.643 380.201 290.138 377.696 287.075 377.696H281.832C278.77 377.696 276.264 375.19 276.264 372.128C276.264 369.065 278.77 366.56 281.832 366.56H389.712C392.774 366.56 395.28 369.065 395.28 372.128C395.28 375.19 392.774 377.696 389.712 377.696H377.602C374.539 377.696 372.034 380.201 372.034 383.264C372.034 386.326 374.539 388.832 377.602 388.832H409.154C412.216 388.832 414.722 391.337 414.722 394.4Z" fill="#898386"/>
<path opacity="0.51" d="M330.413 189.544C330.598 195.994 330.181 199.056 330.181 199.056C330.598 199.474 330.691 199.52 331.202 199.52C330.552 199.706 329.81 199.891 329.81 201.608C329.81 207.64 329.67 237.058 328.789 243.786C323.267 242.904 316.771 243.832 312.92 243.414C307.677 242.811 308.976 237.939 309.765 236.64C324.891 212.002 325.726 200.68 325.726 200.68C325.726 200.68 325.958 199.427 326.283 198.778C326.515 197.339 326.794 195.019 326.376 192.282C326.19 190.982 325.262 188.013 324.242 185.693C324.195 185.646 324.149 185.6 324.056 185.554C322.339 184.394 321.133 182.491 320.808 180.218C320.808 180.218 320.808 180.171 320.808 180.125C320.669 178.965 321.411 177.944 322.478 177.851L323.778 177.712C323.638 178.454 324.01 182.259 327.582 183.79C330.366 184.95 333.568 183.837 334.542 182.77C334.728 183.651 333.614 185.136 332.176 186.157C331.062 186.946 330.413 188.198 330.413 189.544Z" fill="#DB485F"/>
<path d="M337.048 155.997H328V170.752H337.048V155.997Z" fill="#FFA578"/>
<path d="M332.547 155.997H328V163.746H332.547V155.997Z" fill="#F49971"/>
<path d="M328 161.843C329.902 161.89 333.522 161.658 337.048 160.034V155.997H328V161.843Z" fill="#ED8C6B"/>
<path d="M372.73 186.667L388.459 157.945L381.128 153.955L367.115 179.568C366.651 180.403 365.584 180.589 364.888 179.985L345.864 163.699C344.101 162.214 341.456 162.4 339.971 164.163C338.487 165.926 338.672 168.571 340.435 170.056L362.151 188.662L364.007 190.24C366.327 192.189 369.853 191.585 371.384 188.987L372.73 186.667Z" fill="#FFA578"/>
<path d="M372.73 186.667L388.459 157.945L381.128 153.955L367.115 179.568C366.651 180.403 365.584 180.589 364.888 179.985L345.864 163.699C344.101 162.214 341.456 162.4 339.971 164.163C338.487 165.926 338.672 168.571 340.435 170.056L362.151 188.662L364.007 190.24C366.327 192.189 369.853 191.585 371.384 188.987L372.73 186.667Z" fill="#FFA578"/>
<path d="M345.678 180.867L323.546 181.981C323.36 181.981 323.174 181.842 323.174 181.656L322.386 166.205C322.339 164.906 323.314 163.792 324.659 163.699L341.224 162.864C343.358 162.771 345.214 164.395 345.307 166.576L346.003 180.543C346.003 180.682 345.864 180.867 345.678 180.867Z" fill="#FFA578"/>
<path d="M363.635 182.352C365.63 184.069 368.739 183.512 369.992 181.192L384.051 155.533L381.128 153.955L367.115 179.568C366.651 180.403 365.584 180.589 364.888 179.985L345.864 163.699C344.518 162.539 342.987 162.493 339.925 162.91C339.925 162.91 341.502 162.725 343.173 164.256C349.112 169.638 363.635 182.352 363.635 182.352Z" fill="#F49971"/>
<path d="M326.237 164.581C324.381 163.235 321.782 163.607 320.39 165.463L301.506 191.215C301.134 191.771 300.856 192.328 300.763 192.978C300.531 194.045 300.717 195.205 301.413 196.226L314.822 215.667C316.122 217.57 318.72 218.034 320.622 216.735C322.525 215.435 322.989 212.837 321.69 210.935L309.95 193.906L327.118 170.474C328.51 168.525 328.093 165.927 326.237 164.581Z" fill="#FFA578"/>
<path d="M310.275 193.441L324.01 175.16L323.174 173.025C322.989 172.561 322.386 172.515 322.107 172.886L308.373 191.585L307.398 192.885C306.981 193.441 306.981 194.184 307.352 194.741L308.28 196.086L321.69 215.574C322.618 214.182 322.618 212.326 321.643 210.888L310.229 194.323C310.09 194.045 310.09 193.673 310.275 193.441Z" fill="#F49971"/>
<path d="M313.616 242.44C312.317 242.44 309.44 245.642 308.512 247.916C307.584 250.189 318.813 256.732 332.315 258.773C345.818 260.815 367.672 262.949 376.813 260.722C385.954 258.495 393.842 250.978 391.707 248.472C390.64 247.312 373.936 242.44 373.936 242.44H313.616Z" fill="#AC3942"/>
<path d="M357.696 368.416C357.696 368.416 356.954 373.427 356.443 378.809C355.654 387.022 361.13 381.408 361.13 381.408C361.13 381.408 367.301 376.443 367.997 366.56C368.693 356.677 358.253 365.539 357.696 368.416Z" fill="#FF4C63"/>
<path d="M296.866 359.971C296.866 359.971 294.453 369.715 296.262 376.35C296.541 377.417 297.794 378.02 298.814 377.51C302.898 375.608 306.238 369.297 307.074 365.771C308.002 361.688 301.274 353.382 296.866 359.971Z" fill="#FF4C63"/>
<path d="M332.912 143.793C350.308 142.768 363.648 128.996 362.707 113.033C361.767 97.0693 346.902 84.9594 329.506 85.9844C312.109 87.0098 298.77 100.781 299.71 116.745C300.651 132.708 315.516 144.818 332.912 143.793Z" fill="#AC3942"/>
<path d="M331.063 105.049C340.032 105.049 347.302 97.7785 347.302 88.8093C347.302 79.8402 340.032 72.5693 331.063 72.5693C322.093 72.5693 314.823 79.8402 314.823 88.8093C314.823 97.7785 322.093 105.049 331.063 105.049Z" fill="#AC3942"/>
<path d="M352.731 125.744C352.731 125.744 352.963 135.813 350.318 140.917C347.674 146.021 344.936 151.589 347.256 155.997C350.55 162.261 359.784 158.92 359.784 158.92C357.232 159.059 349.53 159.384 349.251 154.512C348.973 149.64 356.211 137.158 356.118 136.23C356.118 135.302 355.979 125.558 352.731 125.744Z" fill="#CD3B43"/>
<path d="M337.234 70.7601C337.234 70.7601 323.592 70.2033 315.75 84.7265C316.168 78.7873 321.365 67.6513 337.234 70.7601Z" fill="#AC3942"/>
<path d="M315.565 83.8915C318.302 75.3539 327.443 70.6211 335.981 73.3587C341.131 75.0291 344.936 79.0195 346.467 83.7987C343.451 80.7827 335.702 80.0403 328.65 87.0467C323.963 91.7331 319.045 95.3059 317.514 97.8579C314.915 93.8675 314.034 88.7635 315.565 83.8915Z" fill="#CD3B43"/>
<path d="M310.229 130.105C310.229 130.105 310.461 140.174 307.816 145.278C305.171 150.382 302.619 153.723 304.754 159.384C306.888 165.091 318.163 163.792 318.488 163.328C313.709 163.699 305.635 160.868 306.238 155.996C307.213 148.665 313.709 141.52 313.662 140.592C313.616 139.664 313.477 129.92 310.229 130.105Z" fill="#AC3942"/>
<path d="M333.707 159.013C327.211 159.384 318.674 155.069 313.662 147.134C307.723 138.133 303.965 124.074 310.461 114.979C324.195 114.19 337.93 113.355 351.664 112.566C359.134 120.826 357.046 135.256 352.267 144.907C348.184 153.306 340.203 158.642 333.707 159.013Z" fill="#FFA578"/>
<path d="M309.626 142.448L308.79 142.587C307.538 142.772 306.378 141.937 306.192 140.684L304.754 131.729C304.568 130.476 305.403 129.316 306.656 129.131L307.491 128.992C308.744 128.806 309.904 129.641 310.09 130.894L311.528 139.849C311.714 141.056 310.878 142.216 309.626 142.448Z" fill="#F49971"/>
<path d="M353.891 142.448L354.726 142.587C355.979 142.772 357.139 141.937 357.325 140.684L358.763 131.729C358.949 130.476 358.114 129.316 356.861 129.131L356.026 128.992C354.773 128.806 353.613 129.641 353.427 130.894L351.989 139.849C351.803 141.056 352.685 142.216 353.891 142.448Z" fill="#ED8C6B"/>
<path d="M333.707 159.013C327.211 159.384 318.674 155.069 313.662 147.134C307.723 138.133 303.965 124.074 310.461 114.979C324.195 114.19 337.93 113.355 351.664 112.566C359.134 120.826 357.046 135.256 352.267 144.907C348.184 153.306 340.203 158.642 333.707 159.013Z" fill="#FFA578"/>
<path d="M351.664 112.566C348.741 112.752 315.518 117.856 312.549 118.042C313.477 123.517 339.09 118.598 341.131 121.986C345.075 128.482 343.312 137.158 341.688 143.886C339.832 151.542 334.218 157.899 328.325 158.41C330.181 158.92 332.037 159.152 333.754 159.059C340.25 158.688 348.23 153.352 352.267 144.907C357.046 135.256 359.134 120.826 351.664 112.566Z" fill="#F49971"/>
<path d="M358.021 129.827C361.269 124.955 363.032 119.155 362.661 113.03C361.733 97.0686 346.838 84.9582 329.438 85.979C320.251 86.5358 312.178 90.619 306.749 96.7438C303.083 100.873 302.434 106.813 305.078 111.638C305.31 112.102 305.589 112.52 305.867 112.937C305.867 112.937 309.858 120.129 322.339 119.387C333.754 118.737 351.803 115.629 358.021 129.827Z" fill="#CD3B43"/>
<path d="M329.067 146.392C329.067 146.392 329.253 146.438 329.531 146.531C329.81 146.624 330.227 146.716 330.691 146.856C330.923 146.902 331.155 146.995 331.434 147.041C331.666 147.134 331.944 147.18 332.222 147.227C332.501 147.273 332.733 147.366 333.011 147.412C333.29 147.459 333.522 147.505 333.8 147.552C334.078 147.598 334.31 147.598 334.589 147.644C334.867 147.691 335.099 147.644 335.378 147.691C335.656 147.737 335.888 147.644 336.166 147.644C336.445 147.644 336.677 147.598 336.909 147.598C337.141 147.552 337.373 147.598 337.558 147.552C337.744 147.505 337.93 147.505 338.069 147.459C338.208 147.459 338.347 147.412 338.44 147.412C338.533 147.412 338.579 147.412 338.579 147.412C338.579 147.412 338.579 147.459 338.533 147.505C338.486 147.552 338.44 147.691 338.347 147.83C338.254 147.969 338.162 148.108 337.976 148.294C337.837 148.48 337.651 148.619 337.419 148.804C337.187 148.99 336.955 149.176 336.677 149.315C336.538 149.408 336.398 149.454 336.213 149.547C336.12 149.593 336.074 149.64 335.981 149.64L335.749 149.686C335.424 149.779 335.053 149.872 334.682 149.872C334.496 149.872 334.31 149.872 334.125 149.918C333.939 149.918 333.754 149.872 333.568 149.872C333.197 149.825 332.826 149.732 332.454 149.64C332.083 149.547 331.758 149.361 331.48 149.222C331.202 149.036 330.877 148.851 330.645 148.665C330.413 148.48 330.181 148.248 329.995 148.062C329.624 147.644 329.392 147.273 329.253 146.948C329.114 146.624 329.067 146.392 329.067 146.392Z" fill="#E24249"/>
<path d="M328.308 186.748C332.15 186.619 335.143 182.902 334.993 178.446C334.844 173.99 331.609 170.481 327.768 170.61C323.926 170.739 320.933 174.455 321.082 178.912C321.231 183.368 324.467 186.876 328.308 186.748Z" fill="#FFA578"/>
<path d="M341.392 185.542C345.234 185.414 348.227 181.697 348.078 177.241C347.928 172.785 344.693 169.276 340.851 169.405C337.01 169.534 334.017 173.25 334.166 177.707C334.315 182.163 337.55 185.671 341.392 185.542Z" fill="#FFA578"/>
<path d="M348.973 253.298C348.973 253.298 345.4 289.675 341.92 295.707C338.44 301.739 313.616 341.179 311.296 349.299C308.976 357.419 308.048 361.363 306.888 366.467C305.728 371.571 294.36 371.339 296.448 361.595C298.536 351.851 305.264 345.355 307.352 339.555C309.44 333.755 312.224 316.355 318.488 305.451C324.752 294.547 330.552 292.459 331.712 287.819C332.872 283.179 328 256.267 328 256.267L348.973 253.298Z" fill="#FFA578"/>
<path d="M298.861 368.972C301.784 370.643 306.053 369.529 306.842 366.56C304.986 368.416 301.784 369.761 298.861 368.972Z" fill="#F49971"/>
<path d="M342.013 252.184C341.038 265.732 340.853 289.257 338.022 294.222C334.496 300.347 315.611 330.182 307.862 348.603C306.702 351.34 310.878 350.644 311.25 349.299C313.57 341.179 338.394 301.739 341.874 295.707C345.354 289.675 348.926 253.297 348.926 253.297L342.013 252.184Z" fill="#F49971"/>
<path d="M349.669 253.994C349.669 253.994 354.448 279.189 357.696 287.541C360.944 295.893 361.408 299.605 361.408 303.317C361.408 307.029 362.058 320.671 362.058 329.951C362.058 339.231 363.496 340.901 361.408 352.826C359.32 364.751 357.696 366.653 357.696 368.37C357.696 370.087 357 373.66 358.624 375.284C360.248 376.908 366.605 375.469 367.997 366.514C369.389 357.559 368.09 350.367 368.925 344.01C369.76 337.653 375.792 319.047 374.122 304.941C372.451 290.836 369.714 287.541 369.714 280.813C369.714 274.085 369.482 250.932 369.482 250.932L349.669 253.994Z" fill="#FFA578"/>
<path d="M360.062 375.887C362.475 376.072 366.512 373.938 367.858 367.488C365.77 371.989 363.218 375.005 360.062 375.887Z" fill="#F49971"/>
<path d="M374.168 304.941C372.544 290.789 369.76 287.541 369.76 280.813C369.76 274.085 369.528 250.932 369.528 250.932L365.074 251.628C365.166 260.072 365.259 273.992 365.259 279.236C365.259 286.984 368.461 290.743 370.317 307.029C372.173 323.316 365.77 341.226 365.074 352.316C365.027 352.872 364.981 355.053 365.491 355.796C366.558 357.42 368.693 357.42 368.693 354.96C368.646 351.016 368.507 347.397 368.925 344.056C369.76 337.7 375.792 319.14 374.168 304.941Z" fill="#F49971"/>
<path d="M308.883 246.894C307.816 250.328 307.398 243.368 323.36 254.318C336.445 263.32 349.066 273.574 375.653 256.082C389.805 246.755 392.078 249.864 392.078 249.864C392.078 249.864 392.403 249.168 391.568 247.544C389.109 242.579 384.747 242.533 383.68 241.466C382.613 240.398 365.445 226.942 365.445 226.942L316.354 239.378C316.307 239.378 309.997 243.461 308.883 246.894Z" fill="#D3405C"/>
<path d="M387.067 154.141L379.643 157.25C377.555 158.131 375.189 156.6 375.189 154.28V132.89C375.189 131.59 375.978 130.43 377.138 129.92L384.562 126.811C386.65 125.93 389.016 127.461 389.016 129.781V151.171C389.062 152.47 388.274 153.677 387.067 154.141Z" fill="#76B276"/>
<path d="M389.016 154.141L381.592 157.25C379.504 158.131 377.138 156.6 377.138 154.28V132.89C377.138 131.59 377.926 130.43 379.086 129.92L386.51 126.811C388.598 125.93 390.965 127.461 390.965 129.781V151.171C390.965 152.47 390.222 153.677 389.016 154.141Z" fill="#99CC99"/>
<path d="M386.186 162.957C390.67 162.957 394.306 159.321 394.306 154.837C394.306 150.352 390.67 146.717 386.186 146.717C381.701 146.717 378.066 150.352 378.066 154.837C378.066 159.321 381.701 162.957 386.186 162.957Z" fill="#F79B72"/>
<path d="M384.886 159.06C387.705 159.06 389.99 156.774 389.99 153.956C389.99 151.137 387.705 148.852 384.886 148.852C382.068 148.852 379.782 151.137 379.782 153.956C379.782 156.774 382.068 159.06 384.886 159.06Z" fill="#FFA578"/>
<path d="M306.47 106.396C306.47 106.396 313.105 108.112 313.477 114.098C313.662 117.346 310.925 122.636 304.289 124.074C298.489 125.327 293.71 126.904 290.88 131.498C291.112 127.786 292.504 123.146 300.253 120.362C308.001 117.578 310.089 113.634 306.47 106.396Z" fill="#E24249"/>
<path d="M332.547 173.443C332.547 173.443 334.542 174.464 335.053 177.202C335.285 174.835 336.12 173.258 336.584 172.979C335.934 173.165 335.099 174.047 334.867 175.114C334.357 174 332.547 173.443 332.547 173.443Z" fill="#F49971"/>
<path d="M346.514 175.578L322.478 177.851C321.411 177.944 320.622 179.011 320.808 180.125C320.808 180.171 320.808 180.171 320.808 180.218C321.365 184.115 324.613 186.992 328.232 186.806C331.48 186.621 334.032 184.162 334.821 180.96C336.12 184.069 339.182 186.11 342.523 185.507C345.446 184.997 347.766 182.491 348.37 179.336C348.462 178.779 348.509 178.222 348.509 177.666C348.509 176.413 347.581 175.485 346.514 175.578Z" fill="#FF4C63"/>
<path d="M347.488 197.432C347.488 197.432 345.632 192.792 345.632 190.843C345.632 185.739 347.024 180.449 347.024 180.449H334.821L323.221 183.048C323.221 183.048 326.051 189.961 326.376 192.281C327.072 196.875 326.005 199.891 326.005 199.891C326.005 199.891 324.891 212.001 309.765 236.64C308.976 237.939 307.677 242.811 312.92 243.414C319.37 244.156 333.058 241.048 337.558 248.889C343.915 259.932 369.389 239.099 375.792 246.848C381.035 253.204 387.206 246.987 390.733 242.115C392.542 239.656 392.078 236.176 389.666 234.32C386.928 232.139 382.798 228.984 377.323 225.086C363.403 215.203 347.488 197.432 347.488 197.432Z" fill="#FF4C63"/>
<path d="M319.741 230.701C320.808 225.133 327.026 203.65 327.954 198.778C328 198.592 328.418 198.453 328.464 198.36C328.464 198.175 328.093 197.989 328.093 197.803C328.325 195.019 328.046 191.725 327.814 189.544C327.629 188.199 328.325 186.389 329.624 186.064C330.738 185.786 333.475 184.394 334.078 182.955C332.501 185.183 326.747 186.111 324.056 183.466C322.154 181.564 322.014 179.383 321.875 178.037C321.179 178.408 320.715 179.244 320.808 180.125C320.808 180.172 320.808 180.172 320.808 180.218C321.133 182.492 322.386 184.394 324.056 185.554C324.102 185.6 324.195 185.647 324.242 185.693C325.262 188.013 326.19 190.983 326.376 192.282C326.794 195.02 326.515 197.34 326.283 198.778C326.051 199.613 325.726 201.469 325.726 201.469C325.726 201.469 324.01 211.028 309.765 236.64C309.022 237.986 307.677 242.811 312.92 243.415C314.219 243.554 316.168 243.554 317.931 243.508C318.442 240.492 319.184 233.439 319.741 230.701Z" fill="#ED4A61"/>
<path opacity="0.69" d="M345.957 130.477C345.4 130.152 344.75 130.152 344.194 130.477C343.405 129.41 342.291 128.807 341.224 129.039C339.971 129.317 339.136 130.57 338.997 132.147C339.6 131.451 340.296 130.848 341.27 130.616C342.662 130.291 343.776 131.034 344.147 131.219C344.194 131.219 344.24 131.266 344.286 131.219C344.982 130.802 345.818 130.755 346.374 131.08C346.514 131.173 346.653 131.266 346.746 131.359C346.56 130.987 346.328 130.663 345.957 130.477Z" fill="#422725"/>
<path opacity="0.69" d="M319.834 132.008C320.344 131.637 321.04 131.544 321.597 131.776C322.246 130.616 323.267 129.874 324.381 130.013C325.634 130.106 326.654 131.266 326.979 132.843C326.33 132.194 325.541 131.683 324.52 131.59C323.082 131.451 322.061 132.286 321.736 132.518C321.69 132.565 321.643 132.565 321.597 132.565C320.854 132.24 320.019 132.286 319.509 132.658C319.37 132.75 319.277 132.843 319.184 132.982C319.277 132.611 319.509 132.24 319.834 132.008Z" fill="#422725"/>
<path d="M322.618 223.184C327.102 223.184 330.738 219.549 330.738 215.064C330.738 210.58 327.102 206.944 322.618 206.944C318.133 206.944 314.498 210.58 314.498 215.064C314.498 219.549 318.133 223.184 322.618 223.184Z" fill="#FFA578"/>
<path d="M322.618 223.184C327.102 223.184 330.738 219.549 330.738 215.064C330.738 210.58 327.102 206.944 322.618 206.944C318.133 206.944 314.498 210.58 314.498 215.064C314.498 219.549 318.133 223.184 322.618 223.184Z" fill="#FFA578"/>
<path d="M324.103 207.083C321.597 206.619 319.138 207.361 317.328 208.939C317.514 208.939 317.653 208.985 317.839 208.985C322.107 209.774 324.938 213.857 324.149 218.173C323.778 220.168 322.664 221.885 321.179 222.998C325.587 223.787 329.81 220.91 330.599 216.502C331.387 212.141 328.511 207.918 324.103 207.083Z" fill="#F79B72"/>
<path opacity="0.68" d="M377.323 225.086C363.914 215.528 348.602 198.685 347.534 197.525C347.488 197.478 347.442 197.432 347.442 197.385C347.21 196.736 345.632 192.653 345.632 190.843C345.632 188.152 346.003 185.414 346.374 183.419C346.374 183.326 346.421 183.233 346.467 183.187C346.746 182.862 346.978 182.537 347.21 182.166C347.72 181.331 348.138 180.357 348.323 179.289C348.416 178.733 348.462 178.176 348.462 177.619C348.462 176.413 347.534 175.531 346.467 175.624L344.982 175.763C345.122 176.041 345.214 176.366 345.307 176.691C345.307 176.691 345.446 177.248 345.539 177.758C345.632 178.547 345.261 180.774 343.776 182.166C342.059 183.79 339.182 184.115 336.584 182.909C336.584 182.909 337.326 183.605 338.44 184.254C339.275 184.718 340.528 185.182 340.899 185.229C342.059 185.414 342.941 186.296 343.08 187.456C343.266 188.987 343.358 190.565 343.358 191.307C343.358 192.281 343.451 194.416 343.822 196.55C343.869 196.782 343.312 197.107 343.358 197.339C343.405 197.525 343.915 197.293 343.915 197.432C344.054 198.081 344.286 198.963 344.472 199.566C345.214 201.793 364.099 231.768 376.024 247.173C376.024 247.173 376.024 247.219 376.07 247.219C381.314 253.019 387.346 246.801 390.826 241.976C392.542 239.563 392.032 236.222 389.712 234.413C387.021 232.232 382.845 229.03 377.323 225.086Z" fill="#DB485F"/>
<path d="M356.582 111.732C353.566 118.599 340.76 114.191 329.114 113.077C312.27 111.453 308.419 101.802 311.435 94.9347C314.451 88.0675 329.346 83.4739 340.064 88.2067C350.782 92.8931 359.598 104.864 356.582 111.732Z" fill="#E24249"/>
<path opacity="0.87" d="M339.758 98.9432C340.677 95.5815 336.732 91.5749 330.948 89.9945C325.164 88.4136 319.731 89.8576 318.812 93.2193C317.893 96.581 321.837 100.588 327.621 102.168C333.406 103.749 338.839 102.305 339.758 98.9432Z" fill="#EF5964"/>
<path opacity="0.87" d="M328.29 82.1734C331.138 80.2538 332.633 77.4921 331.63 76.0045C330.628 74.5174 327.506 74.8672 324.659 76.7868C321.812 78.7064 320.316 81.4686 321.319 82.9557C322.322 84.4433 325.443 84.0929 328.29 82.1734Z" fill="#EF5964"/>
<path d="M384.051 136.927C384.897 136.927 385.582 136.241 385.582 135.395C385.582 134.55 384.897 133.864 384.051 133.864C383.205 133.864 382.52 134.55 382.52 135.395C382.52 136.241 383.205 136.927 384.051 136.927Z" fill="#76B276"/>
<path d="M297.681 375.863C297.96 375.821 298.057 374.925 297.899 373.86C297.74 372.795 297.385 371.966 297.106 372.007C296.828 372.049 296.73 372.946 296.889 374.01C297.048 375.075 297.402 375.904 297.681 375.863Z" fill="#FFA6B5"/>
<path d="M358.376 379.837C358.383 378.76 358.159 377.887 357.877 377.885C357.596 377.883 357.362 378.754 357.355 379.83C357.348 380.907 357.572 381.781 357.853 381.782C358.135 381.784 358.369 380.913 358.376 379.837Z" fill="#FFA6B5"/>
</g>
<g clip-path="url(#clip1_177_155)">
<path opacity="0.64" d="M228.778 699.333C324.713 699.333 402.483 683.656 402.483 664.318C402.483 644.98 324.713 629.303 228.778 629.303C132.844 629.303 55.074 644.98 55.074 664.318C55.074 683.656 132.844 699.333 228.778 699.333Z" fill="#68CCE9"/>
<path d="M145.51 658.693C147.948 650.772 155.41 646.552 167.527 642.999C175.212 640.778 184.964 639.741 200.259 636.632C207.721 635.152 212.967 632.19 212.967 632.19V640.704C212.967 640.704 162.356 650.697 154.45 663.8C150.608 670.241 151.79 686.009 169.892 687.638C164.35 688.452 155.263 687.045 150.386 682.085C144.327 675.941 142.702 667.724 145.51 658.693Z" fill="#282323" stroke="black" stroke-width="4" stroke-miterlimit="10" stroke-linecap="round" stroke-linejoin="round"/>
<path d="M212.967 640.703C212.967 640.703 182.674 646.329 166.493 653.288C152.307 659.432 152.75 665.799 152.381 672.313C152.159 676.089 154.819 685.416 165.606 687.045C178.462 688.97 193.609 686.897 212.967 674.534C212.967 644.256 212.967 640.703 212.967 640.703Z" fill="#442C2A"/>
<path opacity="0.37" d="M152.381 672.314C152.676 667.058 152.455 661.876 159.843 656.842C159.548 658.693 159.474 660.469 159.4 662.32C159.178 666.095 168.266 661.209 179.054 662.764C190.284 664.467 196.934 677.348 212.967 668.686C212.967 670.537 212.967 672.462 212.967 674.461C193.609 686.823 178.462 688.822 165.606 686.971C154.819 685.417 152.159 676.015 152.381 672.314Z" fill="#442C2A"/>
<path d="M212.967 640.703C212.967 640.703 182.674 646.329 166.493 653.288C152.307 659.432 152.75 665.799 152.381 672.313C152.159 676.089 154.819 685.416 165.606 687.045C178.462 688.97 193.609 686.897 212.967 674.534C212.967 644.256 212.967 640.703 212.967 640.703Z" stroke="black" stroke-width="4" stroke-miterlimit="10" stroke-linecap="round" stroke-linejoin="round"/>
<path d="M184.89 658.1C182.452 659.432 183.043 672.387 188.954 674.164" stroke="black" stroke-width="4" stroke-miterlimit="10" stroke-linecap="round" stroke-linejoin="round"/>
<path d="M194.126 657.139C191.614 660.692 193.387 669.057 197.894 671.13" stroke="black" stroke-width="4" stroke-miterlimit="10" stroke-linecap="round" stroke-linejoin="round"/>
<path d="M202.623 654.178C200.111 657.731 201.884 666.096 206.391 668.169" stroke="black" stroke-width="4" stroke-miterlimit="10" stroke-linecap="round" stroke-linejoin="round"/>
<path d="M289.808 615.83C273.848 626.934 251.166 633.301 227.448 633.301C203.805 633.301 181.048 626.934 165.089 615.83C157.774 610.722 145.51 600.062 145.51 585.849C145.51 571.635 157.774 560.975 165.089 555.867C181.048 544.763 203.731 538.396 227.448 538.396C251.092 538.396 273.848 544.763 289.808 555.867C297.122 560.975 309.387 571.635 309.387 585.849C309.387 600.062 297.122 610.722 289.808 615.83Z" fill="#151E28"/>
<path d="M362.88 597.692C362.585 599.173 362.289 600.58 361.846 602.06C350.32 644.182 294.758 676.162 227.892 676.162C160.878 676.162 105.168 644.034 93.8636 601.764C93.5681 600.58 93.2725 599.395 93.0509 598.211C92.7553 595.99 92.8292 593.769 93.2725 591.548C96.0063 579.111 111.079 571.931 126.964 575.484C137.382 577.779 145.509 584.219 149.13 591.844C149.499 593.473 150.09 595.101 150.755 596.656C154.597 605.539 162.281 612.202 167.453 615.903C182.895 627.008 204.987 633.374 227.892 633.374C250.87 633.374 272.888 627.008 288.33 615.903C293.576 612.128 301.334 605.391 305.102 596.508C305.693 595.101 306.21 593.547 306.58 592.066C310.126 584.367 318.327 577.927 328.819 575.558C344.704 572.005 359.777 579.259 362.511 591.622C363.028 593.547 363.102 595.62 362.88 597.692Z" fill="#2A3749"/>
<path opacity="0.67" d="M362.511 591.475C362.437 591.105 362.363 590.809 362.215 590.438C361.994 591.623 361.698 592.881 361.329 594.066C349.95 636.188 294.315 668.168 227.522 668.168C160.508 668.168 104.799 636.04 93.4942 593.77C93.3465 593.326 93.2726 592.881 93.1248 592.363C92.8293 594.288 92.7554 596.213 93.0509 598.063C93.2726 599.248 93.5681 600.432 93.8637 601.617C105.168 643.887 160.878 676.015 227.892 676.015C294.758 676.015 350.32 644.035 361.846 601.913C362.215 600.506 362.585 599.026 362.88 597.545C363.102 595.62 363.028 593.548 362.511 591.475Z" fill="#151E28"/>
<path d="M362.88 597.692C362.585 599.173 362.289 600.58 361.846 602.06C350.32 644.182 294.758 676.162 227.892 676.162C160.878 676.162 105.168 644.034 93.8636 601.764C93.5681 600.58 93.2725 599.395 93.0509 598.211C92.7553 595.99 92.8292 593.769 93.2725 591.548C96.0063 579.111 111.079 571.931 126.964 575.484C137.382 577.779 145.509 584.219 149.13 591.844C149.499 593.473 150.09 595.101 150.755 596.656C154.597 605.539 162.281 612.202 167.453 615.903C182.895 627.008 204.987 633.374 227.892 633.374C250.87 633.374 272.888 627.008 288.33 615.903C293.576 612.128 301.334 605.391 305.102 596.508C305.693 595.101 306.21 593.547 306.58 592.066C310.126 584.367 318.327 577.927 328.819 575.558C344.704 572.005 359.777 579.259 362.511 591.622C363.028 593.547 363.102 595.62 362.88 597.692Z" stroke="black" stroke-width="4" stroke-miterlimit="10" stroke-linecap="round" stroke-linejoin="round"/>
<path d="M228.778 610.722C265.544 610.722 295.349 600.58 295.349 588.07C295.349 575.559 265.544 565.417 228.778 565.417C192.012 565.417 162.208 575.559 162.208 588.07C162.208 600.58 192.012 610.722 228.778 610.722Z" fill="#9B2121"/>
<path d="M228.778 610.722C265.544 610.722 295.349 600.58 295.349 588.07C295.349 575.559 265.544 565.417 228.778 565.417C192.012 565.417 162.208 575.559 162.208 588.07C162.208 600.58 192.012 610.722 228.778 610.722Z" stroke="black" stroke-width="4" stroke-miterlimit="10" stroke-linecap="round" stroke-linejoin="round"/>
<path d="M304.585 538.618H151.199C139.451 538.618 130.363 528.328 131.841 516.632L138.638 462.221C140.559 446.675 153.711 435.053 169.374 435.053H286.557C302.146 435.053 315.298 446.675 317.293 462.221L324.09 516.632C325.42 528.328 316.332 538.618 304.585 538.618Z" fill="#F1534D"/>
<path d="M304.585 538.618H151.199C139.451 538.618 130.363 528.328 131.841 516.632L138.638 462.221C140.559 446.675 153.711 435.053 169.374 435.053H286.557C302.146 435.053 315.298 446.675 317.293 462.221L324.09 516.632C325.42 528.328 316.332 538.618 304.585 538.618Z" stroke="black" stroke-width="4" stroke-miterlimit="10" stroke-linecap="round" stroke-linejoin="round"/>
<path d="M167.823 481.023L166.345 499.605" stroke="black" stroke-width="4" stroke-miterlimit="10" stroke-linecap="round" stroke-linejoin="round"/>
<path d="M289.069 481.023L290.547 499.605" stroke="black" stroke-width="4" stroke-miterlimit="10" stroke-linecap="round" stroke-linejoin="round"/>
<path d="M304.585 538.618H151.199C139.451 538.618 130.363 528.328 131.841 516.632L138.638 462.221C140.559 446.675 153.711 435.053 169.374 435.053H286.557C302.146 435.053 315.298 446.675 317.293 462.221L324.09 516.632C325.42 528.328 316.332 538.618 304.585 538.618Z" fill="#F1534D"/>
<g opacity="0.24">
<path opacity="0.24" d="M138.564 467.996C140.485 452.45 153.637 440.828 169.301 440.828H286.483C302.073 440.828 315.224 452.45 317.219 467.996L323.943 521.963C324.164 520.26 324.238 518.484 324.017 516.633L317.219 462.222C315.298 446.676 302.146 435.054 286.483 435.054H169.301C153.711 435.054 140.559 446.676 138.564 462.222L131.767 516.633C131.545 518.41 131.545 520.186 131.841 521.963L138.564 467.996Z" fill="#9B2121"/>
<path opacity="0.24" d="M176.098 440.827C176.098 440.827 185.186 442.456 185.925 447.49C186.516 451.562 186.442 454.227 187.994 455.855C189.545 457.484 193.166 460.815 200.48 460.815C196.417 456.744 196.343 442.456 195.234 442.456C194.2 442.456 191.54 435.349 191.54 435.349L187.994 433.721C188.068 433.721 174.99 435.349 176.098 440.827Z" fill="#9B2121"/>
<path opacity="0.24" d="M273.183 440.827C273.183 440.827 264.096 442.456 263.357 447.49C262.766 451.562 262.84 454.227 261.288 455.855C259.736 457.41 256.116 460.815 248.801 460.815C252.865 456.744 252.939 442.456 254.047 442.456C255.082 442.456 257.741 435.349 257.741 435.349L261.288 433.721C261.214 433.721 274.292 435.349 273.183 440.827Z" fill="#9B2121"/>
</g>
<path d="M304.585 538.618H151.199C139.451 538.618 130.363 528.328 131.841 516.632L138.638 462.221C140.559 446.675 153.711 435.053 169.374 435.053H286.557C302.146 435.053 315.298 446.675 317.293 462.221L324.09 516.632C325.42 528.328 316.332 538.618 304.585 538.618Z" stroke="black" stroke-width="4" stroke-miterlimit="10" stroke-linecap="round" stroke-linejoin="round"/>
<path d="M167.823 481.024L166.345 499.605" stroke="black" stroke-width="4" stroke-miterlimit="10" stroke-linecap="round" stroke-linejoin="round"/>
<path d="M289.069 481.024L290.547 499.605" stroke="black" stroke-width="4" stroke-miterlimit="10" stroke-linecap="round" stroke-linejoin="round"/>
<path d="M208.164 404.109L183.856 402.851L172.478 404.109C172.478 404.109 164.867 409.809 164.867 411.364C164.867 412.918 165.606 425.577 165.606 425.577C165.606 425.577 183.56 428.02 185.481 429.871C187.402 431.722 198.781 442.382 198.781 442.382L209.79 438.088L215.553 422.69L208.164 404.109Z" fill="#9B2121"/>
<path d="M203.879 394.707H175.803C164.498 394.707 155.262 403.887 155.262 415.287C155.262 426.613 164.424 435.867 175.803 435.867H179.497C185.482 435.867 190.284 440.679 190.284 446.675V447.785C190.284 454.966 196.121 460.814 203.288 460.814V447.489C203.436 447.489 203.583 447.637 203.583 447.785V446.675C203.583 433.35 192.796 422.542 179.497 422.542H175.803C171.813 422.542 168.562 419.284 168.562 415.287C168.562 411.289 171.813 408.032 175.803 408.032H203.879V394.707Z" fill="#F1534D"/>
<path d="M202.18 438.31C198.781 429.131 189.915 422.468 179.571 422.468H175.877C171.887 422.468 168.636 419.211 168.636 415.214C168.636 411.216 171.887 407.959 175.877 407.959H203.953V394.634H175.877C164.572 394.634 155.336 403.813 155.336 415.214C155.336 426.54 164.498 435.794 175.877 435.794H179.571C185.556 435.794 190.358 440.605 190.358 446.602V447.712C190.358 454.893 196.195 460.741 203.362 460.741" stroke="black" stroke-width="4" stroke-miterlimit="10" stroke-linecap="round" stroke-linejoin="round"/>
<path d="M240.305 404.109L264.613 402.851L275.991 404.109C275.991 404.109 283.601 409.809 283.601 411.364C283.601 412.918 282.863 425.577 282.863 425.577C282.863 425.577 264.908 428.02 262.987 429.871C261.066 431.796 249.688 442.382 249.688 442.382L238.679 438.088L232.916 422.69L240.305 404.109Z" fill="#9B2121"/>
<path d="M244.59 394.707H272.666C283.971 394.707 293.206 403.887 293.206 415.287C293.206 426.613 284.045 435.867 272.666 435.867H268.972C262.987 435.867 258.185 440.679 258.185 446.675V447.785C258.185 454.966 252.348 460.814 245.181 460.814V447.489C245.033 447.489 244.885 447.637 244.885 447.785V446.675C244.885 433.35 255.673 422.542 268.972 422.542H272.666C276.656 422.542 279.907 419.284 279.907 415.287C279.907 411.289 276.656 408.032 272.666 408.032H244.59V394.707Z" fill="#F1534D"/>
<path d="M246.363 438.31C249.762 429.131 258.628 422.468 268.972 422.468H272.666C276.656 422.468 279.907 419.211 279.907 415.214C279.907 411.216 276.656 407.959 272.666 407.959H244.59V394.634H272.666C283.971 394.634 293.206 403.813 293.206 415.214C293.206 426.54 284.045 435.794 272.666 435.794H268.972C262.987 435.794 258.185 440.605 258.185 446.602V447.712C258.185 454.893 252.348 460.741 245.181 460.741" stroke="black" stroke-width="4" stroke-miterlimit="10" stroke-linecap="round" stroke-linejoin="round"/>
<path d="M225.601 450.303C241.515 450.303 254.416 437.377 254.416 421.432C254.416 405.487 241.515 392.561 225.601 392.561C209.687 392.561 196.786 405.487 196.786 421.432C196.786 437.377 209.687 450.303 225.601 450.303Z" fill="#F46262"/>
<path d="M198.042 412.918C206.022 418.026 215.479 421.061 225.601 421.061C235.724 421.061 245.181 418.1 253.16 412.918C249.54 401.074 238.605 392.486 225.601 392.486C212.671 392.56 201.662 401.148 198.042 412.918Z" fill="#F1534D"/>
<path d="M225.601 450.303C241.515 450.303 254.416 437.377 254.416 421.432C254.416 405.487 241.515 392.561 225.601 392.561C209.687 392.561 196.786 405.487 196.786 421.432C196.786 437.377 209.687 450.303 225.601 450.303Z" stroke="black" stroke-width="4" stroke-miterlimit="10" stroke-linecap="round" stroke-linejoin="round"/>
<path d="M225.601 438.162C216.218 438.162 208.608 430.537 208.608 421.136V408.403C208.608 406.034 210.529 404.109 212.893 404.109H238.383C240.748 404.109 242.669 406.034 242.669 408.403V421.136C242.595 430.537 234.985 438.162 225.601 438.162Z" fill="#FFC897"/>
<path d="M238.383 404.109H212.893C210.529 404.109 208.608 406.182 208.608 408.699V419.137C213.927 421.136 219.617 422.246 225.601 422.246C231.586 422.246 237.275 421.136 242.595 419.137V408.699C242.595 406.182 240.674 404.109 238.383 404.109Z" fill="#E5A973"/>
<path d="M225.601 438.162C216.218 438.162 208.608 430.537 208.608 421.136V408.403C208.608 406.034 210.529 404.109 212.893 404.109H238.383C240.748 404.109 242.669 406.034 242.669 408.403V421.136C242.595 430.537 234.985 438.162 225.601 438.162Z" stroke="black" stroke-width="4" stroke-miterlimit="10" stroke-linecap="round" stroke-linejoin="round"/>
<path d="M243.999 629.97H228.187V680.531H243.999V629.97Z" fill="#607691"/>
<path d="M243.999 629.97H228.187V680.531H243.999V629.97Z" stroke="black" stroke-width="4" stroke-miterlimit="10" stroke-linecap="round" stroke-linejoin="round"/>
<path d="M150.682 596.508C150.017 594.954 149.499 593.399 149.056 591.696C149.869 593.325 150.386 594.88 150.682 596.508Z" stroke="black" stroke-width="4" stroke-miterlimit="10" stroke-linecap="round" stroke-linejoin="round"/>
<path d="M305.176 596.361C305.471 594.806 305.989 593.325 306.653 591.919C306.284 593.474 305.767 594.954 305.176 596.361Z" stroke="black" stroke-width="4" stroke-miterlimit="10" stroke-linecap="round" stroke-linejoin="round"/>
<path d="M304.954 592.807H150.903C145.436 592.807 140.781 588.736 140.042 583.258L130.437 507.897C129.624 501.382 134.722 495.534 141.298 495.534H314.559C321.135 495.534 326.233 501.308 325.42 507.897L315.815 583.258C315.076 588.662 310.422 592.807 304.954 592.807Z" fill="#B5B5B5"/>
<path opacity="0.21" d="M315.741 578.52C315.076 583.998 310.422 588.07 304.88 588.07H150.903C145.436 588.07 140.781 583.998 140.042 578.52L130.585 504.27C130.363 505.454 130.289 506.638 130.437 507.897L140.042 583.258C140.707 588.736 145.362 592.807 150.903 592.807H304.954C310.422 592.807 315.076 588.736 315.815 583.258L325.42 507.897C325.568 506.638 325.494 505.454 325.273 504.27L315.741 578.52Z" fill="#7E7E7E"/>
<path opacity="0.21" d="M130.511 508.563C131.397 503.529 135.831 499.532 141.224 499.532H314.485C319.953 499.532 324.312 503.455 325.199 508.563L325.273 507.823C326.085 501.308 320.987 495.46 314.411 495.46H141.298C134.722 495.46 129.624 501.234 130.437 507.823L130.511 508.563Z" fill="#7E7E7E"/>
<path d="M304.954 592.807H150.903C145.436 592.807 140.781 588.736 140.042 583.258L130.437 507.897C129.624 501.382 134.722 495.534 141.298 495.534H314.559C321.135 495.534 326.233 501.308 325.42 507.897L315.815 583.258C315.076 588.662 310.422 592.807 304.954 592.807Z" stroke="black" stroke-width="4" stroke-miterlimit="10" stroke-linecap="round" stroke-linejoin="round"/>
<path opacity="0.66" d="M235.206 539.581C231.882 539.581 229.222 536.916 229.222 533.585C229.222 533.363 229.222 533.141 229.296 532.919C228.704 532.845 228.113 532.771 227.522 532.771C222.129 532.771 217.696 537.212 217.696 542.616C217.696 548.02 222.129 552.462 227.522 552.462C232.916 552.462 237.349 548.02 237.349 542.616C237.349 541.506 237.127 540.395 236.832 539.359C236.315 539.433 235.797 539.581 235.206 539.581Z" fill="#B5B5B5"/>
<path d="M311.456 658.693C309.018 650.772 301.555 646.552 289.438 642.999C281.754 640.778 272.001 639.741 256.707 636.632C249.245 635.152 243.999 632.19 243.999 632.19V640.704C243.999 640.704 294.61 650.697 302.516 663.8C306.358 670.241 305.176 686.009 287.074 687.638C292.615 688.452 301.703 687.045 306.58 682.085C312.638 675.941 314.264 667.724 311.456 658.693Z" fill="#282323" stroke="black" stroke-width="4" stroke-miterlimit="10" stroke-linecap="round" stroke-linejoin="round"/>
<path d="M243.999 640.703C243.999 640.703 274.292 646.329 290.473 653.288C304.659 659.432 304.215 665.799 304.585 672.313C304.806 676.089 302.147 685.416 291.359 687.045C278.503 688.97 263.357 686.897 243.999 674.534C243.999 644.256 243.999 640.703 243.999 640.703Z" fill="#442C2A"/>
<path opacity="0.37" d="M304.585 672.314C304.289 667.058 304.511 661.876 297.122 656.842C297.418 658.693 297.492 660.469 297.566 662.32C297.787 666.095 295.127 675.423 284.34 677.052C273.11 678.754 260.032 677.348 243.999 668.686C243.999 670.537 243.999 672.462 243.999 674.461C263.357 686.823 278.503 688.822 291.359 686.971C302.22 685.417 304.806 676.015 304.585 672.314Z" fill="#442C2A"/>
<path d="M243.999 640.703C243.999 640.703 274.292 646.329 290.473 653.288C304.659 659.432 304.215 665.799 304.585 672.313C304.806 676.089 302.147 685.416 291.359 687.045C278.503 688.97 263.357 686.897 243.999 674.534C243.999 644.256 243.999 640.703 243.999 640.703Z" stroke="black" stroke-width="4" stroke-miterlimit="10" stroke-linecap="round" stroke-linejoin="round"/>
<path d="M272.075 658.1C274.513 659.432 273.922 672.387 268.011 674.164" stroke="black" stroke-width="4" stroke-miterlimit="10" stroke-linecap="round" stroke-linejoin="round"/>
<path d="M262.839 657.139C265.352 660.692 263.578 669.057 259.071 671.13" stroke="black" stroke-width="4" stroke-miterlimit="10" stroke-linecap="round" stroke-linejoin="round"/>
<path d="M254.343 654.178C256.855 657.731 255.081 666.096 250.574 668.169" stroke="black" stroke-width="4" stroke-miterlimit="10" stroke-linecap="round" stroke-linejoin="round"/>
<path d="M199.667 453.264V492.647" stroke="black" stroke-width="6" stroke-miterlimit="10" stroke-linecap="round" stroke-linejoin="round"/>
<path d="M249.54 453.264V481.024" stroke="black" stroke-width="6" stroke-miterlimit="10" stroke-linecap="round" stroke-linejoin="round"/>
<path d="M249.54 489.389C252.927 489.389 255.673 486.638 255.673 483.245C255.673 479.851 252.927 477.101 249.54 477.101C246.153 477.101 243.408 479.851 243.408 483.245C243.408 486.638 246.153 489.389 249.54 489.389Z" fill="black"/>
<path d="M249.54 485.022C250.928 485.022 252.052 483.896 252.052 482.505C252.052 481.115 250.928 479.988 249.54 479.988C248.153 479.988 247.028 481.115 247.028 482.505C247.028 483.896 248.153 485.022 249.54 485.022Z" fill="#7E7E7E"/>
<path d="M225.601 416.62C199.889 416.62 178.979 395.744 178.979 369.908V315.72H272.223V369.908C272.223 395.67 251.387 416.62 225.601 416.62Z" fill="#FFC897"/>
<path d="M225.601 410.18C199.889 410.18 178.979 389.304 178.979 363.468V369.908C178.979 395.67 199.815 416.62 225.601 416.62C251.313 416.62 272.223 395.744 272.223 369.908V363.468C272.223 389.23 251.387 410.18 225.601 410.18Z" fill="#E5A973"/>
<path d="M225.601 416.62C199.889 416.62 178.979 395.744 178.979 369.908V315.72H272.223V369.908C272.223 395.67 251.387 416.62 225.601 416.62Z" stroke="black" stroke-width="4" stroke-miterlimit="10" stroke-linecap="round" stroke-linejoin="round"/>
<path d="M272.592 321.123C272.445 318.606 272.297 316.015 272.223 313.498C241.191 314.979 210.011 314.757 179.053 312.018C178.832 314.905 178.684 317.792 178.462 320.679C179.866 321.937 181.344 323.27 182.748 324.528C183.93 325.121 185.482 325.935 186.885 326.675C193.092 329.932 201.736 334.078 210.011 335.707C213.041 336.299 216.218 336.595 219.469 336.521C233.433 336.373 245.181 330.821 250.131 328.526C250.87 328.156 251.461 327.86 251.831 327.786C252.126 327.638 252.422 327.564 252.865 327.564C253.752 327.564 254.786 327.786 256.042 328.008C257.667 328.378 259.588 328.748 261.731 328.6C264.169 328.452 266.386 327.712 268.529 326.305C269.785 324.528 271.189 322.826 272.592 321.123Z" fill="#E5A973"/>
<path d="M250.131 292.992C250.131 292.992 212.819 268.341 181.935 295.879C176.172 300.987 173.882 308.316 173.882 315.053V350.734H179.054V324.824C179.054 322.9 180.384 321.419 182.009 321.419C184.669 321.419 199.077 329.118 211.268 331.265C229.665 334.448 246.437 325.935 250.057 324.676C256.264 322.455 261.288 330.154 269.12 321.493H269.415C271.041 321.493 272.371 323.048 272.371 324.898V350.808H277.543V315.275C277.395 306.539 267.347 284.627 250.131 292.992Z" fill="#231A17"/>
<g opacity="0.34">
<path opacity="0.34" d="M178.98 345.849H173.808V350.735H178.98V345.849Z" fill="#231A17"/>
<path opacity="0.34" d="M277.395 345.849H272.223V350.735H277.395V345.849Z" fill="#231A17"/>
</g>
<path d="M250.131 292.992C250.131 292.992 212.819 268.341 181.935 295.879C176.172 300.987 173.882 308.316 173.882 315.053V350.734H179.054V324.824C179.054 322.9 180.384 321.419 182.009 321.419C184.669 321.419 199.077 329.118 211.268 331.265C229.665 334.448 246.437 325.935 250.057 324.676C256.264 322.455 261.288 330.154 269.12 321.493H269.415C271.041 321.493 272.371 323.048 272.371 324.898V350.808H277.543V315.275C277.395 306.539 267.347 284.627 250.131 292.992Z" stroke="black" stroke-width="4" stroke-miterlimit="10" stroke-linecap="round" stroke-linejoin="round"/>
<path d="M218.582 317.051C218.582 317.051 178.536 319.642 170.04 298.322" stroke="black" stroke-width="4" stroke-miterlimit="10" stroke-linecap="round" stroke-linejoin="round"/>
<path d="M224.271 311.944C224.271 311.944 185.703 309.501 175.655 288.181" stroke="black" stroke-width="4" stroke-miterlimit="10" stroke-linecap="round" stroke-linejoin="round"/>
<path d="M272.223 344.96V369.241C277.395 369.241 281.532 363.837 281.532 357.101C281.532 350.364 277.395 344.96 272.223 344.96Z" fill="#FFC897"/>
<path d="M272.223 346.293V367.835C275.252 365.836 277.321 361.765 277.321 357.027C277.321 352.363 275.252 348.292 272.223 346.293Z" fill="#E5A973"/>
<path d="M272.223 344.96V369.241C277.395 369.241 281.532 363.837 281.532 357.101C281.532 350.364 277.395 344.96 272.223 344.96Z" stroke="black" stroke-width="4" stroke-miterlimit="10" stroke-linecap="round" stroke-linejoin="round"/>
<path d="M179.053 344.96V369.241C173.881 369.241 169.744 363.837 169.744 357.101C169.67 350.364 173.881 344.96 179.053 344.96Z" fill="#FFC897"/>
<path d="M179.053 346.737C176.394 348.884 174.546 352.734 174.546 357.101C174.546 361.469 176.32 365.318 179.053 367.465V346.737Z" fill="#E5A973"/>
<path d="M179.053 344.96V369.241C173.881 369.241 169.744 363.837 169.744 357.101C169.67 350.364 173.881 344.96 179.053 344.96Z" stroke="black" stroke-width="4" stroke-miterlimit="10" stroke-linecap="round" stroke-linejoin="round"/>
<path d="M223.68 364.726L220.577 374.867C220.577 375.978 224.198 375.09 227.892 375.978" stroke="black" stroke-width="4" stroke-miterlimit="10" stroke-linecap="round" stroke-linejoin="round"/>
<path d="M241.117 383.677C242.225 391.376 232.325 398.186 224.567 396.78" stroke="black" stroke-width="3" stroke-miterlimit="10" stroke-linecap="round" stroke-linejoin="round"/>
<path d="M208.829 356.139C210.543 356.139 211.932 354.647 211.932 352.808C211.932 350.968 210.543 349.477 208.829 349.477C207.115 349.477 205.726 350.968 205.726 352.808C205.726 354.647 207.115 356.139 208.829 356.139Z" stroke="black" stroke-width="2" stroke-miterlimit="10" stroke-linecap="round" stroke-linejoin="round"/>
<path d="M208.829 356.139C210.543 356.139 211.932 354.647 211.932 352.808C211.932 350.968 210.543 349.477 208.829 349.477C207.115 349.477 205.726 350.968 205.726 352.808C205.726 354.647 207.115 356.139 208.829 356.139Z" fill="black"/>
<path d="M198.116 345.775C199.668 343.925 203.288 342.666 207.573 342.666C210.972 342.666 213.927 343.48 215.775 344.739" stroke="black" stroke-width="3" stroke-miterlimit="10" stroke-linecap="round" stroke-linejoin="round"/>
<path d="M242.817 356.139C244.531 356.139 245.92 354.647 245.92 352.808C245.92 350.968 244.531 349.477 242.817 349.477C241.102 349.477 239.713 350.968 239.713 352.808C239.713 354.647 241.102 356.139 242.817 356.139Z" stroke="black" stroke-width="2" stroke-miterlimit="10" stroke-linecap="round" stroke-linejoin="round"/>
<path d="M242.817 356.139C244.531 356.139 245.92 354.647 245.92 352.808C245.92 350.968 244.531 349.477 242.817 349.477C241.102 349.477 239.713 350.968 239.713 352.808C239.713 354.647 241.102 356.139 242.817 356.139Z" fill="black"/>
<path d="M253.53 345.775C251.978 343.925 248.358 342.666 244.073 342.666C240.674 342.666 237.718 343.48 235.871 344.739" stroke="black" stroke-width="3" stroke-miterlimit="10" stroke-linecap="round" stroke-linejoin="round"/>
</g>
<path opacity="0.69" d="M1112.61 160.277H932.026C916.756 160.277 904.376 147.9 904.376 132.633C904.376 117.367 916.756 104.99 932.026 104.99H993.07C1008.38 104.99 1020.72 92.6573 1020.72 77.3472C1020.72 62.0372 1008.38 49.7041 993.07 49.7041H721.457C706.142 49.7041 693.806 62.0372 693.806 77.3472C693.806 92.6573 706.142 104.99 721.457 104.99H780.374C795.688 104.99 808.024 117.323 808.024 132.633C808.024 147.944 795.688 160.277 780.374 160.277H591.074C575.759 160.277 563.423 172.61 563.423 187.92C563.423 203.23 575.759 215.563 591.074 215.563H666.368C681.682 215.563 694.019 227.896 694.019 243.206C694.019 258.516 681.682 270.849 666.368 270.849H634.57C619.256 270.849 606.92 283.182 606.92 298.492C606.92 313.802 619.256 326.135 634.57 326.135H739.429V381.422H658.605C643.291 381.422 630.954 393.755 630.954 409.065C630.954 424.375 643.291 436.708 658.605 436.708H806.003C821.318 436.708 833.654 449.041 833.654 464.351C833.654 479.661 821.318 491.994 806.003 491.994H723.584C708.269 491.994 695.933 504.327 695.933 519.637C695.933 534.947 708.269 547.28 723.584 547.28H1039.01C1054.33 547.28 1066.66 534.947 1066.66 519.637C1066.66 504.327 1054.33 491.994 1039.01 491.994H959.783V436.708H984.881C1000.2 436.708 1012.53 424.375 1012.53 409.065C1012.53 393.755 1000.2 381.422 984.881 381.422H959.783V326.135H1064.64C1079.96 326.135 1092.29 313.802 1092.29 298.492C1092.29 283.182 1079.96 270.849 1064.64 270.849H1020.72C1005.45 270.849 993.07 258.472 993.07 243.206C993.07 227.94 1005.45 215.563 1020.72 215.563H1112.82C1128.13 215.563 1140.47 203.23 1140.47 187.92C1140.26 172.716 1127.92 160.277 1112.61 160.277Z" fill="#23323E"/>
<path d="M866.303 270.85H810.257C794.943 270.85 782.607 258.517 782.607 243.207C782.607 227.897 794.943 215.563 810.257 215.563H866.303C881.617 215.563 893.954 227.897 893.954 243.207C893.954 258.517 881.617 270.85 866.303 270.85Z" fill="#B6C7D6"/>
<path opacity="0.69" d="M1067.73 436.708H1106.22C1121.54 436.708 1133.88 424.375 1133.88 409.065C1133.88 393.755 1121.54 381.422 1106.22 381.422H1067.73C1052.41 381.422 1040.08 393.755 1040.08 409.065C1040.08 424.375 1052.41 436.708 1067.73 436.708Z" fill="#395D77"/>
<path opacity="0.69" d="M1161.53 326.136H1148.34C1133.02 326.136 1120.69 313.803 1120.69 298.493C1120.69 283.183 1133.02 270.85 1148.34 270.85H1161.53C1176.84 270.85 1189.18 283.183 1189.18 298.493C1189.18 313.803 1176.84 326.136 1161.53 326.136Z" fill="#202223"/>
<path opacity="0.69" d="M607.558 547.28H659.243C674.557 547.28 686.894 534.947 686.894 519.637C686.894 504.327 674.557 491.994 659.243 491.994H607.558C592.244 491.994 579.907 504.327 579.907 519.637C579.907 534.947 592.244 547.28 607.558 547.28Z" fill="#395D77"/>
<path opacity="0.69" d="M525.457 215.564C540.771 215.564 553.107 203.231 553.107 187.92C553.107 172.61 540.771 160.277 525.457 160.277C510.143 160.277 497.806 172.61 497.806 187.92C497.806 203.231 510.143 215.564 525.457 215.564Z" fill="#6B7882"/>
<path opacity="0.5" d="M600.432 378.87H571.506C556.192 378.87 543.855 366.537 543.855 351.227C543.855 335.917 556.192 323.584 571.506 323.584H600.432C615.747 323.584 628.083 335.917 628.083 351.227C628.083 366.431 615.747 378.87 600.432 378.87Z" fill="#825D7E"/>
<path d="M1012.43 381.422H893.635C878.32 381.422 865.984 369.089 865.984 353.779C865.984 338.469 878.32 326.136 893.635 326.136H1012.43C1027.74 326.136 1040.08 338.469 1040.08 353.779C1040.08 369.089 1027.74 381.422 1012.43 381.422Z" fill="#4A6D8B"/>
<path d="M726.349 320.819H607.558C592.244 320.819 579.907 308.486 579.907 293.176C579.907 277.866 592.244 265.533 607.558 265.533H726.349C741.663 265.533 753.999 277.866 753.999 293.176C753.999 308.486 741.663 320.819 726.349 320.819Z" fill="#684463"/>
<path d="M1082.83 491.994H964.037C948.723 491.994 936.386 479.661 936.386 464.351C936.386 449.041 948.723 436.708 964.037 436.708H1082.83C1098.14 436.708 1110.48 449.041 1110.48 464.351C1110.48 479.661 1098.14 491.994 1082.83 491.994Z" fill="#4A6D8B"/>
<path opacity="0.56" d="M1262.34 599.165H436.656C428.999 599.165 422.831 592.998 422.831 585.343C422.831 577.688 428.999 571.521 436.656 571.521H1262.24C1269.89 571.521 1276.06 577.688 1276.06 585.343C1276.17 592.998 1269.89 599.165 1262.34 599.165Z" fill="#2D4659"/>
<path d="M802.388 477.96H781.118V584.28H802.388V477.96Z" fill="#8BBF98"/>
<path d="M815.149 477.96H802.388V584.28H815.149V477.96Z" fill="#63916E"/>
<path d="M921.498 477.96H900.228V584.28H921.498V477.96Z" fill="#8BBF98"/>
<path d="M934.26 477.96H921.498V584.28H934.26V477.96Z" fill="#63916E"/>
<path d="M1010.83 477.96H989.561V584.28H1010.83V477.96Z" fill="#8BBF98"/>
<path d="M1023.59 477.96H1010.83V584.28H1023.59V477.96Z" fill="#63916E"/>
<path d="M1092.08 499.225H1079.32V584.28H1092.08V499.225Z" fill="#8BBF98"/>
<path d="M1100.59 499.225H1092.08V584.28H1100.59V499.225Z" fill="#63916E"/>
<path d="M1172.8 499.225H1160.04V584.28H1172.8V499.225Z" fill="#8BBF98"/>
<path d="M1181.31 499.225H1172.8V584.28H1181.31V499.225Z" fill="#63916E"/>
<path d="M1181.31 499.225H1172.8V503.477H1181.31V499.225Z" fill="#55845F"/>
<path d="M1172.8 499.225H1160.04V503.477H1172.8V499.225Z" fill="#63916E"/>
<path d="M1140.26 380.146H1127.49V584.28H1140.26V380.146Z" fill="#8BBF98"/>
<path d="M1148.76 380.146H1140.26V584.28H1148.76V380.146Z" fill="#63916E"/>
<path d="M1221.08 380.146H1208.32V584.28H1221.08V380.146Z" fill="#8BBF98"/>
<path d="M1229.59 380.146H1221.08V584.28H1229.59V380.146Z" fill="#63916E"/>
<path d="M776.226 422.674H751.128V239.804H776.226C779.736 239.804 782.607 242.674 782.607 246.183V416.294C782.607 419.803 779.842 422.674 776.226 422.674Z" fill="#EF6562"/>
<path d="M768.25 422.674H508.76C505.251 422.674 502.379 419.803 502.379 416.294V246.183C502.379 242.674 505.251 239.804 508.76 239.804H768.25C771.759 239.804 774.631 242.674 774.631 246.183V416.294C774.631 419.803 771.759 422.674 768.25 422.674Z" fill="#EC958B"/>
<path d="M761.804 409.849V252.496L515.076 252.495V409.849H761.804Z" fill="#34515B"/>
<path d="M518.267 409.849V252.496H515.076V409.849H518.267Z" fill="#D84E4E"/>
<path d="M761.869 252.456H757.828V409.809H761.869V252.456Z" fill="#284249"/>
<path d="M660.626 422.674H641.27V584.28H660.626V422.674Z" fill="#D84E4E"/>
<path d="M652.543 422.674H633.188V584.28H652.543V422.674Z" fill="#EF6562"/>
<path d="M652.543 422.674H633.188V430.542H652.543V422.674Z" fill="#D84E4E"/>
<path d="M718.266 584.279H587.777V571.521C587.777 564.504 593.52 558.763 600.539 558.763H705.504C712.523 558.763 718.266 564.504 718.266 571.521V584.279Z" fill="#EF6562"/>
<path d="M706.462 584.279H575.972V571.521C575.972 564.504 581.715 558.763 588.734 558.763H693.7C700.719 558.763 706.462 564.504 706.462 571.521V584.279Z" fill="#EC958B"/>
<path d="M921.498 457.653H781.118V477.96H921.498V457.653Z" fill="#8BBF98"/>
<path d="M1023.59 457.653H921.498V477.96H1023.59V457.653Z" fill="#63916E"/>
<path d="M910.863 443.513H773.674V457.653H910.863V443.513Z" fill="#9FD6A3"/>
<path d="M921.498 457.653H781.118V461.906H921.498V457.653Z" fill="#63916E"/>
<path d="M1033.8 443.513H910.863V457.653H1033.8V443.513Z" fill="#83B78D"/>
<path d="M1175.35 482.213H1073.26V499.224H1175.35V482.213Z" fill="#81B58C"/>
<path d="M1234.91 482.213H1175.35V499.224H1234.91V482.213Z" fill="#63916E"/>
<path d="M1208.32 390.565H1140.26V428.841H1208.32V390.565Z" fill="#81B58C"/>
<path d="M1229.59 499.225H1221.08V503.477H1229.59V499.225Z" fill="#55845F"/>
<path d="M1221.08 499.225H1208.32V503.477H1221.08V499.225Z" fill="#63916E"/>
<path d="M1140.26 499.225H1127.49V503.477H1140.26V499.225Z" fill="#63916E"/>
<path d="M1092.08 499.225H1079.32V503.477H1092.08V499.225Z" fill="#63916E"/>
<path d="M1100.59 499.225H1092.08V503.477H1100.59V499.225Z" fill="#55845F"/>
<path d="M1148.76 499.225H1140.26V503.477H1148.76V499.225Z" fill="#55845F"/>
<path d="M1023.59 457.653H921.498V461.906H1023.59V457.653Z" fill="#577F5D"/>
<path d="M960.867 322.595L950.959 323.928L962.99 413.284L972.897 411.951L960.867 322.595Z" fill="#DD5858"/>
<path d="M961.8 324.979L950.628 326.483L953.792 349.982L964.963 348.478L961.8 324.979Z" fill="#EF6562"/>
<path d="M950.866 328.47L948.758 328.754L948.957 330.228L951.065 329.944L950.866 328.47Z" fill="#E8E8E8"/>
<path d="M951.807 346.974L951.169 347.081L948.936 330.388L950.424 330.176L952.551 346.017C952.658 346.336 952.339 346.868 951.807 346.974Z" fill="#E8E8E8"/>
<path d="M964.361 348.457L954.454 349.79L954.609 350.949L964.518 349.616L964.361 348.457Z" fill="#D35050"/>
<path d="M938.513 350.483L929.899 353.141L925.964 340.489C925.433 338.788 926.39 336.98 928.091 336.449L930.644 335.705C932.345 335.173 934.153 336.13 934.685 337.831L938.513 350.483Z" fill="#E8E8E8"/>
<path d="M940.645 349.827L927.856 353.827L934.779 375.948L947.568 371.948L940.645 349.827Z" fill="#35393D"/>
<path d="M933.515 372.917L943.937 359.839L941.704 352.822L931.282 365.9L933.515 372.917Z" fill="#808284"/>
<path d="M946.923 372.034L935.353 375.653L949.293 420.2L960.865 416.581L946.923 372.034Z" fill="#3B4044"/>
<path opacity="0.66" d="M941.163 373.874L937.305 375.081L951.247 419.627L955.103 418.42L941.163 373.874Z" fill="#6D6F70"/>
<path d="M991.9 333.79L987.753 333.152L982.542 342.508L994.24 344.21L991.9 333.79Z" fill="#C5E1DF"/>
<path d="M978.607 420.335L975.523 419.91C973.183 419.591 971.588 417.358 971.907 415.019L982.648 342.509L994.24 344.21L983.499 416.72C983.18 419.059 980.946 420.76 978.607 420.335Z" fill="#B3DBAD"/>
<path d="M974.247 419.697L973.396 419.59C972.226 419.378 971.375 418.315 971.482 417.039L982.542 342.402L985.519 342.828L974.247 419.697Z" fill="#68A575"/>
<path d="M980.627 420.653L979.777 420.547L991.156 343.784L994.134 344.209L983.073 418.846C982.967 420.015 981.904 420.866 980.627 420.653Z" fill="#68A575"/>
<path d="M991.9 333.79L990.943 329.537C990.837 328.899 990.092 328.793 989.773 329.325L987.646 333.152L991.9 333.79Z" fill="#6F5A66"/>
<path d="M991.9 333.791L989.88 333.472L991.156 343.785L994.24 344.21L991.9 333.791Z" fill="#A5CECA"/>
<path d="M991.9 443.513H932.345V382.273C932.345 381.103 933.302 380.146 934.472 380.146H989.773C990.943 380.146 991.9 381.103 991.9 382.273V443.513Z" fill="#F2E07C"/>
<path d="M983.393 380.146V443.513H991.9V382.273C991.9 381.103 990.943 380.146 989.773 380.146H983.393Z" fill="#DFBB4D"/>
<path d="M950.956 411.829H917.882V443.512H950.956V411.829Z" fill="#6E7EE0"/>
<path d="M921.498 411.829H917.882V443.512H921.498V411.829Z" fill="#7A8CE2"/>
<path d="M946.123 443.429H950.908V411.746H946.123V443.429Z" fill="#6373C1"/>
<path d="M950.936 443.429H953.914V411.746H950.936V443.429Z" fill="#DFBB4D"/>
<path d="M844.076 418.527H819.191V443.406H844.076V418.527Z" fill="#EC958B"/>
<path d="M844.076 418.527H819.191V419.697H844.076V418.527Z" fill="#EF6562"/>
<path d="M857.263 418.527H844.076V443.406H857.263V418.527Z" fill="#EF6562"/>
<path d="M834.292 434.582H830.145L829.507 436.602H827.273L830.995 426.183H833.441L837.164 436.602H834.93L834.292 434.582ZM832.165 428.628L830.676 432.987H833.654L832.165 428.628Z" fill="white"/>
<path d="M879.384 418.527H854.498V443.406H879.384V418.527Z" fill="#E8B58B"/>
<path d="M892.571 418.527H879.384V443.406H892.571V418.527Z" fill="#E09D6C"/>
<path d="M867.047 426.183C869.6 426.183 870.77 427.671 870.77 429.372C870.77 430.648 870.025 431.924 868.43 432.349L870.876 436.602H868.43L866.09 432.562H865.133V436.602H863.006V426.183H867.047ZM867.047 427.884H865.346V430.967H867.047C868.217 430.967 868.749 430.329 868.749 429.372C868.643 428.522 868.111 427.884 867.047 427.884Z" fill="white"/>
<path d="M837.483 393.648H812.597V418.527H837.483V393.648Z" fill="#1BB1B2"/>
<path d="M850.67 393.648H837.483V418.527H850.67V393.648Z" fill="#19A5A1"/>
<path d="M828.443 401.304H830.676L826.848 411.723H824.295L820.467 401.304H822.7L825.572 409.597L828.443 401.304Z" fill="white"/>
<path d="M516.843 577.688C503.549 587.363 484.938 584.493 475.26 571.203C465.583 557.913 468.454 539.307 481.748 529.632L516.843 577.688Z" fill="#EF6562"/>
<path d="M481.748 529.631C495.041 519.956 513.652 522.827 523.33 536.117C533.008 549.407 530.136 568.013 516.843 577.688L481.748 529.631Z" fill="#F2E07C"/>
<path opacity="0.25" d="M503.762 524.209C515.035 528.462 523.011 539.306 523.011 552.065C523.011 568.544 509.717 581.834 493.233 581.834C491.745 581.834 490.256 581.728 488.767 581.515C492.064 582.791 495.573 583.429 499.295 583.429C515.779 583.429 529.073 570.139 529.073 553.66C529.073 538.668 518.119 526.335 503.762 524.209Z" fill="#A59A63"/>
<path d="M614.364 342.828C615.002 341.658 615.534 340.489 616.066 339.319C616.597 338.15 617.129 336.874 617.554 335.598C618.512 333.153 619.362 330.601 620.107 328.049C620.319 327.412 620.532 326.774 620.638 326.136L621.17 324.222C621.489 322.946 621.808 321.67 622.021 320.288C622.34 319.012 622.553 317.63 622.765 316.354C622.978 315.078 623.084 313.696 623.297 312.42L623.404 311.57L623.935 311.145C624.467 310.613 625.318 310.081 626.275 310.081C627.232 309.975 627.977 310.294 628.508 310.613C629.572 311.251 630.316 311.889 630.848 312.633C632.018 314.015 632.869 315.397 633.719 316.886C635.315 319.756 636.591 322.627 637.867 325.604C639.037 328.581 640.207 331.558 641.164 334.535C642.121 337.512 643.078 340.595 643.716 343.785C643.822 344.316 643.503 344.848 642.972 344.954C642.44 345.061 641.908 344.742 641.802 344.21C640.951 341.233 639.887 338.362 638.718 335.385C637.548 332.515 636.272 329.644 634.995 326.88C633.613 324.116 632.23 321.351 630.529 318.8C629.678 317.524 628.827 316.354 627.87 315.397C627.445 314.972 626.913 314.547 626.594 314.441C626.488 314.334 626.381 314.441 626.594 314.441C626.7 314.441 626.913 314.334 626.807 314.334L627.445 313.058C627.232 314.44 627.126 315.823 626.913 317.205C626.7 318.587 626.488 319.969 626.169 321.351C625.956 322.733 625.531 324.116 625.211 325.391L624.68 327.412C624.467 328.049 624.361 328.794 624.148 329.432C623.404 332.09 622.446 334.748 621.489 337.299C620.958 338.575 620.426 339.851 619.894 341.127C619.362 342.403 618.724 343.678 618.086 344.954C617.554 346.017 616.278 346.443 615.215 345.805C614.151 345.167 613.832 343.891 614.364 342.828Z" fill="#D1D1D1"/>
<path d="M615.959 329.006L642.546 326.242C643.503 326.135 644.354 326.879 644.46 327.836C644.567 328.793 643.929 329.644 642.972 329.75L616.385 333.259C615.215 333.365 614.151 332.621 614.045 331.451C613.939 330.282 614.789 329.219 615.959 329.006Z" fill="#D1D1D1"/>
<path d="M1204.49 402.155H1192.79C1190.98 402.155 1189.6 400.772 1189.6 398.965C1189.6 397.158 1190.98 395.775 1192.79 395.775H1204.49C1206.3 395.775 1207.68 397.158 1207.68 398.965C1207.68 400.666 1206.3 402.155 1204.49 402.155Z" fill="#8BBF98"/>
<path d="M1196.09 412.042H1183.33C1181.52 412.042 1180.14 410.66 1180.14 408.853C1180.14 407.045 1181.52 405.663 1183.33 405.663H1196.09C1197.9 405.663 1199.28 407.045 1199.28 408.853C1199.28 410.554 1197.9 412.042 1196.09 412.042Z" fill="#8BBF98"/>
<path opacity="0.74" d="M1185.99 423.738H1147.7C1145.89 423.738 1144.51 422.355 1144.51 420.548C1144.51 418.741 1145.89 417.358 1147.7 417.358H1185.99C1187.79 417.358 1189.18 418.741 1189.18 420.548C1189.18 422.355 1187.79 423.738 1185.99 423.738Z" fill="#8BBF98"/>
<path opacity="0.23" d="M617.129 571.522H592.669C590.861 571.522 589.479 570.14 589.479 568.332C589.479 566.525 590.861 565.143 592.669 565.143H617.129C618.937 565.143 620.32 566.525 620.32 568.332C620.32 570.033 618.937 571.522 617.129 571.522Z" fill="#EF6562"/>
<path opacity="0.23" d="M641.27 571.522H634.145C632.337 571.522 630.954 570.14 630.954 568.332C630.954 566.525 632.337 565.143 634.145 565.143H641.27C643.078 565.143 644.461 566.525 644.461 568.332C644.461 570.033 643.078 571.522 641.27 571.522Z" fill="#EF6562"/>
<path opacity="0.23" d="M694.232 579.495H665.73C663.922 579.495 662.54 578.113 662.54 576.306C662.54 574.498 663.922 573.116 665.73 573.116H694.232C696.039 573.116 697.422 574.498 697.422 576.306C697.422 578.007 696.039 579.495 694.232 579.495Z" fill="#EF6562"/>
<path opacity="0.23" d="M682.746 579.495H677.216C675.408 579.495 674.025 578.113 674.025 576.306C674.025 574.498 675.408 573.116 677.216 573.116H682.746C684.554 573.116 685.936 574.498 685.936 576.306C685.936 578.007 684.554 579.495 682.746 579.495Z" fill="#EF6562"/>
<path d="M1165.78 412.042H1160.25C1158.44 412.042 1157.06 410.66 1157.06 408.853C1157.06 407.045 1158.44 405.663 1160.25 405.663H1165.78C1167.59 405.663 1168.97 407.045 1168.97 408.853C1168.97 410.554 1167.59 412.042 1165.78 412.042Z" fill="#8BBF98"/>
<path d="M1175.46 402.155H1148.87C1147.06 402.155 1145.68 400.772 1145.68 398.965C1145.68 397.158 1147.06 395.775 1148.87 395.775H1175.46C1177.27 395.775 1178.65 397.158 1178.65 398.965C1178.65 400.666 1177.27 402.155 1175.46 402.155Z" fill="#8BBF98"/>
<path opacity="0.18" d="M819.829 467.754H797.708C796.751 467.754 795.901 467.009 795.901 465.946C795.901 464.989 796.645 464.139 797.708 464.139H819.829C820.786 464.139 821.637 464.883 821.637 465.946C821.53 467.009 820.786 467.754 819.829 467.754Z" fill="#63916E"/>
<path opacity="0.18" d="M836.738 467.754H826.635C825.678 467.754 824.827 467.009 824.827 465.946C824.827 464.989 825.572 464.139 826.635 464.139H836.738C837.695 464.139 838.546 464.883 838.546 465.946C838.44 467.009 837.695 467.754 836.738 467.754Z" fill="#63916E"/>
<path opacity="0.18" d="M850.457 473.92H828.656C827.699 473.92 826.848 473.175 826.848 472.112C826.848 471.155 827.592 470.305 828.656 470.305H850.457C851.414 470.305 852.265 471.049 852.265 472.112C852.159 473.069 851.414 473.92 850.457 473.92Z" fill="#63916E"/>
<path opacity="0.18" d="M889.274 473.92H882.787C881.83 473.92 880.979 473.175 880.979 472.112C880.979 471.155 881.723 470.305 882.787 470.305H889.274C890.231 470.305 891.082 471.049 891.082 472.112C890.976 473.069 890.231 473.92 889.274 473.92Z" fill="#63916E"/>
<path opacity="0.18" d="M895.761 468.817H889.274C888.317 468.817 887.466 468.073 887.466 467.01C887.466 466.053 888.211 465.202 889.274 465.202H895.761C896.719 465.202 897.569 465.946 897.569 467.01C897.569 467.966 896.825 468.817 895.761 468.817Z" fill="#63916E"/>
<path opacity="0.26" d="M963.931 473.92H938.939C937.982 473.92 937.131 473.175 937.131 472.112C937.131 471.155 937.875 470.305 938.939 470.305H963.931C964.888 470.305 965.739 471.049 965.739 472.112C965.632 473.069 964.888 473.92 963.931 473.92Z" fill="#8BBF98"/>
<path opacity="0.26" d="M999.557 473.92H993.07C992.113 473.92 991.262 473.175 991.262 472.112C991.262 471.155 992.007 470.305 993.07 470.305H999.557C1000.51 470.305 1001.37 471.049 1001.37 472.112C1001.26 473.069 1000.51 473.92 999.557 473.92Z" fill="#8BBF98"/>
<path opacity="0.26" d="M970.737 467.86H956.699C955.742 467.86 954.891 467.116 954.891 466.053C954.891 465.096 955.636 464.245 956.699 464.245H970.737C971.694 464.245 972.545 464.989 972.545 466.053C972.545 467.116 971.801 467.86 970.737 467.86Z" fill="#8BBF98"/>
<defs>
<clipPath id="clip0_177_155">
<rect width="484.884" height="464" fill="white" transform="translate(42.8452)"/>
</clipPath>
<clipPath id="clip1_177_155">
<rect width="363.663" height="393" fill="white" transform="translate(0 281)"/>
</clipPath>
</defs>
</svg>
