<svg width="29" height="29" viewBox="0 0 29 29" fill="none" xmlns="http://www.w3.org/2000/svg">
<path d="M15.8594 14.5C15.8594 14.7689 15.7796 15.0317 15.6303 15.2552C15.4809 15.4788 15.2686 15.653 15.0202 15.7559C14.7718 15.8588 14.4985 15.8857 14.2348 15.8333C13.9711 15.7808 13.7289 15.6513 13.5388 15.4612C13.3487 15.2711 13.2192 15.0289 13.1667 14.7652C13.1143 14.5015 13.1412 14.2282 13.2441 13.9798C13.347 13.7314 13.5212 13.5191 13.7448 13.3697C13.9683 13.2204 14.2311 13.1406 14.5 13.1406C14.8605 13.1406 15.2063 13.2838 15.4612 13.5388C15.7162 13.7937 15.8594 14.1395 15.8594 14.5ZM9.51562 13.1406C9.24677 13.1406 8.98394 13.2204 8.7604 13.3697C8.53685 13.5191 8.36261 13.7314 8.25973 13.9798C8.15684 14.2282 8.12992 14.5015 8.18237 14.7652C8.23482 15.0289 8.36429 15.2711 8.5544 15.4612C8.74451 15.6513 8.98673 15.7808 9.25042 15.8333C9.51412 15.8857 9.78744 15.8588 10.0358 15.7559C10.2842 15.653 10.4965 15.4788 10.6459 15.2552C10.7953 15.0317 10.875 14.7689 10.875 14.5C10.875 14.1395 10.7318 13.7937 10.4768 13.5388C10.2219 13.2838 9.87615 13.1406 9.51562 13.1406ZM19.4844 13.1406C19.2155 13.1406 18.9527 13.2204 18.7291 13.3697C18.5056 13.5191 18.3314 13.7314 18.2285 13.9798C18.1256 14.2282 18.0987 14.5015 18.1511 14.7652C18.2036 15.0289 18.333 15.2711 18.5232 15.4612C18.7133 15.6513 18.9555 15.7808 19.2192 15.8333C19.4829 15.8857 19.7562 15.8588 20.0046 15.7559C20.253 15.653 20.4653 15.4788 20.6147 15.2552C20.764 15.0317 20.8438 14.7689 20.8438 14.5C20.8438 14.1395 20.7005 13.7937 20.4456 13.5388C20.1907 13.2838 19.8449 13.1406 19.4844 13.1406ZM26.2812 14.5C26.2817 16.534 25.7555 18.5335 24.754 20.3038C23.7524 22.0741 22.3096 23.555 20.5659 24.6022C18.8222 25.6495 16.8371 26.2275 14.8038 26.2799C12.7704 26.3323 10.7582 25.8575 8.96281 24.9015L5.10559 26.1872C4.78623 26.2937 4.44352 26.3092 4.11588 26.2319C3.78823 26.1545 3.48859 25.9875 3.25055 25.7495C3.01251 25.5114 2.84546 25.2118 2.76814 24.8841C2.69082 24.5565 2.70627 24.2138 2.81277 23.8944L4.09852 20.0372C3.25814 18.4572 2.78875 16.7065 2.726 14.918C2.66324 13.1295 3.00876 11.3502 3.73632 9.71515C4.46389 8.08012 5.55437 6.63233 6.92502 5.48167C8.29566 4.33101 9.91042 3.50773 11.6467 3.07431C13.3831 2.6409 15.1953 2.60874 16.9459 2.98028C18.6965 3.35182 20.3395 4.1173 21.7501 5.21861C23.1607 6.31992 24.3019 7.72811 25.087 9.3363C25.8721 10.9445 26.2805 12.7104 26.2812 14.5ZM24.4688 14.5C24.4683 12.9708 24.1161 11.4623 23.4394 10.091C22.7626 8.71978 21.7795 7.5226 20.566 6.5921C19.3525 5.66161 17.9413 5.02275 16.4414 4.72495C14.9415 4.42715 13.3932 4.47839 11.9163 4.87472C10.4394 5.27104 9.07348 6.00182 7.9242 7.01052C6.77491 8.01921 5.87309 9.27878 5.28849 10.6918C4.7039 12.1048 4.4522 13.6333 4.55288 15.1592C4.65356 16.685 5.10391 18.1672 5.8691 19.4912C5.93332 19.6023 5.9732 19.7258 5.98609 19.8536C5.99898 19.9813 5.98459 20.1103 5.94387 20.232L4.53125 24.4688L8.76797 23.0561C8.86025 23.0247 8.95707 23.0086 9.05457 23.0086C9.21373 23.0088 9.37002 23.051 9.50769 23.1309C11.0232 24.0077 12.7429 24.4699 14.4937 24.471C16.2446 24.4721 17.9648 24.0121 19.4814 23.1372C20.998 22.2623 22.2574 21.0034 23.1329 19.4872C24.0084 17.9709 24.4692 16.2509 24.4688 14.5Z" fill="black"/>
</svg>
